STARTFONT 2.1
COMMENT
COMMENT Converted from OpenType font "Q:\font stuff\winfont\Wytherness.ttf" by "otf2bdf 3.0".
COMMENT
FONT -FreeType-Wytherness-Medium-R-Normal--149-1500-72-72-P-359-ISO10646-1
SIZE 150 72 72
FONTBOUNDINGBOX 151 152 -4 -31
STARTPROPERTIES 19
FOUNDRY "FreeType"
FAMILY_NAME "Wytherness"
WEIGHT_NAME "Medium"
SLANT "R"
SETWIDTH_NAME "Normal"
ADD_STYLE_NAME ""
PIXEL_SIZE 149
POINT_SIZE 1500
RESOLUTION_X 72
RESOLUTION_Y 72
SPACING "P"
AVERAGE_WIDTH 359
CHARSET_REGISTRY "ISO10646"
CHARSET_ENCODING "1"
FONT_ASCENT 120
FONT_DESCENT 30
COPYRIGHT "Copyright (c) Graham Meade, 2003. All rights reserved."
_OTF_FONTFILE "Q:\font stuff\winfont\Wytherness.ttf"
_OTF_PSNAME "Wytherness"
ENDPROPERTIES
CHARS 219
STARTCHAR 0020
ENCODING 32
SWIDTH 280 0
DWIDTH 42 0
BBX 0 0 0 0
BITMAP
ENDCHAR
STARTCHAR 0021
ENCODING 33
SWIDTH 140 0
DWIDTH 21 0
BBX 5 97 8 0
BITMAP
F8
F8
F8
F8
F8
F8
F8
F8
F8
F8
F8
F8
F8
F8
F8
F8
F8
F8
F8
F8
F8
F8
F8
F8
F8
F8
F8
F8
F8
F8
F8
F8
F8
F8
F8
F8
F8
F8
F8
F8
F8
F8
F8
F8
F8
F8
F8
F8
F8
F8
F8
F8
F8
F8
F8
F8
F8
F8
F8
F8
F8
F8
F8
F8
F8
F8
F8
F8
F8
F8
F8
00
00
00
00
00
00
00
00
00
00
00
00
00
00
00
00
F8
F8
F8
F8
F8
F8
F8
F8
F8
F8
ENDCHAR
STARTCHAR 0022
ENCODING 34
SWIDTH 240 0
DWIDTH 36 0
BBX 21 20 8 77
BITMAP
F800F8
F800F8
F800F8
F800F8
F800F8
F800F8
F800F8
F800F8
F800F8
F800F8
F800F8
F800F8
F800F8
F800F8
F800F8
F800F8
F800F8
F800F8
F800F8
F800F8
ENDCHAR
STARTCHAR 0023
ENCODING 35
SWIDTH 426 0
DWIDTH 64 0
BBX 48 46 8 21
BITMAP
0007C0003C00
0007C0003C00
0007C0003C00
0007C0003C00
0007C0007C00
000FC0007C00
000FC0007C00
000F80007C00
000F80007C00
000F80007C00
000F80007C00
3FFFFFFFFFFF
3FFFFFFFFFFF
3FFFFFFFFFFF
3FFFFFFFFFFF
3FFFFFFFFFFF
000F80007C00
000F80007C00
000F80007C00
000F80007C00
000F8000FC00
000F8000F800
001F8000F800
001F8000F800
001F8000F800
001F8000F800
001F0000F800
001F0000F800
001F0001F000
001F0001F000
001F0001F000
7FFFFFFFFFFE
FFFFFFFFFFFC
FFFFFFFFFFFC
FFFFFFFFFFFC
FFFFFFFFFFFC
003E0001F000
003E0001F000
003E0001F000
003E0001F000
003E0001F000
003C0001F000
003C0003E000
007C0003E000
007C0003E000
007C0003E000
ENDCHAR
STARTCHAR 0024
ENCODING 36
SWIDTH 346 0
DWIDTH 52 0
BBX 36 97 8 0
BITMAP
0001F00000
0001F00000
0001F00000
0001F00000
0001F00000
0003F80000
001FFF8000
007FFFE000
01FFFFF800
03FFFFFC00
0FFDF7FE00
1FE1F0FF80
3FC1F03FC0
7F01F01FE0
7E01F00FF0
FC01F003E0
F801F00000
F801F00000
F801F00000
F801F00000
F801F00000
F801F00000
F801F00000
F801F00000
F801F00000
F801F00000
F801F00000
F801F00000
F801F00000
F801F00000
F801F00000
F801F00000
F801F00000
F801F00000
FC01F00000
FC01F00000
7F01F00000
3F81F00000
1FC1F00000
0FF1F00000
07FFF00000
03FFFE0000
01FFFFC000
007FFFF000
001FFFF800
0001FFFE00
0001F3FF00
0001F07F80
0001F03FC0
0001F00FE0
0001F007F0
0001F003F0
0001F001F0
0001F001F0
0001F001F0
0001F001F0
0001F001F0
0001F001F0
0001F001F0
0001F001F0
0001F001F0
0001F001F0
0001F001F0
0001F001F0
0001F001F0
0001F001F0
0001F001F0
0001F001F0
0001F001F0
0001F001F0
0001F001F0
0001F001F0
0001F001F0
0001F001F0
0001F001F0
0001F001F0
0001F001F0
0001F001F0
0001F001F0
0001F001F0
1C01F001F0
FC01F003F0
7F01F00FE0
3F81F01FE0
3FC1F03FC0
1FF1F0FF00
07FFFFFE00
03FFFFFC00
01FFFFF800
007FFFE000
001FFF8000
0003F80000
0001F00000
0001F00000
0001F00000
0001F00000
0001F00000
ENDCHAR
STARTCHAR 0025
ENCODING 37
SWIDTH 620 0
DWIDTH 93 0
BBX 77 97 8 1
BITMAP
003F000000001F000000
01FFC00000003F000000
03FFF00000003E000000
07FFF80000003E000000
0FFFF80000007E000000
0FE1FC0000007C000000
1F807E0000007C000000
3F003F0000007C000000
7F003F800000F8000000
FE001FC00000F8000000
FC000FC00000F8000000
F80007C00001F8000000
F80007C00001F0000000
F80007C00001F0000000
F80007C00003F0000000
F80007C00003E0000000
F80007C00003E0000000
F80007C00007E0000000
F80007C00007C0000000
F80007C00007C0000000
F80007C00007C0000000
F80007C0000F80000000
F80007C0000F80000000
F80007C0000F80000000
F80007C0001F80000000
F80007C0001F00000000
F80007C0001F00000000
F80007C0003F00000000
F80007C0003E00000000
F80007C0003E00000000
F80007C0007E00000000
F80007C0007C00000000
F80007C0007C00000000
F80007C0007C00000000
F80007C000F800000000
F80007C000F800000000
F80007C000F800000000
F80007C001F800000000
F80007C001F000000000
F80007C001F000000000
FC000FC003F000000000
7E001F8003E000000000
3F001F8003E000000000
3F803F0007E000000000
1FC07E0007C000000000
0FE0FC0007C000000000
07FFFC000FC00007E000
07FFF8000F80003FFC00
03FFF0000F80007FFE00
01FFC0000F8000FFFF00
003F00001F8000FFFF80
000000001F0001FC3F80
000000001F0003F80FC0
000000003F0007E007E0
000000003E000FC003F0
000000003E000FC001F8
000000007E001F8001F8
000000007C001F0000F8
000000007C001F0000F8
00000000FC001F0000F8
00000000F8001F0000F8
00000000F8001F0000F8
00000000F8001F0000F8
00000001F0001F0000F8
00000001F0001F0000F8
00000001F0001F0000F8
00000003F0001F0000F8
00000003E0001F0000F8
00000003E0001F0000F8
00000007E0001F0000F8
00000007C0001F0000F8
00000007C0001F0000F8
0000000FC0001F0000F8
0000000F80001F0000F8
0000000F80001F0000F8
0000000F80001F0000F8
0000001F00001F0000F8
0000001F00001F0000F8
0000001F00001F0000F8
0000003F00001F0000F8
0000003E00001F0000F8
0000003E00001F0000F8
0000007E00001F0000F8
0000007C00001F0000F8
0000007C00001F0000F8
000000FC00001F0000F8
000000F800001F8001F8
000000F800000FC003F8
000001F800000FE003F0
000001F0000007E007E0
000001F0000003F80FC0
000001F0000001FC3F80
000003F0000000FFFF80
000003E00000007FFF00
000003E00000007FFE00
000007E00000001FFC00
000007C000000007E000
ENDCHAR
STARTCHAR 0026
ENCODING 38
SWIDTH 346 0
DWIDTH 52 0
BBX 36 102 8 -5
BITMAP
0003FC0000
001FFFC000
007FFFF000
01FFFFF800
03FFFFFE00
07FE03FF00
1FF0007F80
3FC0003FC0
7F80000FE0
7E000007F0
FC000003F0
F8000001F0
F8000001F0
F8000001F0
F8000001F0
F8000001F0
F8000001F0
F8000001F0
F8000001F0
F8000001F0
F8000001F0
F8000001F0
F8000001F0
F8000001F0
F8000001F0
F8000001F0
F8000001F0
F8000001F0
F8000001F0
F8000001F0
FC000003F0
7E000007F0
7F00000FE0
3FC0003FC0
1FF0007F80
07FC03FF00
03FFFFFE00
01FFFFFC00
007FFFF000
00FFFFC000
03FFFC0000
07FF800000
0FF8000000
1FE0000000
3F80000000
7F00000000
FE00000000
FC00000000
F800000000
F800000000
F800000000
F800000000
F8003C0000
F8003FC000
F8003FF000
F8003FF800
F8003FFE00
F80003FF00
F800007F80
F800003FC0
F800000FE0
F8000007F0
F8000003F0
F8000001F0
F8000001F0
F8000001F0
F8000001F0
F8000001F0
F8000001F0
F8000001F0
F8000001F0
F8000001F0
F8000001F0
F8000001F0
F8000001F0
F8000001F0
F8000001F0
F8000001F0
F8000001F0
F8000001F0
F8000001F0
F8000001F0
F8000001F0
F8000001F0
F8000001F0
FC000001F0
FC000003F0
7F000007F0
3F80000FF0
1FC0003FF0
0FF000FFF0
07FE03FFF0
03FFFFFFF0
01FFFFF9F0
007FFFF1F0
001FFFC1F0
0003FC01F0
00000001F0
00000001F0
00000001F0
00000001F0
00000001F0
ENDCHAR
STARTCHAR 0027
ENCODING 39
SWIDTH 140 0
DWIDTH 21 0
BBX 5 20 8 77
BITMAP
F8
F8
F8
F8
F8
F8
F8
F8
F8
F8
F8
F8
F8
F8
F8
F8
F8
F8
F8
F8
ENDCHAR
STARTCHAR 0028
ENCODING 40
SWIDTH 226 0
DWIDTH 34 0
BBX 18 128 8 -15
BITMAP
0003C0
001FC0
007FC0
01FFC0
03FFC0
07FE00
0FF000
1FC000
3F8000
7E0000
FC0000
F80000
F80000
F80000
F80000
F80000
F80000
F80000
F80000
F80000
F80000
F80000
F80000
F80000
F80000
F80000
F80000
F80000
F80000
F80000
F80000
F80000
F80000
F80000
F80000
F80000
F80000
F80000
F80000
F80000
F80000
F80000
F80000
F80000
F80000
F80000
F80000
F80000
F80000
F80000
F80000
F80000
F80000
F80000
F80000
F80000
F80000
F80000
F80000
F80000
F80000
F80000
F80000
F80000
F80000
F80000
F80000
F80000
F80000
F80000
F80000
F80000
F80000
F80000
F80000
F80000
F80000
F80000
F80000
F80000
F80000
F80000
F80000
F80000
F80000
F80000
F80000
F80000
F80000
F80000
F80000
F80000
F80000
F80000
F80000
F80000
F80000
F80000
F80000
F80000
F80000
F80000
F80000
F80000
F80000
F80000
F80000
F80000
F80000
F80000
F80000
F80000
F80000
F80000
F80000
F80000
F80000
FC0000
FE0000
7F8000
3FC000
1FF000
0FFC00
03FFC0
01FFC0
007FC0
001FC0
0003C0
ENDCHAR
STARTCHAR 0029
ENCODING 41
SWIDTH 226 0
DWIDTH 34 0
BBX 18 128 8 -15
BITMAP
F00000
FE0000
FF8000
FFE000
FFF000
0FF800
03FC00
00FE00
003F00
001F80
000FC0
0007C0
0007C0
0007C0
0007C0
0007C0
0007C0
0007C0
0007C0
0007C0
0007C0
0007C0
0007C0
0007C0
0007C0
0007C0
0007C0
0007C0
0007C0
0007C0
0007C0
0007C0
0007C0
0007C0
0007C0
0007C0
0007C0
0007C0
0007C0
0007C0
0007C0
0007C0
0007C0
0007C0
0007C0
0007C0
0007C0
0007C0
0007C0
0007C0
0007C0
0007C0
0007C0
0007C0
0007C0
0007C0
0007C0
0007C0
0007C0
0007C0
0007C0
0007C0
0007C0
0007C0
0007C0
0007C0
0007C0
0007C0
0007C0
0007C0
0007C0
0007C0
0007C0
0007C0
0007C0
0007C0
0007C0
0007C0
0007C0
0007C0
0007C0
0007C0
0007C0
0007C0
0007C0
0007C0
0007C0
0007C0
0007C0
0007C0
0007C0
0007C0
0007C0
0007C0
0007C0
0007C0
0007C0
0007C0
0007C0
0007C0
0007C0
0007C0
0007C0
0007C0
0007C0
0007C0
0007C0
0007C0
0007C0
0007C0
0007C0
0007C0
0007C0
0007C0
0007C0
0007C0
0007C0
000FC0
001FC0
003F80
00FF00
03FE00
0FFC00
FFF800
FFE000
FFC000
FF0000
F00000
ENDCHAR
STARTCHAR 002A
ENCODING 42
SWIDTH 333 0
DWIDTH 50 0
BBX 34 35 8 62
BITMAP
0003E00000
0003E00000
0003E00000
0003E00000
0003E00000
0003E00000
0003E00000
3003E00300
3C03E00F00
7F03E03F80
FF83E0FFC0
7FE3E1FF80
1FFBE7FE00
07FFFFF800
03FFFFF000
00FFFFC000
003FFF0000
000FFC0000
001FFE0000
007FFF8000
01FFFFE000
07FFFFF000
0FFFEFFC00
3FF3E3FF00
FFC3E0FFC0
7F03E07F80
7E03E01F80
3803E00700
0003E00000
0003E00000
0003E00000
0003E00000
0003E00000
0003E00000
0003E00000
ENDCHAR
STARTCHAR 002B
ENCODING 43
SWIDTH 413 0
DWIDTH 62 0
BBX 47 46 8 21
BITMAP
000007C00000
000007C00000
000007C00000
000007C00000
000007C00000
000007C00000
000007C00000
000007C00000
000007C00000
000007C00000
000007C00000
000007C00000
000007C00000
000007C00000
000007C00000
000007C00000
000007C00000
000007C00000
000007C00000
000007C00000
000007C00000
FFFFFFFFFFFE
FFFFFFFFFFFE
FFFFFFFFFFFE
FFFFFFFFFFFE
FFFFFFFFFFFE
000007C00000
000007C00000
000007C00000
000007C00000
000007C00000
000007C00000
000007C00000
000007C00000
000007C00000
000007C00000
000007C00000
000007C00000
000007C00000
000007C00000
000007C00000
000007C00000
000007C00000
000007C00000
000007C00000
000007C00000
ENDCHAR
STARTCHAR 002C
ENCODING 44
SWIDTH 173 0
DWIDTH 26 0
BBX 10 20 8 -10
BITMAP
07C0
07C0
07C0
0FC0
0F80
0F80
0F80
1F80
1F00
1F00
1F00
3F00
3E00
3E00
3E00
7E00
7C00
7C00
7C00
F800
ENDCHAR
STARTCHAR 002D
ENCODING 45
SWIDTH 413 0
DWIDTH 62 0
BBX 46 5 8 41
BITMAP
FFFFFFFFFFFC
FFFFFFFFFFFC
FFFFFFFFFFFC
FFFFFFFFFFFC
FFFFFFFFFFFC
ENDCHAR
STARTCHAR 002E
ENCODING 46
SWIDTH 140 0
DWIDTH 21 0
BBX 5 10 8 0
BITMAP
F8
F8
F8
F8
F8
F8
F8
F8
F8
F8
ENDCHAR
STARTCHAR 002F
ENCODING 47
SWIDTH 346 0
DWIDTH 52 0
BBX 36 97 8 0
BITMAP
00000001F0
00000003F0
00000003E0
00000003E0
00000007E0
00000007C0
00000007C0
0000000FC0
0000000F80
0000000F80
0000001F80
0000001F00
0000001F00
0000001F00
0000003F00
0000003E00
0000003E00
0000007E00
0000007C00
0000007C00
000000FC00
000000F800
000000F800
000001F800
000001F000
000001F000
000003F000
000003E000
000003E000
000007E000
000007C000
000007C000
000007C000
00000F8000
00000F8000
00000F8000
00001F8000
00001F0000
00001F0000
00003F0000
00003E0000
00003E0000
00007E0000
00007C0000
00007C0000
0000FC0000
0000F80000
0000F80000
0001F80000
0001F00000
0001F00000
0003F00000
0003E00000
0003E00000
0003E00000
0007E00000
0007C00000
0007C00000
000FC00000
000F800000
000F800000
001F800000
001F000000
001F000000
003F000000
003E000000
003E000000
007E000000
007C000000
007C000000
00FC000000
00F8000000
00F8000000
00F8000000
01F0000000
01F0000000
01F0000000
03F0000000
03E0000000
03E0000000
07E0000000
07C0000000
07C0000000
0FC0000000
0F80000000
0F80000000
1F80000000
1F00000000
1F00000000
3F00000000
3E00000000
3E00000000
3E00000000
7C00000000
7C00000000
7C00000000
FC00000000
ENDCHAR
STARTCHAR 0030
ENCODING 48
SWIDTH 346 0
DWIDTH 52 0
BBX 36 97 8 0
BITMAP
0003FC0000
001FFF8000
007FFFE000
01FFFFF800
03FFFFFC00
0FFC03FF00
1FF000FF80
3FC0003FC0
7F80000FE0
FE000007F0
FC000003F0
F8000001F0
F8000001F0
F8000001F0
F8000001F0
F8000001F0
F8000001F0
F8000001F0
F8000001F0
F8000001F0
F8000001F0
F8000001F0
F8000001F0
F8000001F0
F8000001F0
F8000001F0
F8000001F0
F8000001F0
F8000001F0
F8000001F0
F8000001F0
F8000001F0
F8000001F0
F8000001F0
F8000001F0
F8000001F0
F8000001F0
F8000001F0
F8000001F0
F8000001F0
F8000001F0
F801F001F0
F801F001F0
F801F001F0
F801F001F0
F801F001F0
F801F001F0
F801F001F0
F801F001F0
F801F001F0
F801F001F0
F8000001F0
F8000001F0
F8000001F0
F8000001F0
F8000001F0
F8000001F0
F8000001F0
F8000001F0
F8000001F0
F8000001F0
F8000001F0
F8000001F0
F8000001F0
F8000001F0
F8000001F0
F8000001F0
F8000001F0
F8000001F0
F8000001F0
F8000001F0
F8000001F0
F8000001F0
F8000001F0
F8000001F0
F8000001F0
F8000001F0
F8000001F0
F8000001F0
F8000001F0
F8000001F0
F8000001F0
F8000001F0
F8000001F0
F8000001F0
F8000001F0
FC000003F0
7E000007F0
7F80000FE0
3FC0003FC0
1FF000FF80
07FC03FF00
03FFFFFC00
01FFFFF800
007FFFE000
001FFF8000
0003FC0000
ENDCHAR
STARTCHAR 0031
ENCODING 49
SWIDTH 346 0
DWIDTH 52 0
BBX 36 97 8 0
BITMAP
0001F00000
0001F00000
0001F00000
0001F00000
0001F00000
0001F00000
0001F00000
0001F00000
0001F00000
0001F00000
0001F00000
0001F00000
0001F00000
0001F00000
0001F00000
0001F00000
0001F00000
0001F00000
0001F00000
0001F00000
0001F00000
0001F00000
0001F00000
0001F00000
0001F00000
0001F00000
0001F00000
0001F00000
0001F00000
0001F00000
0001F00000
0001F00000
0001F00000
0001F00000
0001F00000
0001F00000
0001F00000
0001F00000
0001F00000
0001F00000
0001F00000
0001F00000
0001F00000
0001F00000
0001F00000
0001F00000
0001F00000
0001F00000
0001F00000
0001F00000
0001F00000
0001F00000
0001F00000
0001F00000
0001F00000
0001F00000
0001F00000
0001F00000
0001F00000
0001F00000
0001F00000
0001F00000
0001F00000
0001F00000
0001F00000
0001F00000
0001F00000
0001F00000
0001F00000
0001F00000
0001F00000
0001F00000
0001F00000
0001F00000
0001F00000
0001F00000
0001F00000
0001F00000
0001F00000
0001F00000
0001F00000
0001F00000
0001F00000
0001F00000
0001F00000
0801F00300
FC01F007F0
7E01F00FE0
3F81F01FC0
1FC1F07F80
0FF1F0FF00
07FFFFFE00
03FFFFFC00
01FFFFF800
007FFFE000
001FFF8000
0003FC0000
ENDCHAR
STARTCHAR 0032
ENCODING 50
SWIDTH 346 0
DWIDTH 52 0
BBX 36 97 8 0
BITMAP
0003FC0000
001FFF8000
007FFFE000
01FFFFF800
03FFFFFC00
0FFC03FF00
1FF000FF80
3FC0003FC0
7F80000FE0
FE000007F0
FC000003F0
F8000001F0
F8000001F0
F8000001F0
F8000001F0
F8000001F0
00000001F0
00000001F0
00000001F0
00000001F0
00000001F0
00000001F0
00000001F0
00000001F0
00000001F0
00000001F0
00000001F0
00000001F0
00000001F0
00000001F0
00000001F0
00000001F0
00000001F0
00000001F0
00000001F0
00000003F0
00000007E0
0000000FC0
0000003FC0
000000FF80
000003FE00
0003FFFC00
001FFFF800
007FFFE000
01FFFF8000
03FFFC0000
0FFC000000
1FF0000000
3FC0000000
7F80000000
FE00000000
FC00000000
F800000000
F800000000
F800000000
F800000000
F800000000
F800000000
F800000000
F800000000
F800000000
F800000000
F800000000
F800000000
F800000000
F800000000
F800000000
F800000000
F800000000
F800000000
F800000000
F800000000
F800000000
F800000000
F800000000
F800000000
F800000000
F800000000
F800000000
F800000000
F800000000
F800000000
F800000000
F800000000
F800000000
F800000300
FC000003F0
7E00000FF0
7F00001FE0
3FC0003FC0
1FF000FF80
07FC03FF00
03FFFFFC00
01FFFFF800
007FFFE000
001FFF8000
0003FC0000
ENDCHAR
STARTCHAR 0033
ENCODING 51
SWIDTH 346 0
DWIDTH 52 0
BBX 36 97 8 0
BITMAP
0003FC0000
001FFF8000
007FFFE000
01FFFFF800
03FFFFFC00
0FFC03FF00
1FF000FF80
3FC0003FC0
7F80000FE0
FE000007F0
FC000003F0
F8000001F0
F8000001F0
F8000001F0
F8000001F0
F8000001F0
00000001F0
00000001F0
00000001F0
00000001F0
00000001F0
00000001F0
00000001F0
00000001F0
00000001F0
00000001F0
00000001F0
00000001F0
00000001F0
00000001F0
00000001F0
00000001F0
00000001F0
00000001F0
00000001F0
00000003F0
00000007E0
0000000FC0
0000003F80
000000FF00
000003FE00
00003FFC00
00003FF000
00003FF000
00003FF800
00003FFE00
000003FF00
000000FF80
0000003FC0
0000000FE0
00000007F0
00000003F0
00000001F0
00000001F0
00000001F0
00000001F0
00000001F0
00000001F0
00000001F0
00000001F0
00000001F0
00000001F0
00000001F0
00000001F0
00000001F0
00000001F0
00000001F0
00000001F0
00000001F0
00000001F0
00000001F0
00000001F0
00000001F0
00000001F0
00000001F0
00000001F0
00000001F0
00000001F0
00000001F0
00000001F0
F8000001F0
F8000001F0
F8000001F0
F8000001F0
F8000001F0
F8000001F0
FC000003F0
7E000007F0
7F80000FE0
3FC0003FC0
1FF000FF80
07FC03FF00
03FFFFFC00
01FFFFF800
007FFFE000
001FFF8000
0003FC0000
ENDCHAR
STARTCHAR 0034
ENCODING 52
SWIDTH 346 0
DWIDTH 52 0
BBX 36 97 8 1
BITMAP
0001F80000
0001F00000
0001F00000
0001F00000
0003F00000
0003E00000
0003E00000
0007E00000
0007C00000
0007C00000
0007C00000
000FC00000
000F800000
000F800000
000F800000
001F000000
001F000000
001F000000
003F000000
003E000000
003E000000
003E000000
007E000000
007C000000
007C000000
00FC07C000
00F807C000
00F807C000
00F807C000
01F807C000
01F007C000
01F007C000
01F007C000
03F007C000
03E007C000
03E007C000
07E007C000
07C007C000
07C007C000
07C007C000
0FC007C000
0F8007C000
0F8007C000
0F8007C000
1F0007C000
1F0007C000
1F0007C000
3F0007C000
3E0007C000
3E0007C000
3E0007C000
7E0007C000
7C0007C000
7C0007C000
FC0007C000
F80007C000
F80007C000
F80007C000
F80007C000
F80007C000
F80007C000
F80007C000
F80007C000
F80007C000
F80007C000
FC0007C3C0
FE0007C7F0
7F0007CFE0
3FC007DFC0
1FF007FF80
0FFE07FF00
03FFFFFE00
01FFFFFC00
007FFFF000
001FFFC000
0003FFC000
000007C000
000007C000
000007C000
000007C000
000007C000
000007C000
000007C000
000007C000
000007C000
000007C000
000007C000
000007C000
000007C000
000007C000
000007C000
000007C000
000007C000
000007C000
000007C000
000007C000
000007C000
ENDCHAR
STARTCHAR 0035
ENCODING 53
SWIDTH 346 0
DWIDTH 52 0
BBX 36 97 8 0
BITMAP
0003FC0000
001FFF8000
007FFFE000
01FFFFF800
03FFFFFC00
0FFC03FF00
1FF000FF80
3FC0003FC0
7F80000FE0
FE000007F0
FC000003E0
F800000000
F800000000
F800000000
F800000000
F800000000
F800000000
F800000000
F800000000
F800000000
F800000000
F800000000
F800000000
F800000000
F800000000
F800000000
F800000000
F800000000
F800000000
F800000000
F800000000
F800000000
F800000000
F800000000
F800000000
F800000000
F800000000
F800000000
F800000000
F800000000
F800000000
F803FC0000
F81FFF8000
F87FFFE000
F9FFFFF800
FBFFFFFC00
FFFC03FF00
FFF000FF80
FFC0003FC0
FF00000FE0
FE000007F0
FC000003F0
00000001F0
00000001F0
00000001F0
00000001F0
00000001F0
00000001F0
00000001F0
00000001F0
00000001F0
00000001F0
00000001F0
00000001F0
00000001F0
00000001F0
00000001F0
00000001F0
00000001F0
00000001F0
00000001F0
00000001F0
00000001F0
00000001F0
00000001F0
00000001F0
00000001F0
00000001F0
00000001F0
00000001F0
F8000001F0
F8000001F0
F8000001F0
F8000001F0
F8000001F0
F8000001F0
FC000003F0
7E000007F0
7F80000FE0
3FC0003FC0
1FF000FF80
07FC03FF00
03FFFFFC00
01FFFFF800
007FFFE000
001FFF8000
0003FC0000
ENDCHAR
STARTCHAR 0036
ENCODING 54
SWIDTH 346 0
DWIDTH 52 0
BBX 36 97 8 0
BITMAP
0003C00000
001FC00000
007FC00000
01FFC00000
03FFC00000
0FFC000000
1FF0000000
3FC0000000
7F80000000
FE00000000
FC00000000
F800000000
F800000000
F800000000
F800000000
F800000000
F800000000
F800000000
F800000000
F800000000
F800000000
F800000000
F800000000
F800000000
F800000000
F800000000
F800000000
F800000000
F800000000
F800000000
F800000000
F800000000
F800000000
F800000000
F800000000
F800000000
F800000000
F800000000
F800000000
F800000000
F800000000
F803FC0000
F81FFF8000
F87FFFE000
F9FFFFF800
FBFFFFFC00
FFFC03FF00
FFE0007F80
FFC0003FC0
FF00000FE0
FE000007F0
FC000003F0
F8000001F0
F8000001F0
F8000001F0
F8000001F0
F8000001F0
F8000001F0
F8000001F0
F8000001F0
F8000001F0
F8000001F0
F8000001F0
F8000001F0
F8000001F0
F8000001F0
F8000001F0
F8000001F0
F8000001F0
F8000001F0
F8000001F0
F8000001F0
F8000001F0
F8000001F0
F8000001F0
F8000001F0
F8000001F0
F8000001F0
F8000001F0
F8000001F0
F8000001F0
F8000001F0
F8000001F0
F8000001F0
F8000001F0
F8000001F0
FC000003F0
7E000007F0
7F80000FE0
3FC0003FC0
1FF000FF80
07FC03FF00
03FFFFFC00
01FFFFF800
007FFFE000
001FFF8000
0003FC0000
ENDCHAR
STARTCHAR 0037
ENCODING 55
SWIDTH 346 0
DWIDTH 52 0
BBX 35 97 9 0
BITMAP
0007F80000
003FFF0000
00FFFFC000
03FFFFF000
07FFFFF800
0FFC07FC00
1FE000FF00
3F80007F80
7F00001F80
FC00000FC0
F8000007E0
00000003E0
00000003E0
00000003E0
00000003E0
00000003E0
00000003E0
00000003E0
00000003E0
00000003E0
00000003E0
00000003E0
00000003E0
00000007C0
00000007C0
00000007C0
00000007C0
00000007C0
0000000F80
0000000F80
0000000F80
0000000F80
0000000F80
0000001F00
0000001F00
0000001F00
0000001F00
0000001F00
0000003E00
0000003E00
0000003E00
0000003E00
0000007E00
0000007C00
0000007C00
0000007C00
0000007C00
000000FC00
000000F800
000000F800
000000F800
000000F800
000001F800
000001F000
000001F000
000001F000
000001F000
000003F000
000003E000
000003E000
000003E000
000003E000
000007E000
000007C000
000007C000
000007C000
000007C000
00000FC000
00000F8000
00000F8000
00000F8000
00000F8000
00001F8000
00001F0000
00001F0000
00001F0000
00001F0000
00003F0000
00003E0000
00003E0000
00003E0000
00003E0000
00007E0000
00007C0000
00007C0000
00007C0000
00007C0000
0000FC0000
0000F80000
0000F80000
0000F80000
0000F80000
0001F80000
0001F00000
0001F00000
0001F00000
0001F00000
ENDCHAR
STARTCHAR 0038
ENCODING 56
SWIDTH 346 0
DWIDTH 52 0
BBX 36 97 8 0
BITMAP
0003FC0000
001FFF8000
007FFFE000
01FFFFF800
03FFFFFC00
0FFE03FF00
1FF000FF80
3FC0003FC0
7F80000FE0
FE000007F0
FC000003F0
F8000001F0
F8000001F0
F8000001F0
F8000001F0
F8000001F0
F8000001F0
F8000001F0
F8000001F0
F8000001F0
F8000001F0
F8000001F0
F8000001F0
F8000001F0
F8000001F0
F8000001F0
F8000001F0
F8000001F0
F8000001F0
F8000001F0
F8000001F0
F8000001F0
F8000001F0
F8000001F0
F8000001F0
FC000003F0
7E000007E0
3F00000FC0
1FC0003F80
0FF000FF00
07FC03FE00
03FFFFFC00
00FFFFF000
007FFFF000
01FFFFF800
03FFFFFE00
0FFC03FF00
1FF000FF80
3FC0003FC0
7F80000FE0
FE000007F0
FC000003F0
F8000001F0
F8000001F0
F8000001F0
F8000001F0
F8000001F0
F8000001F0
F8000001F0
F8000001F0
F8000001F0
F8000001F0
F8000001F0
F8000001F0
F8000001F0
F8000001F0
F8000001F0
F8000001F0
F8000001F0
F8000001F0
F8000001F0
F8000001F0
F8000001F0
F8000001F0
F8000001F0
F8000001F0
F8000001F0
F8000001F0
F8000001F0
F8000001F0
F8000001F0
F8000001F0
F8000001F0
F8000001F0
F8000001F0
F8000001F0
FC000003F0
7E000007F0
7F80000FE0
3FC0003FC0
1FF000FF80
07FC03FF00
03FFFFFC00
01FFFFF800
007FFFE000
001FFF8000
0003FC0000
ENDCHAR
STARTCHAR 0039
ENCODING 57
SWIDTH 346 0
DWIDTH 52 0
BBX 36 97 8 0
BITMAP
0003FC0000
001FFF8000
007FFFE000
01FFFFF800
03FFFFFC00
0FFC03FF00
1FF000FF80
3FC0003FC0
7F80000FE0
FE000007F0
FC000003F0
F8000001F0
F8000001F0
F8000001F0
F8000001F0
F8000001F0
F8000001F0
F8000001F0
F8000001F0
F8000001F0
F8000001F0
F8000001F0
F8000001F0
F8000001F0
F8000001F0
F8000001F0
F8000001F0
F8000001F0
F8000001F0
F8000001F0
F8000001F0
F8000001F0
F8000001F0
F8000001F0
F8000001F0
F8000001F0
F8000001F0
F8000001F0
F8000001F0
F8000001F0
F8000001F0
F8000001F0
F8000001F0
F8000001F0
F8000001F0
FC000003F0
7E000007F0
7F80000FF0
3FC0003FF0
1FF000FFF0
07FE03FFF0
03FFFFFDF0
01FFFFF9F0
007FFFE1F0
001FFF81F0
0003FC01F0
00000001F0
00000001F0
00000001F0
00000001F0
00000001F0
00000001F0
00000001F0
00000001F0
00000001F0
00000001F0
00000001F0
00000001F0
00000001F0
00000001F0
00000001F0
00000001F0
00000001F0
00000001F0
00000001F0
00000001F0
00000001F0
00000001F0
00000001F0
00000001F0
00000001F0
00000001F0
00000001F0
00000001F0
00000001F0
00000001F0
00000003F0
00000007F0
0000000FE0
0000003FC0
000000FF80
000003FF00
00003FFC00
00003FF800
00003FE000
00003F8000
00003C0000
ENDCHAR
STARTCHAR 003A
ENCODING 58
SWIDTH 140 0
DWIDTH 21 0
BBX 5 51 8 0
BITMAP
F8
F8
F8
F8
F8
F8
F8
F8
F8
F8
00
00
00
00
00
00
00
00
00
00
00
00
00
00
00
00
00
00
00
00
00
00
00
00
00
00
00
00
00
00
00
F8
F8
F8
F8
F8
F8
F8
F8
F8
F8
ENDCHAR
STARTCHAR 003B
ENCODING 59
SWIDTH 173 0
DWIDTH 26 0
BBX 10 61 8 -10
BITMAP
07C0
07C0
07C0
07C0
07C0
07C0
07C0
07C0
07C0
07C0
0000
0000
0000
0000
0000
0000
0000
0000
0000
0000
0000
0000
0000
0000
0000
0000
0000
0000
0000
0000
0000
0000
0000
0000
0000
0000
0000
0000
0000
0000
0000
07C0
0FC0
0F80
0F80
0F80
1F80
1F00
1F00
1F00
1F00
3E00
3E00
3E00
3E00
7C00
7C00
7C00
7C00
F800
F800
ENDCHAR
STARTCHAR 003C
ENCODING 60
SWIDTH 413 0
DWIDTH 62 0
BBX 47 36 8 26
BITMAP
000000000006
00000000003E
0000000001FE
000000000FFE
000000007FFE
00000003FFFC
0000001FFFE0
000000FFFF00
000003FFF800
00001FFFC000
0000FFFE0000
0007FFF00000
003FFF800000
01FFFC000000
0FFFF0000000
7FFF80000000
FFFC00000000
FFE000000000
FF8000000000
FFF000000000
FFFE00000000
3FFFC0000000
07FFF8000000
00FFFF000000
001FFFE00000
0003FFFC0000
00007FFF8000
00000FFFF000
000001FFFE00
0000003FFFE0
00000007FFFC
000000007FFC
000000000FFC
0000000001FC
00000000003C
000000000004
ENDCHAR
STARTCHAR 003D
ENCODING 61
SWIDTH 413 0
DWIDTH 62 0
BBX 46 25 8 31
BITMAP
FFFFFFFFFFFC
FFFFFFFFFFFC
FFFFFFFFFFFC
FFFFFFFFFFFC
FFFFFFFFFFFC
000000000000
000000000000
000000000000
000000000000
000000000000
000000000000
000000000000
000000000000
000000000000
000000000000
000000000000
000000000000
000000000000
000000000000
000000000000
FFFFFFFFFFFC
FFFFFFFFFFFC
FFFFFFFFFFFC
FFFFFFFFFFFC
FFFFFFFFFFFC
ENDCHAR
STARTCHAR 003E
ENCODING 62
SWIDTH 413 0
DWIDTH 62 0
BBX 47 36 8 26
BITMAP
C00000000000
F80000000000
FE0000000000
FFC000000000
FFF800000000
7FFF00000000
0FFFE0000000
01FFFC000000
003FFF800000
000FFFF00000
0001FFFE0000
00003FFFC000
000007FFF800
000000FFFF00
0000001FFFE0
00000003FFFC
000000007FFE
000000000FFE
0000000003FE
000000001FFE
00000000FFFE
00000007FFF8
0000003FFFC0
000001FFFE00
00000FFFF000
00007FFF8000
0007FFFC0000
003FFFE00000
01FFFE000000
0FFFF0000000
7FFF80000000
FFFC00000000
FFE000000000
FF0000000000
780000000000
400000000000
ENDCHAR
STARTCHAR 003F
ENCODING 63
SWIDTH 346 0
DWIDTH 52 0
BBX 35 97 9 0
BITMAP
0007F80000
003FFF0000
00FFFFE000
03FFFFF000
07FFFFFC00
0FFC07FE00
1FE000FF00
7F80007F80
7F00001FC0
FC00000FE0
F8000007E0
00000003E0
00000003E0
00000003E0
00000003E0
00000003E0
00000003E0
00000003E0
00000003E0
00000003E0
00000003E0
00000003E0
00000003E0
00000003E0
00000003E0
00000003E0
00000003E0
00000003E0
00000003E0
00000003E0
00000003E0
00000003E0
00000003E0
00000003E0
00000007E0
0000000FE0
0000001FC0
0000007F80
000000FF00
000007FE00
0000FFFC00
0000FFF800
0000FFF000
0000FFC000
0000FE0000
0000F80000
0000F80000
0000F80000
0000F80000
0000F80000
0000F80000
0000F80000
0000F80000
0000F80000
0000F80000
0000F80000
0000F80000
0000F80000
0000F80000
0000F80000
0000F80000
0000F80000
0000F80000
0000F80000
0000F80000
0000F80000
0000F80000
0000F80000
0000F80000
0000F80000
0000F80000
0000000000
0000000000
0000000000
0000000000
0000000000
0000000000
0000000000
0000000000
0000000000
0000000000
0000000000
0000000000
0000000000
0000000000
0000000000
0000000000
0000F80000
0000F80000
0000F80000
0000F80000
0000F80000
0000F80000
0000F80000
0000F80000
0000F80000
0000F80000
ENDCHAR
STARTCHAR 0040
ENCODING 64
SWIDTH 480 0
DWIDTH 72 0
BBX 56 84 8 5
BITMAP
0003FFFF000000
001FFFFFE00000
007FFFFFF80000
01FFFFFFFE0000
03FFFFFFFF0000
07FC0000FF8000
0FF000003FC000
1FC000000FE000
3F80000003F000
7E00000001F800
FC00000000FC00
F8000000007C00
F8000000007C00
F8000000007C00
F8000000007C00
F8000000007C00
F8000000007C00
F8000000007C00
F8000000007C00
F8000000007C00
F8000000007C00
F8000000007C00
F80000FF007C00
F80007FFE07C00
F8001FFFF87C00
F8007FFFFE7C00
F800FFFFFF7C00
F801FFFFFFFC00
F803FE007FFC00
F807F8001FFC00
F80FE00007FC00
F81FC00003FC00
F83F800001FC00
F83F000000FC00
F83E0000007C00
F83E0000007C00
F83E0000007C00
F83E0000007C00
F83E0000007C00
F83E0000007C00
F83E0000007C00
F83E0000007C00
F83E0000007C00
F83E0000007C00
F83E0000007C00
F83E0000007C00
F83E0000007C00
F83E0000007C00
F83E0000007C00
F83E0000007C00
F83E0000007C00
F83E0000007C00
F83F000000FC00
F83F800001FC1F
F81FC00003FC1F
F80FF0000FFC1F
F807F8001FFC1F
F803FE00FFFC1F
F800FFFFFF7C1F
F8007FFFFE7C1F
F8001FFFF87C1F
F80007FFE07C1F
F80000FF007C1F
F800000000001F
F800000000001F
F800000000001F
F800000000001F
F800000000001F
F800000000001F
F800000000001F
F800000000001F
F800000000001F
F800000000001F
FC00000000003F
7E00000000007E
3F8000000000FE
3FC000000003FC
1FF000000007F8
07FC0000003FF0
03FFFFFFFFFFC0
01FFFFFFFFFF80
007FFFFFFFFF00
001FFFFFFFFC00
0003FFFFFFC000
ENDCHAR
STARTCHAR 0041
ENCODING 65
SWIDTH 346 0
DWIDTH 52 0
BBX 36 97 8 0
BITMAP
0003FC0000
001FFF8000
007FFFF000
01FFFFF800
03FFFFFE00
0FFC03FF00
1FF000FF80
3FC0003FC0
7F80000FE0
FE000007F0
FC000003F0
F8000001F0
F8000001F0
F8000001F0
F8000001F0
F8000001F0
F8000001F0
F8000001F0
F8000001F0
F8000001F0
F8000001F0
F8000001F0
F8000001F0
F8000001F0
F8000001F0
F8000001F0
F8000001F0
F8000001F0
F8000001F0
F8000001F0
F8000001F0
F8000001F0
F8000001F0
F8000001F0
F8000001F0
F8000001F0
F8000001F0
F8000001F0
F8000001F0
F8000001F0
F8000001F0
FFFFFFFFF0
FFFFFFFFF0
FFFFFFFFF0
FFFFFFFFF0
FFFFFFFFF0
F8000001F0
F8000001F0
F8000001F0
F8000001F0
F8000001F0
F8000001F0
F8000001F0
F8000001F0
F8000001F0
F8000001F0
F8000001F0
F8000001F0
F8000001F0
F8000001F0
F8000001F0
F8000001F0
F8000001F0
F8000001F0
F8000001F0
F8000001F0
F8000001F0
F8000001F0
F8000001F0
F8000001F0
F8000001F0
F8000001F0
F8000001F0
F8000001F0
F8000001F0
F8000001F0
F8000001F0
F8000001F0
F8000001F0
F8000001F0
F8000001F0
F8000001F0
F8000001F0
F8000001F0
F8000001F0
F8000001F0
F8000001F0
F8000001F0
F8000001F0
F8000001F0
F8000001F0
F8000001F0
F8000001F0
F8000001F0
F8000001F0
F8000001F0
F8000001F0
ENDCHAR
STARTCHAR 0042
ENCODING 66
SWIDTH 346 0
DWIDTH 52 0
BBX 36 97 8 0
BITMAP
FFFFFE0000
FFFFFFC000
FFFFFFF000
FFFFFFF800
FFFFFFFE00
F80003FF00
F80000FF80
F800003FC0
F800000FE0
F8000007F0
F8000003F0
F8000001F0
F8000001F0
F8000001F0
F8000001F0
F8000001F0
F8000001F0
F8000001F0
F8000001F0
F8000001F0
F8000001F0
F8000001F0
F8000001F0
F8000001F0
F8000001F0
F8000001F0
F8000001F0
F8000001F0
F8000001F0
F8000001F0
F8000001F0
F8000001F0
F8000001F0
F8000001F0
F8000001F0
F8000003F0
F8000007E0
F800000FC0
F800003F80
F80000FF00
F80003FE00
FFFFFFFC00
FFFFFFF000
FFFFFFF000
FFFFFFF800
FFFFFFFE00
F80003FF00
F80000FF80
F800003FC0
F800000FE0
F8000007F0
F8000003F0
F8000001F0
F8000001F0
F8000001F0
F8000001F0
F8000001F0
F8000001F0
F8000001F0
F8000001F0
F8000001F0
F8000001F0
F8000001F0
F8000001F0
F8000001F0
F8000001F0
F8000001F0
F8000001F0
F8000001F0
F8000001F0
F8000001F0
F8000001F0
F8000001F0
F8000001F0
F8000001F0
F8000001F0
F8000001F0
F8000001F0
F8000001F0
F8000001F0
F8000001F0
F8000001F0
F8000001F0
F8000001F0
F8000001F0
F8000001F0
F8000003F0
F8000007E0
F800000FE0
F800003FC0
F80000FF80
F80003FF00
FFFFFFFC00
FFFFFFF800
FFFFFFE000
FFFFFF8000
FFFFFC0000
ENDCHAR
STARTCHAR 0043
ENCODING 67
SWIDTH 346 0
DWIDTH 52 0
BBX 36 97 8 0
BITMAP
0003FC0000
001FFF8000
007FFFE000
01FFFFF800
03FFFFFC00
0FFC03FF00
1FF000FF80
3FC0003FC0
7F80001FE0
FE000007E0
FC000003C0
F800000000
F800000000
F800000000
F800000000
F800000000
F800000000
F800000000
F800000000
F800000000
F800000000
F800000000
F800000000
F800000000
F800000000
F800000000
F800000000
F800000000
F800000000
F800000000
F800000000
F800000000
F800000000
F800000000
F800000000
F800000000
F800000000
F800000000
F800000000
F800000000
F800000000
F800000000
F800000000
F800000000
F800000000
F800000000
F800000000
F800000000
F800000000
F800000000
F800000000
F800000000
F800000000
F800000000
F800000000
F800000000
F800000000
F800000000
F800000000
F800000000
F800000000
F800000000
F800000000
F800000000
F800000000
F800000000
F800000000
F800000000
F800000000
F800000000
F800000000
F800000000
F800000000
F800000000
F800000000
F800000000
F800000000
F800000000
F800000000
F800000000
F800000000
F800000000
F800000000
F800000000
F800000000
F800000380
FC000007F0
7E00000FE0
3F00001FC0
1FC0003F80
1FF000FF00
07FC07FE00
03FFFFFC00
01FFFFF800
007FFFE000
001FFF8000
0003FC0000
ENDCHAR
STARTCHAR 0044
ENCODING 68
SWIDTH 346 0
DWIDTH 52 0
BBX 36 97 8 0
BITMAP
FFFFFE0000
FFFFFFC000
FFFFFFF000
FFFFFFF800
FFFFFFFE00
F80003FF00
F80000FF80
F800003FC0
F800000FE0
F8000007F0
F8000003F0
F8000001F0
F8000001F0
F8000001F0
F8000001F0
F8000001F0
F8000001F0
F8000001F0
F8000001F0
F8000001F0
F8000001F0
F8000001F0
F8000001F0
F8000001F0
F8000001F0
F8000001F0
F8000001F0
F8000001F0
F8000001F0
F8000001F0
F8000001F0
F8000001F0
F8000001F0
F8000001F0
F8000001F0
F8000001F0
F8000001F0
F8000001F0
F8000001F0
F8000001F0
F8000001F0
F8000001F0
F8000001F0
F8000001F0
F8000001F0
F8000001F0
F8000001F0
F8000001F0
F8000001F0
F8000001F0
F8000001F0
F8000001F0
F8000001F0
F8000001F0
F8000001F0
F8000001F0
F8000001F0
F8000001F0
F8000001F0
F8000001F0
F8000001F0
F8000001F0
F8000001F0
F8000001F0
F8000001F0
F8000001F0
F8000001F0
F8000001F0
F8000001F0
F8000001F0
F8000001F0
F8000001F0
F8000001F0
F8000001F0
F8000001F0
F8000001F0
F8000001F0
F8000001F0
F8000001F0
F8000001F0
F8000001F0
F8000001F0
F8000001F0
F8000001F0
F8000001F0
F8000001F0
F8000003F0
F8000007E0
F800000FE0
F800003FC0
F80000FF80
F80003FF00
FFFFFFFC00
FFFFFFF800
FFFFFFE000
FFFFFF8000
FFFFFC0000
ENDCHAR
STARTCHAR 0045
ENCODING 69
SWIDTH 340 0
DWIDTH 51 0
BBX 36 97 8 0
BITMAP
0003FC0000
001FFF8000
007FFFE000
01FFFFF800
03FFFFFC00
0FFC03FF00
1FF000FF80
3FC0003FC0
7F00000FE0
FE000007E0
FC000003C0
F800000000
F800000000
F800000000
F800000000
F800000000
F800000000
F800000000
F800000000
F800000000
F800000000
F800000000
F800000000
F800000000
F800000000
F800000000
F800000000
F800000000
F800000000
F800000000
F800000000
F800000000
F800000000
F800000000
F800000000
F800000000
F800000000
F800000000
F800000000
F800000000
F800000000
FFFFFFC000
FFFFFFC000
FFFFFFC000
FFFFFFC000
FFFFFFC000
F800000000
F800000000
F800000000
F800000000
F800000000
F800000000
F800000000
F800000000
F800000000
F800000000
F800000000
F800000000
F800000000
F800000000
F800000000
F800000000
F800000000
F800000000
F800000000
F800000000
F800000000
F800000000
F800000000
F800000000
F800000000
F800000000
F800000000
F800000000
F800000000
F800000000
F800000000
F800000000
F800000000
F800000000
F800000000
F800000000
F800000000
F800000000
F800000000
F800000380
FC000007F0
7E00000FE0
3F00001FC0
1FC0003F80
1FF000FF00
07FC07FE00
03FFFFFC00
01FFFFF800
007FFFE000
001FFF8000
0003FC0000
ENDCHAR
STARTCHAR 0046
ENCODING 70
SWIDTH 313 0
DWIDTH 47 0
BBX 35 97 8 0
BITMAP
0003FC0000
001FFF8000
007FFFE000
01FFFFF800
03FFFFFC00
0FFC03FF00
1FF000FF80
3FC0003FC0
7F00000FE0
FE000007E0
FC000003C0
F800000000
F800000000
F800000000
F800000000
F800000000
F800000000
F800000000
F800000000
F800000000
F800000000
F800000000
F800000000
F800000000
F800000000
F800000000
F800000000
F800000000
F800000000
F800000000
F800000000
F800000000
F800000000
F800000000
F800000000
F800000000
F800000000
F800000000
F800000000
F800000000
F800000000
FFFFFFC000
FFFFFFC000
FFFFFFC000
FFFFFFC000
FFFFFFC000
F800000000
F800000000
F800000000
F800000000
F800000000
F800000000
F800000000
F800000000
F800000000
F800000000
F800000000
F800000000
F800000000
F800000000
F800000000
F800000000
F800000000
F800000000
F800000000
F800000000
F800000000
F800000000
F800000000
F800000000
F800000000
F800000000
F800000000
F800000000
F800000000
F800000000
F800000000
F800000000
F800000000
F800000000
F800000000
F800000000
F800000000
F800000000
F800000000
F800000000
F800000000
F800000000
F800000000
F800000000
F800000000
F800000000
F800000000
F800000000
F800000000
F800000000
F800000000
ENDCHAR
STARTCHAR 0047
ENCODING 71
SWIDTH 346 0
DWIDTH 52 0
BBX 36 97 8 0
BITMAP
0003FC0000
001FFF8000
007FFFF000
01FFFFF800
03FFFFFE00
0FFC03FF00
1FF000FF80
3FC0003FC0
7F00000FE0
FE000007F0
FC000003C0
F800000000
F800000000
F800000000
F800000000
F800000000
F800000000
F800000000
F800000000
F800000000
F800000000
F800000000
F800000000
F800000000
F800000000
F800000000
F800000000
F800000000
F800000000
F800000000
F800000000
F800000000
F800000000
F800000000
F800000000
F800000000
F800000000
F800000000
F800000000
F800000000
F800000000
F801FFFFF0
F801FFFFF0
F801FFFFF0
F801FFFFF0
F801FFFFF0
F8000001F0
F8000001F0
F8000001F0
F8000001F0
F8000001F0
F8000001F0
F8000001F0
F8000001F0
F8000001F0
F8000001F0
F8000001F0
F8000001F0
F8000001F0
F8000001F0
F8000001F0
F8000001F0
F8000001F0
F8000001F0
F8000001F0
F8000001F0
F8000001F0
F8000001F0
F8000001F0
F8000001F0
F8000001F0
F8000001F0
F8000001F0
F8000001F0
F8000001F0
F8000001F0
F8000001F0
F8000001F0
F8000001F0
F8000001F0
F8000001F0
F8000001F0
F8000001F0
F8000001F0
F8000001F0
F8000001F0
FC000003F0
7E000007E0
3F80000FE0
1FC0003FC0
0FF000FF80
07FC03FF00
03FFFFFC00
01FFFFF800
007FFFE000
001FFF8000
0003FC0000
ENDCHAR
STARTCHAR 0048
ENCODING 72
SWIDTH 346 0
DWIDTH 52 0
BBX 36 97 8 0
BITMAP
F8000001F0
F8000001F0
F8000001F0
F8000001F0
F8000001F0
F8000001F0
F8000001F0
F8000001F0
F8000001F0
F8000001F0
F8000001F0
F8000001F0
F8000001F0
F8000001F0
F8000001F0
F8000001F0
F8000001F0
F8000001F0
F8000001F0
F8000001F0
F8000001F0
F8000001F0
F8000001F0
F8000001F0
F8000001F0
F8000001F0
F8000001F0
F8000001F0
F8000001F0
F8000001F0
F8000001F0
F8000001F0
F8000001F0
F8000001F0
F8000001F0
F8000001F0
F8000001F0
F8000001F0
F8000001F0
F8000001F0
F8000001F0
FFFFFFFFF0
FFFFFFFFF0
FFFFFFFFF0
FFFFFFFFF0
FFFFFFFFF0
F8000001F0
F8000001F0
F8000001F0
F8000001F0
F8000001F0
F8000001F0
F8000001F0
F8000001F0
F8000001F0
F8000001F0
F8000001F0
F8000001F0
F8000001F0
F8000001F0
F8000001F0
F8000001F0
F8000001F0
F8000001F0
F8000001F0
F8000001F0
F8000001F0
F8000001F0
F8000001F0
F8000001F0
F8000001F0
F8000001F0
F8000001F0
F8000001F0
F8000001F0
F8000001F0
F8000001F0
F8000001F0
F8000001F0
F8000001F0
F8000001F0
F8000001F0
F8000001F0
F8000001F0
F8000001F0
F8000001F0
F8000001F0
F8000001F0
F8000001F0
F8000001F0
F8000001F0
F8000001F0
F8000001F0
F8000001F0
F8000001F0
F8000001F0
F8000001F0
ENDCHAR
STARTCHAR 0049
ENCODING 73
SWIDTH 140 0
DWIDTH 21 0
BBX 5 97 8 0
BITMAP
F8
F8
F8
F8
F8
F8
F8
F8
F8
F8
F8
F8
F8
F8
F8
F8
F8
F8
F8
F8
F8
F8
F8
F8
F8
F8
F8
F8
F8
F8
F8
F8
F8
F8
F8
F8
F8
F8
F8
F8
F8
F8
F8
F8
F8
F8
F8
F8
F8
F8
F8
F8
F8
F8
F8
F8
F8
F8
F8
F8
F8
F8
F8
F8
F8
F8
F8
F8
F8
F8
F8
F8
F8
F8
F8
F8
F8
F8
F8
F8
F8
F8
F8
F8
F8
F8
F8
F8
F8
F8
F8
F8
F8
F8
F8
F8
F8
ENDCHAR
STARTCHAR 004A
ENCODING 74
SWIDTH 346 0
DWIDTH 52 0
BBX 36 97 8 0
BITMAP
00000001F0
00000001F0
00000001F0
00000001F0
00000001F0
00000001F0
00000001F0
00000001F0
00000001F0
00000001F0
00000001F0
00000001F0
00000001F0
00000001F0
00000001F0
00000001F0
00000001F0
00000001F0
00000001F0
00000001F0
00000001F0
00000001F0
00000001F0
00000001F0
00000001F0
00000001F0
00000001F0
00000001F0
00000001F0
00000001F0
00000001F0
00000001F0
00000001F0
00000001F0
00000001F0
00000001F0
00000001F0
00000001F0
00000001F0
00000001F0
00000001F0
00000001F0
00000001F0
00000001F0
00000001F0
00000001F0
00000001F0
00000001F0
00000001F0
00000001F0
00000001F0
00000001F0
00000001F0
00000001F0
00000001F0
00000001F0
00000001F0
00000001F0
00000001F0
00000001F0
00000001F0
00000001F0
00000001F0
00000001F0
00000001F0
00000001F0
00000001F0
00000001F0
00000001F0
00000001F0
00000001F0
00000001F0
00000001F0
00000001F0
00000001F0
00000001F0
00000001F0
00000001F0
00000001F0
00000001F0
00000001F0
00000001F0
00000001F0
00000001F0
00000001F0
1C000001F0
FE000003F0
7F000007E0
3F80000FE0
1FC0003FC0
0FF000FF80
07FE03FF00
03FFFFFC00
01FFFFF800
007FFFE000
001FFF8000
0003FC0000
ENDCHAR
STARTCHAR 004B
ENCODING 75
SWIDTH 346 0
DWIDTH 52 0
BBX 36 97 8 0
BITMAP
F8000001F0
F8000001F0
F8000001F0
F8000001F0
F8000001F0
F8000001F0
F8000001F0
F8000001F0
F8000001F0
F8000001F0
F8000001F0
F8000001F0
F8000001F0
F8000001F0
F8000001F0
F8000001F0
F8000001F0
F8000001F0
F8000001F0
F8000001F0
F8000001F0
F8000001F0
F8000001F0
F8000001F0
F8000001F0
F8000001F0
F8000001F0
F8000001F0
F8000001F0
F8000001F0
F8000001F0
F8000001F0
F8000001F0
F8000001F0
F8000001F0
F8000007F0
F800000FE0
F800001FC0
F800007F80
F80003FF00
F8001FFE00
F803FFFC00
F81FFFF000
F87FFFF000
F9FFFFF800
FFFFFFFE00
FFFC01FF00
FFE0007F80
FFC0001FC0
FF00000FE0
FE000007F0
FC000003F0
F8000001F0
F8000001F0
F8000001F0
F8000001F0
F8000001F0
F8000001F0
F8000001F0
F8000001F0
F8000001F0
F8000001F0
F8000001F0
F8000001F0
F8000001F0
F8000001F0
F8000001F0
F8000001F0
F8000001F0
F8000001F0
F8000001F0
F8000001F0
F8000001F0
F8000001F0
F8000001F0
F8000001F0
F8000001F0
F8000001F0
F8000001F0
F8000001F0
F8000001F0
F8000001F0
F8000001F0
F8000001F0
F8000001F0
F8000001F0
F8000001F0
F8000001F0
F8000001F0
F8000001F0
F8000001F0
F8000001F0
F8000001F0
F8000001F0
F8000001F0
F8000001F0
F8000001F0
ENDCHAR
STARTCHAR 004C
ENCODING 76
SWIDTH 346 0
DWIDTH 52 0
BBX 36 97 8 0
BITMAP
F800000000
F800000000
F800000000
F800000000
F800000000
F800000000
F800000000
F800000000
F800000000
F800000000
F800000000
F800000000
F800000000
F800000000
F800000000
F800000000
F800000000
F800000000
F800000000
F800000000
F800000000
F800000000
F800000000
F800000000
F800000000
F800000000
F800000000
F800000000
F800000000
F800000000
F800000000
F800000000
F800000000
F800000000
F800000000
F800000000
F800000000
F800000000
F800000000
F800000000
F800000000
F800000000
F800000000
F800000000
F800000000
F800000000
F800000000
F800000000
F800000000
F800000000
F800000000
F800000000
F800000000
F800000000
F800000000
F800000000
F800000000
F800000000
F800000000
F800000000
F800000000
F800000000
F800000000
F800000000
F800000000
F800000000
F800000000
F800000000
F800000000
F800000000
F800000000
F800000000
F800000000
F800000000
F800000000
F800000000
F800000000
F800000000
F800000000
F800000000
F800000000
F800000000
F800000000
F800000000
F800000000
F800000000
FC00000000
7E00000000
3F00000000
1FC0000000
1FF0000000
07FC000000
03FFFFFFF0
01FFFFFFF0
007FFFFFF0
001FFFFFF0
0003FFFFF0
ENDCHAR
STARTCHAR 004D
ENCODING 77
SWIDTH 553 0
DWIDTH 83 0
BBX 67 97 8 0
BITMAP
0003FC000007F80000
001FFF80003FFF0000
007FFFE000FFFFE000
01FFFFF803FFFFF000
03FFFFFC07FFFFFC00
0FFC03FF1FF807FE00
1FF000FFBFE001FF00
3FC0003FFF80007F80
7F80000FFF00001FC0
FE000007FC00000FE0
FC000003F8000007E0
F8000001F0000003E0
F8000001F0000003E0
F8000001F0000003E0
F8000001F0000003E0
F8000001F0000003E0
F8000001F0000003E0
F8000001F0000003E0
F8000001F0000003E0
F8000001F0000003E0
F8000001F0000003E0
F8000001F0000003E0
F8000001F0000003E0
F8000001F0000003E0
F8000001F0000003E0
F8000001F0000003E0
F8000001F0000003E0
F8000001F0000003E0
F8000001F0000003E0
F8000001F0000003E0
F8000001F0000003E0
F8000001F0000003E0
F8000001F0000003E0
F8000001F0000003E0
F8000001F0000003E0
F8000001F0000003E0
F8000001F0000003E0
F8000001F0000003E0
F8000001F0000003E0
F8000001F0000003E0
F8000001F0000003E0
F8000001F0000003E0
F8000001F0000003E0
F8000001F0000003E0
F8000001F0000003E0
F8000001F0000003E0
F8000001F0000003E0
F8000001F0000003E0
F8000001F0000003E0
F8000001F0000003E0
F8000001F0000003E0
F8000001F0000003E0
F8000001F0000003E0
F8000001F0000003E0
F8000001F0000003E0
F8000001F0000003E0
F8000001F0000003E0
F8000001F0000003E0
F8000001F0000003E0
F8000001F0000003E0
F8000001F0000003E0
F8000001F0000003E0
F8000001F0000003E0
F8000001F0000003E0
F8000001F0000003E0
F8000001F0000003E0
F8000001F0000003E0
F8000001F0000003E0
F8000001F0000003E0
F8000001F0000003E0
F8000001F0000003E0
F8000001F0000003E0
F8000001F0000003E0
F8000001F0000003E0
F8000001F0000003E0
F8000001F0000003E0
F8000001F0000003E0
F8000001F0000003E0
F8000001F0000003E0
F8000001F0000003E0
F8000001F0000003E0
F8000001F0000003E0
F8000001F0000003E0
F8000001F0000003E0
F8000001F0000003E0
F8000001F0000003E0
F8000001F0000003E0
F8000001F0000003E0
F8000001F0000003E0
F8000001F0000003E0
F8000001F0000003E0
F8000001F0000003E0
F8000001F0000003E0
F8000001F0000003E0
F8000001F0000003E0
F8000001F0000003E0
F8000001F0000003E0
ENDCHAR
STARTCHAR 004E
ENCODING 78
SWIDTH 346 0
DWIDTH 52 0
BBX 36 97 8 0
BITMAP
0003FC0000
001FFF8000
007FFFF000
01FFFFF800
03FFFFFE00
0FFC03FF00
1FF000FF80
3FC0003FC0
7F80000FE0
FE000007F0
FC000003F0
F8000001F0
F8000001F0
F8000001F0
F8000001F0
F8000001F0
F8000001F0
F8000001F0
F8000001F0
F8000001F0
F8000001F0
F8000001F0
F8000001F0
F8000001F0
F8000001F0
F8000001F0
F8000001F0
F8000001F0
F8000001F0
F8000001F0
F8000001F0
F8000001F0
F8000001F0
F8000001F0
F8000001F0
F8000001F0
F8000001F0
F8000001F0
F8000001F0
F8000001F0
F8000001F0
F8000001F0
F8000001F0
F8000001F0
F8000001F0
F8000001F0
F8000001F0
F8000001F0
F8000001F0
F8000001F0
F8000001F0
F8000001F0
F8000001F0
F8000001F0
F8000001F0
F8000001F0
F8000001F0
F8000001F0
F8000001F0
F8000001F0
F8000001F0
F8000001F0
F8000001F0
F8000001F0
F8000001F0
F8000001F0
F8000001F0
F8000001F0
F8000001F0
F8000001F0
F8000001F0
F8000001F0
F8000001F0
F8000001F0
F8000001F0
F8000001F0
F8000001F0
F8000001F0
F8000001F0
F8000001F0
F8000001F0
F8000001F0
F8000001F0
F8000001F0
F8000001F0
F8000001F0
F8000001F0
F8000001F0
F8000001F0
F8000001F0
F8000001F0
F8000001F0
F8000001F0
F8000001F0
F8000001F0
F8000001F0
F8000001F0
ENDCHAR
STARTCHAR 004F
ENCODING 79
SWIDTH 346 0
DWIDTH 52 0
BBX 36 97 8 0
BITMAP
0003FC0000
001FFF8000
007FFFF000
01FFFFF800
03FFFFFE00
0FFC03FF00
1FF000FF80
3FC0003FC0
7F80000FE0
FE000007F0
FC000003F0
F8000001F0
F8000001F0
F8000001F0
F8000001F0
F8000001F0
F8000001F0
F8000001F0
F8000001F0
F8000001F0
F8000001F0
F8000001F0
F8000001F0
F8000001F0
F8000001F0
F8000001F0
F8000001F0
F8000001F0
F8000001F0
F8000001F0
F8000001F0
F8000001F0
F8000001F0
F8000001F0
F8000001F0
F8000001F0
F8000001F0
F8000001F0
F8000001F0
F8000001F0
F8000001F0
F8000001F0
F8000001F0
F8000001F0
F8000001F0
F8000001F0
F8000001F0
F8000001F0
F8000001F0
F8000001F0
F8000001F0
F8000001F0
F8000001F0
F8000001F0
F8000001F0
F8000001F0
F8000001F0
F8000001F0
F8000001F0
F8000001F0
F8000001F0
F8000001F0
F8000001F0
F8000001F0
F8000001F0
F8000001F0
F8000001F0
F8000001F0
F8000001F0
F8000001F0
F8000001F0
F8000001F0
F8000001F0
F8000001F0
F8000001F0
F8000001F0
F8000001F0
F8000001F0
F8000001F0
F8000001F0
F8000001F0
F8000001F0
F8000001F0
F8000001F0
F8000001F0
F8000001F0
FC000003F0
7E000007E0
3F80000FE0
1FC0003FC0
0FF000FF80
07FC03FF00
03FFFFFC00
01FFFFF800
007FFFE000
001FFF8000
0003FC0000
ENDCHAR
STARTCHAR 0050
ENCODING 80
SWIDTH 346 0
DWIDTH 52 0
BBX 36 97 8 0
BITMAP
FFFFFE0000
FFFFFFC000
FFFFFFF000
FFFFFFF800
FFFFFFFE00
F80003FF00
F80000FF80
F800003FC0
F800000FE0
F8000007F0
F8000003F0
F8000001F0
F8000001F0
F8000001F0
F8000001F0
F8000001F0
F8000001F0
F8000001F0
F8000001F0
F8000001F0
F8000001F0
F8000001F0
F8000001F0
F8000001F0
F8000001F0
F8000001F0
F8000001F0
F8000001F0
F8000001F0
F8000001F0
F8000001F0
F8000001F0
F8000001F0
F8000001F0
F8000001F0
F8000003F0
F8000007E0
F800000FC0
F800003FC0
F80000FF80
F80003FF00
FFFFFFFC00
FFFFFFF800
FFFFFFE000
FFFFFFC000
FFFFFE0000
F800000000
F800000000
F800000000
F800000000
F800000000
F800000000
F800000000
F800000000
F800000000
F800000000
F800000000
F800000000
F800000000
F800000000
F800000000
F800000000
F800000000
F800000000
F800000000
F800000000
F800000000
F800000000
F800000000
F800000000
F800000000
F800000000
F800000000
F800000000
F800000000
F800000000
F800000000
F800000000
F800000000
F800000000
F800000000
F800000000
F800000000
F800000000
F800000000
F800000000
F800000000
F800000000
F800000000
F800000000
F800000000
F800000000
F800000000
F800000000
F800000000
F800000000
F800000000
ENDCHAR
STARTCHAR 0051
ENCODING 81
SWIDTH 346 0
DWIDTH 52 0
BBX 50 106 8 -9
BITMAP
0003FC00000000
001FFF80000000
007FFFF0000000
01FFFFF8000000
03FFFFFE000000
07FC03FF000000
0FF000FF800000
3FC0003FC00000
3F80000FE00000
7E000007F00000
FC000003F00000
F8000001F00000
F8000001F00000
F8000001F00000
F8000001F00000
F8000001F00000
F8000001F00000
F8000001F00000
F8000001F00000
F8000001F00000
F8000001F00000
F8000001F00000
F8000001F00000
F8000001F00000
F8000001F00000
F8000001F00000
F8000001F00000
F8000001F00000
F8000001F00000
F8000001F00000
F8000001F00000
F8000001F00000
F8000001F00000
F8000001F00000
F8000001F00000
F8000001F00000
F8000001F00000
F8000001F00000
F8000001F00000
F8000001F00000
F8000001F00000
F8000001F00000
F8000001F00000
F8000001F00000
F8000001F00000
F8000001F00000
F8000001F00000
F8000001F00000
F8000001F00000
F8000001F00000
F8000001F00000
F8000001F00000
F8000001F00000
F8000001F00000
F8000001F00000
F8000001F00000
F8000001F00000
F8000001F00000
F8000001F00000
F8000001F00000
F8000001F00000
F8000001F00000
F8000001F00000
F8000001F00000
F8000001F00000
F8000001F00000
F8000001F00000
F8000001F00000
F8000001F00000
F8000001F00000
F8000001F00000
F8000001F00000
F8000001F00000
F8000001F00000
F8000001F00000
F8000001F00000
F8000001F00000
F8000001F00000
F8000001F00000
F8000001F00000
F8000001F00000
F8000001F00000
F8000001F00000
F8000001F00000
F8000001F00000
FC000001F00000
FC000003F00000
7F00000FE00000
3F80001FE00000
1FC0003FC00000
0FF000FF800000
07FF07FE000000
03FFFFFC000000
03FFFFF8000000
07FFFFE0000000
0FFFFFE0000000
1FF9FFF0000000
1F800FFC000000
3F0001FE000000
7E0000FF800000
FE00007FF00600
7C00001FFFFF00
1800000FFFFF80
00000007FFFFC0
00000001FFFF80
000000001FF800
ENDCHAR
STARTCHAR 0052
ENCODING 82
SWIDTH 346 0
DWIDTH 52 0
BBX 36 97 8 0
BITMAP
FFFFFE0000
FFFFFFC000
FFFFFFF000
FFFFFFF800
FFFFFFFE00
F80003FF00
F80000FF80
F800003FC0
F800000FE0
F8000007F0
F8000003F0
F8000001F0
F8000001F0
F8000001F0
F8000001F0
F8000001F0
F8000001F0
F8000001F0
F8000001F0
F8000001F0
F8000001F0
F8000001F0
F8000001F0
F8000001F0
F8000001F0
F8000001F0
F8000001F0
F8000001F0
F8000001F0
F8000001F0
F8000001F0
F8000001F0
F8000001F0
F8000001F0
F8000001F0
F8000003F0
F8000007E0
F800000FC0
F800003F80
F80000FF00
F80003FE00
FFFFFFFC00
FFFFFFF000
FFFFFFF000
FFFFFFF800
FFFFFFFE00
F80003FF00
F80000FF80
F800003FC0
F800000FE0
F8000007F0
F8000003F0
F8000001F0
F8000001F0
F8000001F0
F8000001F0
F8000001F0
F8000001F0
F8000001F0
F8000001F0
F8000001F0
F8000001F0
F8000001F0
F8000001F0
F8000001F0
F8000001F0
F8000001F0
F8000001F0
F8000001F0
F8000001F0
F8000001F0
F8000001F0
F8000001F0
F8000001F0
F8000001F0
F8000001F0
F8000001F0
F8000001F0
F8000001F0
F8000001F0
F8000001F0
F8000001F0
F8000001F0
F8000001F0
F8000001F0
F8000001F0
F8000001F0
F8000001F0
F8000001F0
F8000001F0
F8000001F0
F8000001F0
F8000001F0
F8000001F0
F8000001F0
F8000001F0
F8000001F0
ENDCHAR
STARTCHAR 0053
ENCODING 83
SWIDTH 346 0
DWIDTH 52 0
BBX 36 97 8 0
BITMAP
0003FC0000
001FFF8000
007FFFF000
01FFFFF800
03FFFFFE00
0FFC03FF00
1FF000FF80
3FC0003FC0
7F80001FE0
FE000007F0
FC000003C0
F800000000
F800000000
F800000000
F800000000
F800000000
F800000000
F800000000
F800000000
F800000000
F800000000
F800000000
F800000000
F800000000
F800000000
F800000000
F800000000
F800000000
F800000000
F800000000
F800000000
F800000000
F800000000
F800000000
F800000000
FC00000000
7E00000000
3F80000000
1FC0000000
0FF0000000
07FC000000
03FFFC0000
01FFFF8000
007FFFF000
001FFFF800
0003FFFE00
000003FF00
000000FF80
0000003FC0
0000000FE0
00000007F0
00000003F0
00000001F0
00000001F0
00000001F0
00000001F0
00000001F0
00000001F0
00000001F0
00000001F0
00000001F0
00000001F0
00000001F0
00000001F0
00000001F0
00000001F0
00000001F0
00000001F0
00000001F0
00000001F0
00000001F0
00000001F0
00000001F0
00000001F0
00000001F0
00000001F0
00000001F0
00000001F0
00000001F0
00000001F0
00000001F0
00000001F0
00000001F0
00000001F0
00000001F0
1C000001F0
FE000003F0
7F000007E0
3F80000FE0
1FC0003FC0
0FF000FF80
07FE03FF00
03FFFFFC00
01FFFFF800
007FFFE000
001FFF8000
0003FC0000
ENDCHAR
STARTCHAR 0054
ENCODING 84
SWIDTH 346 0
DWIDTH 52 0
BBX 34 97 9 0
BITMAP
0007F80000
003FFF0000
00FFFFC000
03FFFFF000
07FFFFF800
0FF3E7FE00
3FC3E1FF00
7F83E07F80
7E03E03FC0
FC03E00FC0
F803E007C0
0003E00000
0003E00000
0003E00000
0003E00000
0003E00000
0003E00000
0003E00000
0003E00000
0003E00000
0003E00000
0003E00000
0003E00000
0003E00000
0003E00000
0003E00000
0003E00000
0003E00000
0003E00000
0003E00000
0003E00000
0003E00000
0003E00000
0003E00000
0003E00000
0003E00000
0003E00000
0003E00000
0003E00000
0003E00000
0003E00000
0003E00000
0003E00000
0003E00000
0003E00000
0003E00000
0003E00000
0003E00000
0003E00000
0003E00000
0003E00000
0003E00000
0003E00000
0003E00000
0003E00000
0003E00000
0003E00000
0003E00000
0003E00000
0003E00000
0003E00000
0003E00000
0003E00000
0003E00000
0003E00000
0003E00000
0003E00000
0003E00000
0003E00000
0003E00000
0003E00000
0003E00000
0003E00000
0003E00000
0003E00000
0003E00000
0003E00000
0003E00000
0003E00000
0003E00000
0003E00000
0003E00000
0003E00000
0003E00000
0003E00000
0003E00000
0003E00000
0003E00000
0003E00000
0003E00000
0003E00000
0003E00000
0003E00000
0003E00000
0003E00000
0003E00000
0003E00000
ENDCHAR
STARTCHAR 0055
ENCODING 85
SWIDTH 346 0
DWIDTH 52 0
BBX 36 97 8 0
BITMAP
F8000001F0
F8000001F0
F8000001F0
F8000001F0
F8000001F0
F8000001F0
F8000001F0
F8000001F0
F8000001F0
F8000001F0
F8000001F0
F8000001F0
F8000001F0
F8000001F0
F8000001F0
F8000001F0
F8000001F0
F8000001F0
F8000001F0
F8000001F0
F8000001F0
F8000001F0
F8000001F0
F8000001F0
F8000001F0
F8000001F0
F8000001F0
F8000001F0
F8000001F0
F8000001F0
F8000001F0
F8000001F0
F8000001F0
F8000001F0
F8000001F0
F8000001F0
F8000001F0
F8000001F0
F8000001F0
F8000001F0
F8000001F0
F8000001F0
F8000001F0
F8000001F0
F8000001F0
F8000001F0
F8000001F0
F8000001F0
F8000001F0
F8000001F0
F8000001F0
F8000001F0
F8000001F0
F8000001F0
F8000001F0
F8000001F0
F8000001F0
F8000001F0
F8000001F0
F8000001F0
F8000001F0
F8000001F0
F8000001F0
F8000001F0
F8000001F0
F8000001F0
F8000001F0
F8000001F0
F8000001F0
F8000001F0
F8000001F0
F8000001F0
F8000001F0
F8000001F0
F8000001F0
F8000001F0
F8000001F0
F8000001F0
F8000001F0
F8000001F0
F8000001F0
F8000001F0
F8000001F0
F8000001F0
F8000001F0
F8000001F0
FC000003F0
7E000007E0
3F80000FE0
1FC0003FC0
0FF000FF80
07FC03FF00
03FFFFFC00
01FFFFF800
007FFFE000
001FFF8000
0003FC0000
ENDCHAR
STARTCHAR 0056
ENCODING 86
SWIDTH 346 0
DWIDTH 52 0
BBX 36 97 8 0
BITMAP
F8000001F0
F8000001F0
FC000001F0
7C000003F0
7C000003E0
7C000003E0
7C000003E0
7C000003E0
7C000003E0
3E000003E0
3E000007C0
3E000007C0
3E000007C0
3E000007C0
3E000007C0
1F000007C0
1F00000F80
1F00000F80
1F00000F80
1F00000F80
1F00000F80
0F80000F80
0F80001F80
0F80001F00
0F80001F00
0F80001F00
0F80001F00
0FC0001F00
07C0003F00
07C0003E00
07C0003E00
07C0003E00
07C0003E00
07C0003E00
03E0003E00
03E0007C00
03E0007C00
03E0007C00
03E0007C00
03E0007C00
01F0007C00
01F000FC00
01F000F800
01F000F800
01F000F800
01F000F800
00F800F800
00F801F800
00F801F000
00F801F000
00F801F000
00F801F000
00FC01F000
007C01F000
007C03E000
007C03E000
007C03E000
007C03E000
007C03E000
003E03E000
003E07C000
003E07C000
003E07C000
003E07C000
003E07C000
001F07C000
001F0FC000
001F0F8000
001F0F8000
001F0F8000
001F0F8000
001F8F8000
000F9F8000
000F9F0000
000F9F0000
000F9F0000
000F9F0000
000F9F0000
0007DF0000
0007FE0000
0007FE0000
0007FE0000
0007FE0000
0007FE0000
0003FE0000
0003FE0000
0003FC0000
0003FC0000
0003FC0000
0003FC0000
0001FC0000
0001FC0000
0001F80000
0001F80000
0001F80000
0001F80000
0001F80000
ENDCHAR
STARTCHAR 0057
ENCODING 87
SWIDTH 553 0
DWIDTH 83 0
BBX 67 97 8 0
BITMAP
F8000001F0000003E0
F8000001F0000003E0
F8000001F0000003E0
F8000001F0000003E0
F8000001F0000003E0
F8000001F0000003E0
F8000001F0000003E0
F8000001F0000003E0
F8000001F0000003E0
F8000001F0000003E0
F8000001F0000003E0
F8000001F0000003E0
F8000001F0000003E0
F8000001F0000003E0
F8000001F0000003E0
F8000001F0000003E0
F8000001F0000003E0
F8000001F0000003E0
F8000001F0000003E0
F8000001F0000003E0
F8000001F0000003E0
F8000001F0000003E0
F8000001F0000003E0
F8000001F0000003E0
F8000001F0000003E0
F8000001F0000003E0
F8000001F0000003E0
F8000001F0000003E0
F8000001F0000003E0
F8000001F0000003E0
F8000001F0000003E0
F8000001F0000003E0
F8000001F0000003E0
F8000001F0000003E0
F8000001F0000003E0
F8000001F0000003E0
F8000001F0000003E0
F8000001F0000003E0
F8000001F0000003E0
F8000001F0000003E0
F8000001F0000003E0
F8000001F0000003E0
F8000001F0000003E0
F8000001F0000003E0
F8000001F0000003E0
F8000001F0000003E0
F8000001F0000003E0
F8000001F0000003E0
F8000001F0000003E0
F8000001F0000003E0
F8000001F0000003E0
F8000001F0000003E0
F8000001F0000003E0
F8000001F0000003E0
F8000001F0000003E0
F8000001F0000003E0
F8000001F0000003E0
F8000001F0000003E0
F8000001F0000003E0
F8000001F0000003E0
F8000001F0000003E0
F8000001F0000003E0
F8000001F0000003E0
F8000001F0000003E0
F8000001F0000003E0
F8000001F0000003E0
F8000001F0000003E0
F8000001F0000003E0
F8000001F0000003E0
F8000001F0000003E0
F8000001F0000003E0
F8000001F0000003E0
F8000001F0000003E0
F8000001F0000003E0
F8000001F0000003E0
F8000001F0000003E0
F8000001F0000003E0
F8000001F0000003E0
F8000001F0000003E0
F8000001F0000003E0
F8000001F0000003E0
F8000001F0000003E0
F8000001F0000003E0
F8000001F0000003E0
F8000001F0000003E0
F8000001F0000003E0
FC000003F8000007E0
7E000007FC00000FC0
3F80000FFF00001FC0
1FC0003FBF80007F80
0FF000FF1FE001FF00
07FC03FE0FF807FE00
03FFFFFC07FFFFF800
01FFFFF803FFFFF000
007FFFE000FFFFC000
001FFF80003FFF0000
0003FC000007F80000
ENDCHAR
STARTCHAR 0058
ENCODING 88
SWIDTH 346 0
DWIDTH 52 0
BBX 36 97 8 0
BITMAP
FC000001F0
7C000003F0
7C000003E0
7C000003E0
3E000007E0
3E000007C0
3E000007C0
3F00000FC0
1F00000F80
1F00000F80
1F80001F80
0F80001F00
0F80001F00
0FC0001F00
07C0003F00
07C0003E00
07E0003E00
03E0007E00
03E0007C00
03F0007C00
01F000FC00
01F000F800
01F000F800
00F801F800
00F801F000
00F801F000
00FC03F000
007C03E000
007C03E000
007E07E000
003E07C000
003E07C000
003F07C000
001F0F8000
001F0F8000
001F8F8000
000F9F8000
000F9F0000
000FDF0000
0007FF0000
0007FE0000
0007FE0000
0003FE0000
0003FC0000
0003FC0000
0001FC0000
0001F80000
0001F80000
0001F80000
0001F80000
0001F80000
0001FC0000
0003FC0000
0003FC0000
0003FE0000
0007FE0000
0007FE0000
0007FF0000
000FDF0000
000F9F0000
000F9F8000
001F8F8000
001F0F8000
001F0F8000
003F07C000
003E07C000
003E07C000
007E03E000
007C03E000
007C03E000
00FC03F000
00F801F000
00F801F000
00F801F800
01F000F800
01F000F800
01F000FC00
03F0007C00
03E0007C00
03E0007E00
07E0003E00
07C0003E00
07C0003E00
0FC0001F00
0F80001F00
0F80001F00
1F80000F80
1F00000F80
1F00000F80
3F00000FC0
3E000007C0
3E000007C0
3E000007E0
7C000003E0
7C000003E0
7C000003F0
FC000001F0
ENDCHAR
STARTCHAR 0059
ENCODING 89
SWIDTH 346 0
DWIDTH 52 0
BBX 36 97 8 0
BITMAP
F8000001F0
F8000001F0
F8000001F0
F8000001F0
F8000001F0
F8000001F0
F8000001F0
F8000001F0
F8000001F0
F8000001F0
F8000001F0
F8000001F0
F8000001F0
F8000001F0
F8000001F0
F8000001F0
F8000001F0
F8000001F0
F8000001F0
F8000001F0
F8000001F0
F8000001F0
F8000001F0
F8000001F0
F8000001F0
F8000001F0
F8000001F0
F8000001F0
F8000001F0
F8000001F0
F8000001F0
F8000001F0
F8000001F0
F8000001F0
FC000001F0
FE000003F0
7F00000FE0
3F80001FC0
1FE0003F80
0FF800FF00
07FF9FFE00
03FFFFFC00
01FFFFF000
007FFFE000
001FFF0000
0001F00000
0001F00000
0001F00000
0001F00000
0001F00000
0001F00000
0001F00000
0001F00000
0001F00000
0001F00000
0001F00000
0001F00000
0001F00000
0001F00000
0001F00000
0001F00000
0001F00000
0001F00000
0001F00000
0001F00000
0001F00000
0001F00000
0001F00000
0001F00000
0001F00000
0001F00000
0001F00000
0001F00000
0001F00000
0001F00000
0001F00000
0001F00000
0001F00000
0001F00000
0001F00000
0001F00000
0001F00000
0001F00000
0001F00000
0001F00000
0001F00000
0001F00000
0001F00000
0001F00000
0001F00000
0001F00000
0001F00000
0001F00000
0001F00000
0001F00000
0001F00000
0001F00000
ENDCHAR
STARTCHAR 005A
ENCODING 90
SWIDTH 346 0
DWIDTH 52 0
BBX 36 97 8 0
BITMAP
0003FC0000
001FFF8000
007FFFE000
01FFFFF800
03FFFFFC00
07FC03FF00
1FF000FF80
3FC0003FC0
3F80000FE0
7E000007E0
7C000003F0
00000003F0
00000003E0
00000007E0
00000007C0
00000007C0
0000000FC0
0000000F80
0000001F80
0000001F00
0000001F00
0000003F00
0000003E00
0000007E00
0000007C00
0000007C00
000000FC00
000000F800
000001F800
000001F000
000001F000
000003F000
000003E000
000007E000
000007C000
000007C000
00000FC000
00000F8000
00001F8000
00001F0000
00001F0000
00003F0000
00003E0000
00007E0000
00007C0000
00007C0000
0000FC0000
0000F80000
0001F80000
0001F00000
0001F00000
0003F00000
0003E00000
0007E00000
0007C00000
0007C00000
000FC00000
000F800000
001F800000
001F000000
001F000000
003F000000
003E000000
007E000000
007C000000
007C000000
00FC000000
00F8000000
01F8000000
01F0000000
01F0000000
03F0000000
03E0000000
07E0000000
07C0000000
07C0000000
0FC0000000
0F80000000
1F80000000
1F00000000
1F00000000
3F00000000
3E00000000
7E00000000
7C00000000
7C00000380
FE000007F0
7F00000FE0
3F80001FC0
1FC0003F80
07F000FF00
03FE03FE00
01FFFFFC00
00FFFFF800
003FFFE000
000FFF8000
0003FC0000
ENDCHAR
STARTCHAR 005B
ENCODING 91
SWIDTH 206 0
DWIDTH 31 0
BBX 15 128 8 -15
BITMAP
FFFE
FFFE
FFFE
FFFE
FFFE
F800
F800
F800
F800
F800
F800
F800
F800
F800
F800
F800
F800
F800
F800
F800
F800
F800
F800
F800
F800
F800
F800
F800
F800
F800
F800
F800
F800
F800
F800
F800
F800
F800
F800
F800
F800
F800
F800
F800
F800
F800
F800
F800
F800
F800
F800
F800
F800
F800
F800
F800
F800
F800
F800
F800
F800
F800
F800
F800
F800
F800
F800
F800
F800
F800
F800
F800
F800
F800
F800
F800
F800
F800
F800
F800
F800
F800
F800
F800
F800
F800
F800
F800
F800
F800
F800
F800
F800
F800
F800
F800
F800
F800
F800
F800
F800
F800
F800
F800
F800
F800
F800
F800
F800
F800
F800
F800
F800
F800
F800
F800
F800
F800
F800
F800
F800
F800
F800
FFFE
FFFE
FFFE
FFFE
FFFE
ENDCHAR
STARTCHAR 005C
ENCODING 92
SWIDTH 346 0
DWIDTH 52 0
BBX 36 97 8 0
BITMAP
FC00000000
7C00000000
7C00000000
7C00000000
3E00000000
3E00000000
3E00000000
3F00000000
1F00000000
1F00000000
1F80000000
0F80000000
0F80000000
0FC0000000
07C0000000
07C0000000
07E0000000
03E0000000
03E0000000
03F0000000
01F0000000
01F0000000
01F0000000
00F8000000
00F8000000
00F8000000
00FC000000
007C000000
007C000000
007E000000
003E000000
003E000000
003F000000
001F000000
001F000000
001F800000
000F800000
000F800000
000FC00000
0007C00000
0007C00000
0007C00000
0003E00000
0003E00000
0003E00000
0001F00000
0001F00000
0001F00000
0001F80000
0000F80000
0000F80000
0000FC0000
00007C0000
00007C0000
00007E0000
00003E0000
00003E0000
00003F0000
00001F0000
00001F0000
00001F8000
00000F8000
00000F8000
00000F8000
000007C000
000007C000
000007C000
000007E000
000003E000
000003E000
000003F000
000001F000
000001F000
000001F800
000000F800
000000F800
000000FC00
0000007C00
0000007C00
0000007E00
0000003E00
0000003E00
0000003E00
0000001F00
0000001F00
0000001F00
0000000F80
0000000F80
0000000F80
0000000FC0
00000007C0
00000007C0
00000007E0
00000003E0
00000003E0
00000003F0
00000001F0
ENDCHAR
STARTCHAR 005D
ENCODING 93
SWIDTH 206 0
DWIDTH 31 0
BBX 15 128 8 -15
BITMAP
FFFE
FFFE
FFFE
FFFE
FFFE
003E
003E
003E
003E
003E
003E
003E
003E
003E
003E
003E
003E
003E
003E
003E
003E
003E
003E
003E
003E
003E
003E
003E
003E
003E
003E
003E
003E
003E
003E
003E
003E
003E
003E
003E
003E
003E
003E
003E
003E
003E
003E
003E
003E
003E
003E
003E
003E
003E
003E
003E
003E
003E
003E
003E
003E
003E
003E
003E
003E
003E
003E
003E
003E
003E
003E
003E
003E
003E
003E
003E
003E
003E
003E
003E
003E
003E
003E
003E
003E
003E
003E
003E
003E
003E
003E
003E
003E
003E
003E
003E
003E
003E
003E
003E
003E
003E
003E
003E
003E
003E
003E
003E
003E
003E
003E
003E
003E
003E
003E
003E
003E
003E
003E
003E
003E
003E
003E
FFFE
FFFE
FFFE
FFFE
FFFE
ENDCHAR
STARTCHAR 005E
ENCODING 94
SWIDTH 280 0
DWIDTH 42 0
BBX 26 20 8 76
BITMAP
003F0000
003F0000
007F8000
007F8000
00FFC000
00FFC000
01FFE000
01F3E000
03F3F000
03E1F000
07E1F800
0FC0F800
0FC0FC00
1F807C00
1F807E00
3F003E00
3F003F00
7E001F00
7E001F80
FC000FC0
ENDCHAR
STARTCHAR 005F
ENCODING 95
SWIDTH 473 0
DWIDTH 71 0
BBX 55 6 8 -30
BITMAP
FFFFFFFFFFFFFE
FFFFFFFFFFFFFE
FFFFFFFFFFFFFE
FFFFFFFFFFFFFE
FFFFFFFFFFFFFE
FFFFFFFFFFFFFE
ENDCHAR
STARTCHAR 0060
ENCODING 96
SWIDTH 233 0
DWIDTH 35 0
BBX 19 20 8 76
BITMAP
FC0000
FC0000
7E0000
3F0000
3F8000
1F8000
0FC000
07E000
07E000
03F000
01F800
01F800
00FC00
007E00
007F00
003F00
001F80
000FC0
000FC0
0007E0
ENDCHAR
STARTCHAR 0061
ENCODING 97
SWIDTH 346 0
DWIDTH 52 0
BBX 36 67 8 0
BITMAP
0003FC0000
001FFF8000
007FFFE000
01FFFFF800
03FFFFFC00
07FE03FE00
0FF000FF00
1FE0003F80
3F80000FC0
7F000007E0
FE000003F0
3C000001F0
00000001F0
00000001F0
00000001F0
00000001F0
00000001F0
00000001F0
00000001F0
00000001F0
00000001F0
00000001F0
00000001F0
00000001F0
00000001F0
00000001F0
0003FC01F0
001FFF81F0
007FFFE1F0
01FFFFF9F0
03FFFFFDF0
07FE07FFF0
0FF000FFF0
1FC0003FF0
3F80001FF0
7F000007F0
FC000003F0
F8000001F0
F8000001F0
F8000001F0
F8000001F0
F8000001F0
F8000001F0
F8000001F0
F8000001F0
F8000001F0
F8000001F0
F8000001F0
F8000001F0
F8000001F0
F8000001F0
F8000001F0
F8000001F0
F8000001F0
F8000001F0
F8000001F0
FC000003F0
7E000007F0
3F80001FF0
3FC0003FF0
1FF000FFF0
07FE07FFF0
03FFFFFDF0
01FFFFF9F0
007FFFE1F0
001FFF81F0
0003FC01F0
ENDCHAR
STARTCHAR 0062
ENCODING 98
SWIDTH 346 0
DWIDTH 52 0
BBX 36 97 8 0
BITMAP
F800000000
F800000000
F800000000
F800000000
F800000000
F800000000
F800000000
F800000000
F800000000
F800000000
F800000000
F800000000
F800000000
F800000000
F800000000
F800000000
F800000000
F800000000
F800000000
F800000000
F800000000
F800000000
F800000000
F800000000
F800000000
F800000000
F800000000
F800000000
F800000000
F800000000
F803FC0000
F81FFF8000
F87FFFE000
F9FFFFF800
FBFFFFFC00
FFFFFFFE00
FFF801FF00
FFE0007F80
FF80001FC0
FF00000FE0
FE000007F0
FC000003F0
F8000001F0
F8000001F0
F8000001F0
F8000001F0
F8000001F0
F8000001F0
F8000001F0
F8000001F0
F8000001F0
F8000001F0
F8000001F0
F8000001F0
F8000001F0
F8000001F0
F8000001F0
F8000001F0
F8000001F0
F8000001F0
F8000001F0
F8000001F0
F8000001F0
F8000001F0
F8000001F0
F8000001F0
F8000001F0
F8000001F0
F8000001F0
F8000001F0
F8000001F0
F8000001F0
F8000001F0
F8000001F0
F8000001F0
F8000001F0
F8000001F0
F8000001F0
F8000001F0
F8000001F0
F8000001F0
F8000001F0
F8000001F0
F8000001F0
F8000001F0
F8000001F0
FC000003F0
FE000007F0
FF80001FE0
FFC0003FC0
FFF000FF80
FFFE07FF00
FBFFFFFC00
F9FFFFF800
F87FFFE000
F81FFF8000
F803FC0000
ENDCHAR
STARTCHAR 0063
ENCODING 99
SWIDTH 346 0
DWIDTH 52 0
BBX 36 67 8 0
BITMAP
0003FC0000
001FFF8000
007FFFE000
01FFFFF800
03FFFFFC00
07FC07FE00
0FF000FF00
1FC0003F80
3F80001FC0
7E00000FE0
FC000007F0
F8000003C0
F800000000
F800000000
F800000000
F800000000
F800000000
F800000000
F800000000
F800000000
F800000000
F800000000
F800000000
F800000000
F800000000
F800000000
F800000000
F800000000
F800000000
F800000000
F800000000
F800000000
F800000000
F800000000
F800000000
F800000000
F800000000
F800000000
F800000000
F800000000
F800000000
F800000000
F800000000
F800000000
F800000000
F800000000
F800000000
F800000000
F800000000
F800000000
F800000000
F800000000
F800000000
F800000000
F800000000
F800000300
FC000003F0
7E00000FE0
7F80001FC0
3FC0003F80
1FF000FF00
0FFC03FE00
03FFFFFC00
01FFFFF800
007FFFE000
001FFF8000
0003FC0000
ENDCHAR
STARTCHAR 0064
ENCODING 100
SWIDTH 346 0
DWIDTH 52 0
BBX 36 97 8 0
BITMAP
00000001F0
00000001F0
00000001F0
00000001F0
00000001F0
00000001F0
00000001F0
00000001F0
00000001F0
00000001F0
00000001F0
00000001F0
00000001F0
00000001F0
00000001F0
00000001F0
00000001F0
00000001F0
00000001F0
00000001F0
00000001F0
00000001F0
00000001F0
00000001F0
00000001F0
00000001F0
00000001F0
00000001F0
00000001F0
00000001F0
0003FC01F0
001FFF81F0
007FFFE1F0
01FFFFF9F0
03FFFFFDF0
07FFFFFFF0
0FF801FFF0
1FE0007FF0
3F80001FF0
7F00000FF0
FE000007F0
FC000003F0
F8000001F0
F8000001F0
F8000001F0
F8000001F0
F8000001F0
F8000001F0
F8000001F0
F8000001F0
F8000001F0
F8000001F0
F8000001F0
F8000001F0
F8000001F0
F8000001F0
F8000001F0
F8000001F0
F8000001F0
F8000001F0
F8000001F0
F8000001F0
F8000001F0
F8000001F0
F8000001F0
F8000001F0
F8000001F0
F8000001F0
F8000001F0
F8000001F0
F8000001F0
F8000001F0
F8000001F0
F8000001F0
F8000001F0
F8000001F0
F8000001F0
F8000001F0
F8000001F0
F8000001F0
F8000001F0
F8000001F0
F8000001F0
F8000001F0
F8000001F0
FC000001F0
FE000003F0
7F000007F0
3F80001FF0
1FC0003FF0
0FF000FFF0
07FF0FFFF0
03FFFFFDF0
01FFFFF9F0
007FFFE1F0
001FFF81F0
0003FC01F0
ENDCHAR
STARTCHAR 0065
ENCODING 101
SWIDTH 346 0
DWIDTH 52 0
BBX 36 67 8 0
BITMAP
0003FC0000
001FFF8000
007FFFE000
01FFFFF800
03FFFFFC00
07FE03FE00
0FF000FF00
1FC0003F80
3F80001FC0
7E000007E0
FC000003F0
F8000001F0
F8000001F0
F8000001F0
F8000001F0
F8000001F0
F8000001F0
F8000001F0
F8000001F0
F8000001F0
F8000001F0
F8000001F0
F8000001F0
F8000001F0
F8000001F0
F8000001F0
F8000001F0
F8000001F0
F8000001F0
F8000001F0
FC000003F0
FE000007F0
FF00000FE0
FFC0001FC0
FFE0007F80
FFFC01FF00
FBFFFFFE00
F9FFFFF800
F87FFFF000
F81FFFC000
F803FC0000
F800000000
F800000000
F800000000
F800000000
F800000000
F800000000
F800000000
F800000000
F800000000
F800000000
F800000000
F800000000
F800000000
F800000000
F800000300
FC000003F0
7E00000FF0
7F80001FE0
3FC0003FC0
1FF000FF80
07FC03FF00
03FFFFFC00
01FFFFF800
007FFFE000
001FFF8000
0003FC0000
ENDCHAR
STARTCHAR 0066
ENCODING 102
SWIDTH 266 0
DWIDTH 40 0
BBX 35 97 8 0
BITMAP
0003FC0000
001FFF8000
007FFFE000
01FFFFF800
03FFFFFC00
0FFC03FE00
1FF000FF80
3FC0003FC0
7F00001FC0
FE000007E0
FC000003E0
F800000000
F800000000
F800000000
F800000000
F800000000
F800000000
F800000000
F800000000
F800000000
F800000000
F800000000
F800000000
F800000000
F800000000
F800000000
F800000000
F800000000
F800000000
F800000000
FFFFFFC000
FFFFFFC000
FFFFFFC000
FFFFFFC000
FFFFFFC000
F800000000
F800000000
F800000000
F800000000
F800000000
F800000000
F800000000
F800000000
F800000000
F800000000
F800000000
F800000000
F800000000
F800000000
F800000000
F800000000
F800000000
F800000000
F800000000
F800000000
F800000000
F800000000
F800000000
F800000000
F800000000
F800000000
F800000000
F800000000
F800000000
F800000000
F800000000
F800000000
F800000000
F800000000
F800000000
F800000000
F800000000
F800000000
F800000000
F800000000
F800000000
F800000000
F800000000
F800000000
F800000000
F800000000
F800000000
F800000000
F800000000
F800000000
F800000000
F800000000
F800000000
F800000000
F800000000
F800000000
F800000000
F800000000
F800000000
F800000000
F800000000
F800000000
ENDCHAR
STARTCHAR 0067
ENCODING 103
SWIDTH 346 0
DWIDTH 52 0
BBX 36 98 8 -31
BITMAP
0003FC01F0
001FFF81F0
007FFFE1F0
01FFFFF9F0
03FFFFFDF0
07FFFFFFF0
0FF801FFF0
1FE0007FF0
3F80001FF0
7F00000FF0
FE000007F0
FC000003F0
F8000001F0
F8000001F0
F8000001F0
F8000001F0
F8000001F0
F8000001F0
F8000001F0
F8000001F0
F8000001F0
F8000001F0
F8000001F0
F8000001F0
F8000001F0
F8000001F0
F8000001F0
F8000001F0
F8000001F0
F8000001F0
F8000001F0
F8000001F0
F8000001F0
F8000001F0
F8000001F0
F8000001F0
F8000001F0
F8000001F0
F8000001F0
F8000001F0
F8000001F0
F8000001F0
F8000001F0
F8000001F0
F8000001F0
F8000001F0
F8000001F0
F8000001F0
F8000001F0
F8000001F0
F8000001F0
F8000001F0
F8000001F0
F8000001F0
F8000001F0
F8000001F0
FC000003F0
7E000007F0
3F80001FF0
3FC0003FF0
1FF000FFF0
07FE07FFF0
03FFFFFDF0
01FFFFF9F0
007FFFE1F0
001FFF81F0
0003FC01F0
00000001F0
00000001F0
00000001F0
00000001F0
00000001F0
00000001F0
00000001F0
00000001F0
00000001F0
00000001F0
00000001F0
00000001F0
00000001F0
00000001F0
00000001F0
00000001F0
00000001F0
00000001F0
00000001F0
00000001F0
00000003F0
00000007E0
0000000FC0
0000003FC0
000000FF80
000003FE00
00003FFC00
00003FF800
00003FE000
00003F8000
00003C0000
ENDCHAR
STARTCHAR 0068
ENCODING 104
SWIDTH 346 0
DWIDTH 52 0
BBX 36 97 8 0
BITMAP
F800000000
F800000000
F800000000
F800000000
F800000000
F800000000
F800000000
F800000000
F800000000
F800000000
F800000000
F800000000
F800000000
F800000000
F800000000
F800000000
F800000000
F800000000
F800000000
F800000000
F800000000
F800000000
F800000000
F800000000
F800000000
F800000000
F800000000
F800000000
F800000000
F800000000
F803FC0000
F81FFF8000
F87FFFE000
F8FFFFF800
FBFFFFFC00
FFFE03FE00
FFF000FF00
FFC0003F80
FF80000FC0
FE000007E0
FC000003F0
F8000001F0
F8000001F0
F8000001F0
F8000001F0
F8000001F0
F8000001F0
F8000001F0
F8000001F0
F8000001F0
F8000001F0
F8000001F0
F8000001F0
F8000001F0
F8000001F0
F8000001F0
F8000001F0
F8000001F0
F8000001F0
F8000001F0
F8000001F0
F8000001F0
F8000001F0
F8000001F0
F8000001F0
F8000001F0
F8000001F0
F8000001F0
F8000001F0
F8000001F0
F8000001F0
F8000001F0
F8000001F0
F8000001F0
F8000001F0
F8000001F0
F8000001F0
F8000001F0
F8000001F0
F8000001F0
F8000001F0
F8000001F0
F8000001F0
F8000001F0
F8000001F0
F8000001F0
F8000001F0
F8000001F0
F8000001F0
F8000001F0
F8000001F0
F8000001F0
F8000001F0
F8000001F0
F8000001F0
F8000001F0
F8000001F0
ENDCHAR
STARTCHAR 0069
ENCODING 105
SWIDTH 140 0
DWIDTH 21 0
BBX 5 87 8 0
BITMAP
F8
F8
F8
F8
F8
F8
F8
F8
F8
F8
00
00
00
00
00
00
00
00
00
00
F8
F8
F8
F8
F8
F8
F8
F8
F8
F8
F8
F8
F8
F8
F8
F8
F8
F8
F8
F8
F8
F8
F8
F8
F8
F8
F8
F8
F8
F8
F8
F8
F8
F8
F8
F8
F8
F8
F8
F8
F8
F8
F8
F8
F8
F8
F8
F8
F8
F8
F8
F8
F8
F8
F8
F8
F8
F8
F8
F8
F8
F8
F8
F8
F8
F8
F8
ENDCHAR
STARTCHAR 006A
ENCODING 106
SWIDTH 146 0
DWIDTH 22 0
BBX 18 118 -4 -31
BITMAP
0007C0
0007C0
0007C0
0007C0
0007C0
0007C0
0007C0
0007C0
0007C0
0007C0
000000
000000
000000
000000
000000
000000
000000
000000
000000
000000
0007C0
0007C0
0007C0
0007C0
0007C0
0007C0
0007C0
0007C0
0007C0
0007C0
0007C0
0007C0
0007C0
0007C0
0007C0
0007C0
0007C0
0007C0
0007C0
0007C0
0007C0
0007C0
0007C0
0007C0
0007C0
0007C0
0007C0
0007C0
0007C0
0007C0
0007C0
0007C0
0007C0
0007C0
0007C0
0007C0
0007C0
0007C0
0007C0
0007C0
0007C0
0007C0
0007C0
0007C0
0007C0
0007C0
0007C0
0007C0
0007C0
0007C0
0007C0
0007C0
0007C0
0007C0
0007C0
0007C0
0007C0
0007C0
0007C0
0007C0
0007C0
0007C0
0007C0
0007C0
0007C0
0007C0
0007C0
0007C0
0007C0
0007C0
0007C0
0007C0
0007C0
0007C0
0007C0
0007C0
0007C0
0007C0
0007C0
0007C0
0007C0
0007C0
0007C0
0007C0
0007C0
0007C0
0007C0
000FC0
001F80
007F00
00FE00
03FC00
0FF800
FFF000
FFE000
FF8000
FE0000
F00000
ENDCHAR
STARTCHAR 006B
ENCODING 107
SWIDTH 346 0
DWIDTH 52 0
BBX 36 97 8 0
BITMAP
F800000000
F800000000
F800000000
F800000000
F800000000
F800000000
F800000000
F800000000
F800000000
F800000000
F800000000
F800000000
F800000000
F800000000
F800000000
F800000000
F800000000
F800000000
F800000000
F800000000
F800000000
F800000000
F800000000
F800000000
F800000000
F800000000
F800000000
F800000000
F800000000
F800000000
F8000001F0
F8000001F0
F8000001F0
F8000001F0
F8000001F0
F8000001F0
F8000001F0
F8000001F0
F8000001F0
F8000001F0
F8000001F0
F8000001F0
F8000001F0
F8000001F0
F8000001F0
F8000003F0
F8000007F0
F800000FE0
F800003FC0
F80000FF80
F80003FE00
F803FFFC00
F81FFFF800
F87FFFE000
F9FFFFF800
FBFFFFFC00
FFFC03FE00
FFF000FF80
FFC0003FC0
FF80000FE0
FE000007E0
FC000003F0
F8000001F0
F8000001F0
F8000001F0
F8000001F0
F8000001F0
F8000001F0
F8000001F0
F8000001F0
F8000001F0
F8000001F0
F8000001F0
F8000001F0
F8000001F0
F8000001F0
F8000001F0
F8000001F0
F8000001F0
F8000001F0
F8000001F0
F8000001F0
F8000001F0
F8000001F0
F8000001F0
F8000001F0
F8000001F0
F8000001F0
F8000001F0
F8000001F0
F8000001F0
F8000001F0
F8000001F0
F8000001F0
F8000001F0
F8000001F0
F8000001F0
ENDCHAR
STARTCHAR 006C
ENCODING 108
SWIDTH 140 0
DWIDTH 21 0
BBX 5 97 8 0
BITMAP
F8
F8
F8
F8
F8
F8
F8
F8
F8
F8
F8
F8
F8
F8
F8
F8
F8
F8
F8
F8
F8
F8
F8
F8
F8
F8
F8
F8
F8
F8
F8
F8
F8
F8
F8
F8
F8
F8
F8
F8
F8
F8
F8
F8
F8
F8
F8
F8
F8
F8
F8
F8
F8
F8
F8
F8
F8
F8
F8
F8
F8
F8
F8
F8
F8
F8
F8
F8
F8
F8
F8
F8
F8
F8
F8
F8
F8
F8
F8
F8
F8
F8
F8
F8
F8
F8
F8
F8
F8
F8
F8
F8
F8
F8
F8
F8
F8
ENDCHAR
STARTCHAR 006D
ENCODING 109
SWIDTH 553 0
DWIDTH 83 0
BBX 67 67 8 0
BITMAP
F803FC000007F80000
F81FFF80003FFF0000
F87FFFE000FFFFC000
F8FFFFF001FFFFF000
FBFFFFFC07FFFFF800
FFFE03FE0FFC07FC00
FFF000FF1FE001FE00
FFC0003FBF80007F00
FF80000FFF00001F80
FE000007FC00000FC0
FC000003F8000007E0
F8000001F0000003E0
F8000001F0000003E0
F8000001F0000003E0
F8000001F0000003E0
F8000001F0000003E0
F8000001F0000003E0
F8000001F0000003E0
F8000001F0000003E0
F8000001F0000003E0
F8000001F0000003E0
F8000001F0000003E0
F8000001F0000003E0
F8000001F0000003E0
F8000001F0000003E0
F8000001F0000003E0
F8000001F0000003E0
F8000001F0000003E0
F8000001F0000003E0
F8000001F0000003E0
F8000001F0000003E0
F8000001F0000003E0
F8000001F0000003E0
F8000001F0000003E0
F8000001F0000003E0
F8000001F0000003E0
F8000001F0000003E0
F8000001F0000003E0
F8000001F0000003E0
F8000001F0000003E0
F8000001F0000003E0
F8000001F0000003E0
F8000001F0000003E0
F8000001F0000003E0
F8000001F0000003E0
F8000001F0000003E0
F8000001F0000003E0
F8000001F0000003E0
F8000001F0000003E0
F8000001F0000003E0
F8000001F0000003E0
F8000001F0000003E0
F8000001F0000003E0
F8000001F0000003E0
F8000001F0000003E0
F8000001F0000003E0
F8000001F0000003E0
F8000001F0000003E0
F8000001F0000003E0
F8000001F0000003E0
F8000001F0000003E0
F8000001F0000003E0
F8000001F0000003E0
F8000001F0000003E0
F8000001F0000003E0
F8000001F0000003E0
F8000001F0000003E0
ENDCHAR
STARTCHAR 006E
ENCODING 110
SWIDTH 346 0
DWIDTH 52 0
BBX 36 67 8 0
BITMAP
F803FC0000
F81FFF8000
F87FFFE000
F8FFFFF800
FBFFFFFC00
FFFE03FE00
FFF000FF00
FFC0003F80
FF80000FC0
FE000007E0
FC000003F0
F8000001F0
F8000001F0
F8000001F0
F8000001F0
F8000001F0
F8000001F0
F8000001F0
F8000001F0
F8000001F0
F8000001F0
F8000001F0
F8000001F0
F8000001F0
F8000001F0
F8000001F0
F8000001F0
F8000001F0
F8000001F0
F8000001F0
F8000001F0
F8000001F0
F8000001F0
F8000001F0
F8000001F0
F8000001F0
F8000001F0
F8000001F0
F8000001F0
F8000001F0
F8000001F0
F8000001F0
F8000001F0
F8000001F0
F8000001F0
F8000001F0
F8000001F0
F8000001F0
F8000001F0
F8000001F0
F8000001F0
F8000001F0
F8000001F0
F8000001F0
F8000001F0
F8000001F0
F8000001F0
F8000001F0
F8000001F0
F8000001F0
F8000001F0
F8000001F0
F8000001F0
F8000001F0
F8000001F0
F8000001F0
F8000001F0
ENDCHAR
STARTCHAR 006F
ENCODING 111
SWIDTH 346 0
DWIDTH 52 0
BBX 36 67 8 0
BITMAP
0003FC0000
001FFF8000
007FFFE000
01FFFFF800
03FFFFFC00
07FE03FE00
0FF000FF00
1FC0003F80
3F80001FC0
7E000007E0
FC000003F0
F8000001F0
F8000001F0
F8000001F0
F8000001F0
F8000001F0
F8000001F0
F8000001F0
F8000001F0
F8000001F0
F8000001F0
F8000001F0
F8000001F0
F8000001F0
F8000001F0
F8000001F0
F8000001F0
F8000001F0
F8000001F0
F8000001F0
F8000001F0
F8000001F0
F8000001F0
F8000001F0
F8000001F0
F8000001F0
F8000001F0
F8000001F0
F8000001F0
F8000001F0
F8000001F0
F8000001F0
F8000001F0
F8000001F0
F8000001F0
F8000001F0
F8000001F0
F8000001F0
F8000001F0
F8000001F0
F8000001F0
F8000001F0
F8000001F0
F8000001F0
F8000001F0
F8000001F0
FC000003F0
7E000007F0
7F80000FE0
3FC0003FC0
1FF000FF80
07FC03FF00
03FFFFFC00
01FFFFF800
007FFFE000
001FFF8000
0003FC0000
ENDCHAR
STARTCHAR 0070
ENCODING 112
SWIDTH 346 0
DWIDTH 52 0
BBX 36 98 8 -31
BITMAP
F803FC0000
F81FFF8000
F87FFFE000
F9FFFFF800
FBFFFFFC00
FFFFFFFE00
FFF801FF00
FFE0007F80
FF80001FC0
FF00000FE0
FE000007F0
FC000003F0
F8000001F0
F8000001F0
F8000001F0
F8000001F0
F8000001F0
F8000001F0
F8000001F0
F8000001F0
F8000001F0
F8000001F0
F8000001F0
F8000001F0
F8000001F0
F8000001F0
F8000001F0
F8000001F0
F8000001F0
F8000001F0
F8000001F0
F8000001F0
F8000001F0
F8000001F0
F8000001F0
F8000001F0
F8000001F0
F8000001F0
F8000001F0
F8000001F0
F8000001F0
F8000001F0
F8000001F0
F8000001F0
F8000001F0
F8000001F0
F8000001F0
F8000001F0
F8000001F0
F8000001F0
F8000001F0
F8000001F0
F8000001F0
F8000001F0
F8000001F0
F8000001F0
FC000003F0
FE000007F0
FF80001FE0
FFC0003FC0
FFF000FF80
FFFE07FF00
FBFFFFFC00
F9FFFFF800
F87FFFE000
F81FFF8000
F803FC0000
F800000000
F800000000
F800000000
F800000000
F800000000
F800000000
F800000000
F800000000
F800000000
F800000000
F800000000
F800000000
F800000000
F800000000
F800000000
F800000000
F800000000
F800000000
F800000000
F800000000
F800000000
F800000000
F800000000
F800000000
F800000000
F800000000
F800000000
F800000000
F800000000
F800000000
F800000000
ENDCHAR
STARTCHAR 0071
ENCODING 113
SWIDTH 346 0
DWIDTH 52 0
BBX 36 98 8 -31
BITMAP
0003FC01F0
001FFF81F0
007FFFE1F0
01FFFFF9F0
03FFFFFDF0
07FFFFFFF0
0FF801FFF0
1FE0007FF0
3F80001FF0
7F00000FF0
FE000007F0
FC000003F0
F8000001F0
F8000001F0
F8000001F0
F8000001F0
F8000001F0
F8000001F0
F8000001F0
F8000001F0
F8000001F0
F8000001F0
F8000001F0
F8000001F0
F8000001F0
F8000001F0
F8000001F0
F8000001F0
F8000001F0
F8000001F0
F8000001F0
F8000001F0
F8000001F0
F8000001F0
F8000001F0
F8000001F0
F8000001F0
F8000001F0
F8000001F0
F8000001F0
F8000001F0
F8000001F0
F8000001F0
F8000001F0
F8000001F0
F8000001F0
F8000001F0
F8000001F0
F8000001F0
F8000001F0
F8000001F0
F8000001F0
F8000001F0
F8000001F0
F8000001F0
F8000001F0
FC000003F0
7E000007F0
3F80001FF0
3FC0003FF0
1FF000FFF0
07FE07FFF0
03FFFFFDF0
01FFFFF9F0
007FFFE1F0
001FFF81F0
0003FC01F0
00000001F0
00000001F0
00000001F0
00000001F0
00000001F0
00000001F0
00000001F0
00000001F0
00000001F0
00000001F0
00000001F0
00000001F0
00000001F0
00000001F0
00000001F0
00000001F0
00000001F0
00000001F0
00000001F0
00000001F0
00000001F0
00000001F0
00000001F0
00000001F0
00000001F0
00000001F0
00000001F0
00000001F0
00000001F0
00000001F0
00000001F0
ENDCHAR
STARTCHAR 0072
ENCODING 114
SWIDTH 313 0
DWIDTH 47 0
BBX 36 67 8 0
BITMAP
F803FC0000
F81FFF8000
F87FFFE000
F8FFFFF800
FBFFFFFC00
FFFC07FE00
FFF000FF00
FFC0003F80
FF80001FC0
FE00000FE0
FC000007F0
F8000003C0
F800000000
F800000000
F800000000
F800000000
F800000000
F800000000
F800000000
F800000000
F800000000
F800000000
F800000000
F800000000
F800000000
F800000000
F800000000
F800000000
F800000000
F800000000
F800000000
F800000000
F800000000
F800000000
F800000000
F800000000
F800000000
F800000000
F800000000
F800000000
F800000000
F800000000
F800000000
F800000000
F800000000
F800000000
F800000000
F800000000
F800000000
F800000000
F800000000
F800000000
F800000000
F800000000
F800000000
F800000000
F800000000
F800000000
F800000000
F800000000
F800000000
F800000000
F800000000
F800000000
F800000000
F800000000
F800000000
ENDCHAR
STARTCHAR 0073
ENCODING 115
SWIDTH 346 0
DWIDTH 52 0
BBX 36 67 8 0
BITMAP
0003FC0000
001FFF8000
007FFFE000
01FFFFF800
03FFFFFC00
07FC07FE00
0FF000FF00
1FC0003F80
3F80001FC0
7E00000FE0
FC000007F0
F800000380
F800000000
F800000000
F800000000
F800000000
F800000000
F800000000
F800000000
F800000000
F800000000
F800000000
F800000000
F800000000
F800000000
FC00000000
7E00000000
7F80000000
3FC0000000
1FF0000000
0FFC000000
03FFFC0000
01FFFF8000
007FFFE000
001FFFF800
0003FFFC00
000003FE00
000000FF80
0000003FC0
0000000FE0
00000007E0
00000003F0
00000001F0
00000001F0
00000001F0
00000001F0
00000001F0
00000001F0
00000001F0
00000001F0
00000001F0
00000001F0
00000001F0
00000001F0
00000001F0
0C000001F0
FE000003F0
7F000007E0
3F80000FE0
1FC0003FC0
0FF000FF80
07FE03FF00
03FFFFFC00
01FFFFF800
007FFFE000
001FFF8000
0003FC0000
ENDCHAR
STARTCHAR 0074
ENCODING 116
SWIDTH 253 0
DWIDTH 38 0
BBX 26 87 8 0
BITMAP
F8000000
F8000000
F8000000
F8000000
F8000000
F8000000
F8000000
F8000000
F8000000
F8000000
F8000000
F8000000
F8000000
F8000000
F8000000
F8000000
F8000000
F8000000
F8000000
F8000000
F8000000
FFFFFFC0
FFFFFFC0
FFFFFFC0
FFFFFFC0
FFFFFFC0
F8000000
F8000000
F8000000
F8000000
F8000000
F8000000
F8000000
F8000000
F8000000
F8000000
F8000000
F8000000
F8000000
F8000000
F8000000
F8000000
F8000000
F8000000
F8000000
F8000000
F8000000
F8000000
F8000000
F8000000
F8000000
F8000000
F8000000
F8000000
F8000000
F8000000
F8000000
F8000000
F8000000
F8000000
F8000000
F8000000
F8000000
F8000000
F8000000
F8000000
F8000000
F8000000
F8000000
F8000000
F8000000
F8000000
F8000000
F8000000
F8000000
F8000000
FC000000
7E000000
3F800000
1FC00000
1FF00000
07FC0000
03FFC000
01FFC000
007FC000
001FC000
0003C000
ENDCHAR
STARTCHAR 0075
ENCODING 117
SWIDTH 346 0
DWIDTH 52 0
BBX 36 67 8 0
BITMAP
F8000001F0
F8000001F0
F8000001F0
F8000001F0
F8000001F0
F8000001F0
F8000001F0
F8000001F0
F8000001F0
F8000001F0
F8000001F0
F8000001F0
F8000001F0
F8000001F0
F8000001F0
F8000001F0
F8000001F0
F8000001F0
F8000001F0
F8000001F0
F8000001F0
F8000001F0
F8000001F0
F8000001F0
F8000001F0
F8000001F0
F8000001F0
F8000001F0
F8000001F0
F8000001F0
F8000001F0
F8000001F0
F8000001F0
F8000001F0
F8000001F0
F8000001F0
F8000001F0
F8000001F0
F8000001F0
F8000001F0
F8000001F0
F8000001F0
F8000001F0
F8000001F0
F8000001F0
F8000001F0
F8000001F0
F8000001F0
F8000001F0
F8000001F0
F8000001F0
F8000001F0
F8000001F0
F8000001F0
F8000001F0
F8000001F0
FC000003F0
7F000007F0
3F80001FF0
1FC0003FF0
0FF000FFF0
07FF0FFFF0
03FFFFFDF0
01FFFFF9F0
007FFFE1F0
001FFF81F0
0003FC01F0
ENDCHAR
STARTCHAR 0076
ENCODING 118
SWIDTH 306 0
DWIDTH 46 0
BBX 36 67 5 0
BITMAP
F8000001F0
FC000001F0
7C000003F0
7C000003E0
7C000003E0
7C000003E0
3E000007E0
3E000007C0
3E000007C0
3E000007C0
1F000007C0
1F00000F80
1F00000F80
1F00000F80
1F80000F80
0F80001F80
0F80001F00
0F80001F00
0F80001F00
07C0003F00
07C0003E00
07C0003E00
07C0003E00
03E0003E00
03E0007C00
03E0007C00
03E0007C00
03F0007C00
01F000FC00
01F000F800
01F000F800
01F000F800
00F801F800
00F801F000
00F801F000
00F801F000
007C01F000
007C03E000
007C03E000
007C03E000
007E03E000
003E07E000
003E07C000
003E07C000
003E07C000
001F0FC000
001F0F8000
001F0F8000
001F0F8000
000F8F8000
000F9F0000
000F9F0000
000F9F0000
000FDF0000
0007FF0000
0007FE0000
0007FE0000
0007FE0000
0003FE0000
0003FC0000
0003FC0000
0003FC0000
0001FC0000
0001F80000
0001F80000
0001F80000
0001F80000
ENDCHAR
STARTCHAR 0077
ENCODING 119
SWIDTH 520 0
DWIDTH 78 0
BBX 67 67 5 0
BITMAP
F8000001F0000003E0
F8000001F0000003E0
F8000001F0000003E0
F8000001F0000003E0
F8000001F0000003E0
F8000001F0000003E0
F8000001F0000003E0
F8000001F0000003E0
F8000001F0000003E0
F8000001F0000003E0
F8000001F0000003E0
F8000001F0000003E0
F8000001F0000003E0
F8000001F0000003E0
F8000001F0000003E0
F8000001F0000003E0
F8000001F0000003E0
F8000001F0000003E0
F8000001F0000003E0
F8000001F0000003E0
F8000001F0000003E0
F8000001F0000003E0
F8000001F0000003E0
F8000001F0000003E0
F8000001F0000003E0
F8000001F0000003E0
F8000001F0000003E0
F8000001F0000003E0
F8000001F0000003E0
F8000001F0000003E0
F8000001F0000003E0
F8000001F0000003E0
F8000001F0000003E0
F8000001F0000003E0
F8000001F0000003E0
F8000001F0000003E0
F8000001F0000003E0
F8000001F0000003E0
F8000001F0000003E0
F8000001F0000003E0
F8000001F0000003E0
F8000001F0000003E0
F8000001F0000003E0
F8000001F0000003E0
F8000001F0000003E0
F8000001F0000003E0
F8000001F0000003E0
F8000001F0000003E0
F8000001F0000003E0
F8000001F0000003E0
F8000001F0000003E0
F8000001F0000003E0
F8000001F0000003E0
F8000001F0000003E0
F8000001F0000003E0
F8000001F0000003E0
FC000003F8000007E0
7E000007FC00000FE0
3F00000FFE00001FC0
1FC0003FBF80007F80
1FF000FF1FE001FF00
07FC03FE0FF807FE00
03FFFFFC07FFFFF800
01FFFFF803FFFFF000
007FFFE000FFFFC000
001FFF80003FFF0000
0003FC000007F80000
ENDCHAR
STARTCHAR 0078
ENCODING 120
SWIDTH 326 0
DWIDTH 49 0
BBX 36 67 6 1
BITMAP
FC000003F0
7C000003E0
7E000007E0
3E000007C0
3F00000FC0
1F00000FC0
1F00001F80
1F80001F80
0F80001F00
0FC0003F00
07C0003E00
07E0007E00
03E0007C00
03F000FC00
01F000F800
01F801F800
00F801F000
00FC03F000
007C03F000
007C03E000
007E07E000
003E07C000
003F0FC000
001F0F8000
001F9F8000
000F9F0000
000FFF0000
0007FE0000
0007FE0000
0003FC0000
0003FC0000
0003FC0000
0001F80000
0001F80000
0001F80000
0003FC0000
0003FC0000
0007FE0000
0007FE0000
000FFF0000
000F9F0000
001F9F8000
001F8F8000
001F0F8000
003F0FC000
003E07C000
007E07E000
007C03E000
00FC03F000
00F801F000
01F801F800
01F000F800
03F000FC00
03E0007C00
07E0007E00
07E0007E00
07C0003E00
0FC0003F00
0F80001F00
1F80001F80
1F00000F80
3F00000FC0
3E000007C0
7E000007E0
7C000003E0
FC000003F0
F8000001F0
ENDCHAR
STARTCHAR 0079
ENCODING 121
SWIDTH 346 0
DWIDTH 52 0
BBX 36 98 8 -31
BITMAP
F8000001F0
F8000001F0
F8000001F0
F8000001F0
F8000001F0
F8000001F0
F8000001F0
F8000001F0
F8000001F0
F8000001F0
F8000001F0
F8000001F0
F8000001F0
F8000001F0
F8000001F0
F8000001F0
F8000001F0
F8000001F0
F8000001F0
F8000001F0
F8000001F0
F8000001F0
F8000001F0
F8000001F0
F8000001F0
F8000001F0
F8000001F0
F8000001F0
F8000001F0
F8000001F0
F8000001F0
F8000001F0
F8000001F0
F8000001F0
F8000001F0
F8000001F0
F8000001F0
F8000001F0
F8000001F0
F8000001F0
F8000001F0
F8000001F0
F8000001F0
F8000001F0
F8000001F0
F8000001F0
F8000001F0
F8000001F0
F8000001F0
F8000001F0
F8000001F0
F8000001F0
F8000001F0
F8000001F0
F8000001F0
F8000001F0
FC000003F0
7F000007F0
3F80001FF0
1FC0003FF0
0FF000FFF0
07FF0FFFF0
03FFFFFDF0
01FFFFF9F0
007FFFE1F0
001FFF81F0
0003FC01F0
00000001F0
00000001F0
00000001F0
00000001F0
00000001F0
00000001F0
00000001F0
00000001F0
00000001F0
00000001F0
00000001F0
00000001F0
00000001F0
00000001F0
00000001F0
00000001F0
00000001F0
00000001F0
00000001F0
00000001F0
00000003F0
00000007E0
0000000FC0
0000003F80
000000FF00
000003FE00
00003FFC00
00003FF800
00003FE000
00003F8000
00003C0000
ENDCHAR
STARTCHAR 007A
ENCODING 122
SWIDTH 346 0
DWIDTH 52 0
BBX 36 67 8 0
BITMAP
0003FC0000
001FFF8000
007FFFE000
00FFFFF800
03FFFFFC00
07FE03FE00
0FF000FF00
1FE0003F80
3F80001FC0
7F00000FE0
FE000007F0
3C000003F0
00000007E0
0000000FC0
0000000FC0
0000001F80
0000003F00
0000003F00
0000007E00
0000007E00
000000FC00
000001F800
000001F800
000003F000
000007E000
000007E000
00000FC000
00001F8000
00001F8000
00003F0000
00007E0000
00007E0000
0000FC0000
0001F80000
0001F80000
0003F00000
0007E00000
0007E00000
000FC00000
000FC00000
001F800000
003F000000
003F000000
007E000000
00FC000000
00FC000000
01F8000000
03F0000000
03F0000000
07E0000000
0FC0000000
0FC0000000
1F80000000
3F00000000
3F00000000
7E00000100
FE000003F0
7F000007E0
3F80001FC0
1FC0003F80
07F000FF00
03FE03FE00
01FFFFFC00
00FFFFF800
003FFFE000
000FFF8000
0003FC0000
ENDCHAR
STARTCHAR 007B
ENCODING 123
SWIDTH 313 0
DWIDTH 47 0
BBX 31 128 8 -15
BITMAP
0000001E
000000FE
000003FE
00000FFE
00001FFE
00003FE0
00007F80
0000FE00
0001FC00
0003F000
0007E000
0007C000
0007C000
0007C000
0007C000
0007C000
0007C000
0007C000
0007C000
0007C000
0007C000
0007C000
0007C000
0007C000
0007C000
0007C000
0007C000
0007C000
0007C000
0007C000
0007C000
0007C000
0007C000
0007C000
0007C000
0007C000
0007C000
0007C000
0007C000
0007C000
0007C000
0007C000
0007C000
0007C000
0007C000
0007C000
0007C000
0007C000
0007C000
0007C000
0007C000
0007C000
0007C000
0007C000
0007C000
0007C000
000FC000
001F8000
003F0000
00FE0000
03FC0000
0FF80000
FFF00000
FFE00000
FF800000
FFE00000
FFF00000
0FFC0000
03FE0000
00FF0000
003F8000
001F8000
000FC000
0007C000
0007C000
0007C000
0007C000
0007C000
0007C000
0007C000
0007C000
0007C000
0007C000
0007C000
0007C000
0007C000
0007C000
0007C000
0007C000
0007C000
0007C000
0007C000
0007C000
0007C000
0007C000
0007C000
0007C000
0007C000
0007C000
0007C000
0007C000
0007C000
0007C000
0007C000
0007C000
0007C000
0007C000
0007C000
0007C000
0007C000
0007C000
0007C000
0007C000
0007C000
0007C000
0007C000
0007C000
0007E000
0007F000
0003F800
0001FE00
0000FF80
00007FE0
00001FFE
00000FFE
000003FE
000000FE
0000001E
ENDCHAR
STARTCHAR 007C
ENCODING 124
SWIDTH 140 0
DWIDTH 21 0
BBX 5 127 8 -15
BITMAP
F8
F8
F8
F8
F8
F8
F8
F8
F8
F8
F8
F8
F8
F8
F8
F8
F8
F8
F8
F8
F8
F8
F8
F8
F8
F8
F8
F8
F8
F8
F8
F8
F8
F8
F8
F8
F8
F8
F8
F8
F8
F8
F8
F8
F8
F8
F8
F8
F8
F8
F8
F8
F8
F8
F8
F8
F8
F8
F8
F8
F8
F8
F8
F8
F8
F8
F8
F8
F8
F8
F8
F8
F8
F8
F8
F8
F8
F8
F8
F8
F8
F8
F8
F8
F8
F8
F8
F8
F8
F8
F8
F8
F8
F8
F8
F8
F8
F8
F8
F8
F8
F8
F8
F8
F8
F8
F8
F8
F8
F8
F8
F8
F8
F8
F8
F8
F8
F8
F8
F8
F8
F8
F8
F8
F8
F8
F8
ENDCHAR
STARTCHAR 007D
ENCODING 125
SWIDTH 313 0
DWIDTH 47 0
BBX 31 128 8 -15
BITMAP
F0000000
FE000000
FF800000
FFE00000
FFF00000
0FF80000
03FC0000
00FE0000
003F0000
001F8000
000FC000
0007C000
0007C000
0007C000
0007C000
0007C000
0007C000
0007C000
0007C000
0007C000
0007C000
0007C000
0007C000
0007C000
0007C000
0007C000
0007C000
0007C000
0007C000
0007C000
0007C000
0007C000
0007C000
0007C000
0007C000
0007C000
0007C000
0007C000
0007C000
0007C000
0007C000
0007C000
0007C000
0007C000
0007C000
0007C000
0007C000
0007C000
0007C000
0007C000
0007C000
0007C000
0007C000
0007C000
0007C000
0007C000
0007E000
0003F000
0001FC00
0000FE00
00007F80
00003FE0
00001FFE
000007FE
000003FE
00000FFE
00001FFE
00003FE0
00007F80
0000FE00
0001FC00
0003F000
0007E000
0007C000
0007C000
0007C000
0007C000
0007C000
0007C000
0007C000
0007C000
0007C000
0007C000
0007C000
0007C000
0007C000
0007C000
0007C000
0007C000
0007C000
0007C000
0007C000
0007C000
0007C000
0007C000
0007C000
0007C000
0007C000
0007C000
0007C000
0007C000
0007C000
0007C000
0007C000
0007C000
0007C000
0007C000
0007C000
0007C000
0007C000
0007C000
0007C000
0007C000
0007C000
0007C000
0007C000
0007C000
000FC000
001FC000
003F8000
00FF0000
03FE0000
0FFC0000
FFF80000
FFE00000
FF800000
FE000000
F0000000
ENDCHAR
STARTCHAR 007E
ENCODING 126
SWIDTH 466 0
DWIDTH 70 0
BBX 54 15 8 42
BITMAP
003FE000000000
01FFFC00000000
03FFFF00000000
07FFFFC0000020
0FFFFFE0000078
1FE01FF00000FC
1F8007FC0001FC
3F0001FE0001F8
7E0000FF8003F8
FE00007FF007F0
7C00001FFFFFE0
1800000FFFFFC0
00000007FFFF80
00000001FFFF80
000000001FF800
ENDCHAR
STARTCHAR 00A0
ENCODING 160
SWIDTH 1026 0
DWIDTH 154 0
BBX 139 120 8 1
BITMAP
0001E00000000000F0000000000000000000
000210000000000198000000000000000000
00020000001800020C000002000000000000
00020000001800020C000002000000000000
00020000001800020C000002000000000000
00020000001800020C000002000000000000
000200F0481F80020C418703E0F000000000
000201F8771800020C418F82011800000000
0003E304409800010C419842020800000000
00020304409800010C419842020800000000
00020304409800028C419842020800000000
00020304408800028C419842020800000000
00020304408800028C419842020800000000
00020304408800024C41184203F000000000
00020304408800024C411842020000000000
00020304408800022C411842020000000000
00020304408800022C411842020000000000
00020304408800022C411842020800000000
000201F8408800011C370F82011800000000
000200F040080000F81D070200F000000000
000000000000000008000000000000000000
00000000000000000C000000000000000000
00000000000000010C000000000000000000
0000000000000000F8000000000000000000
000000000000000000000000000000000000
000000000000000000000000000000000000
000000000000000000000000000000000000
000000000000000000000000000000000000
000000000000000000000000000000000000
000000000000000000000000000000000000
000000000000000000000000000000000000
000000000000000000000000000000000000
000000000000000000000000000000000000
000000000000000000000000000000000000
400000010000000000000000000000000000
400000010000000000000000000000000000
400002010000000000000000000000000000
400000010000000000000000000000000000
40000001000000000001B000000000000000
4B81C21D0E000C21C109CC00784108B80000
4C46326311800C2321098000844108C40000
4824024120800C2211098000844108820000
4824024120800C2211098000844108820000
4824024120800C2211098000844108820000
4822024120800C2211098000844108820000
4821C2413F000C2211088000864108820000
4820224130000C2211090000864108820000
4820224130000C2211090000864108820000
4820224130000C2211090000864108820000
482362631080046321190000CE2318820000
0821C23D0F0003A1C0F80000381CF0820000
000000000000002000000000000000000000
000000000000002000000000000000000000
000000000000002000000000000000000000
000000000000002000000000000000000000
00000000000000C000000000000000000000
000000000000000000000000000000000000
000000000000000000000000000000000000
000000000000000000000000000000000000
000000000000000000000000000000000000
000000000000000000000000000000000000
000000000000000000000000000000000000
000000000000000000000000000000000000
000000000000000000000000000000000000
000000000000000000000000000000000000
000000000000000000000000000000000000
000000004000000000000000000000000000
000000004000000000000000000000000000
000100004000000000000000000000000000
000000004000000000000000000000000000
00000000400000000000E000000000000000
FDF1170740003E1F0001F97038000E070B80
C7191998C000311980031988CC0031188C40
C3091090400020908003098884002000C860
C3091090400020908003098884002000C860
C3091090400020908FF3098884002000C860
C309109040002090800309888400200FC860
C30910904000209080030888F8002010C860
C3091090400020908003090880002010C860
C3091090400020908003090880002010C860
C3091090440020908001090880002010C860
C3091088C40020990000910846003119C860
C3091087480020860000600838000E07C860
000000000800000000000000000000000000
000000000000000000000000000000000000
000000000000000000000000000000000000
000000000000000000000000000000000000
000000000000000000000000000000000000
000000000000000000000000000000000000
000000000000000000000000000000000000
000000000000000000000000000000000000
000000000000000000000000000000000000
000000000000000000000000000000000000
000000000000000000000000000000000000
000000000000000000000000000000000000
000000000000000000000000000000000000
000000000000000000000000000000000000
800000000000000000000000000000000000
800000000000000000000400000000000000
800000000000000000000400000000000000
800000000000000000000400000000000000
800000000000000000000400000000000000
80000603000C000100000418000000000000
FC3E1F8E800C23E108007C663C1F1FBC0000
C2431088000C241108008462421190C20000
82410088000C241108008460420090410000
82410088000C241108008460420090410000
82410E88000C241108008460420E90410000
82421188000C241108008460421190410000
827C3088000C2411080084607C1190410000
C2403088000C241108008460401190410000
C2403088000C241108008460401190410000
C24110880004241108008460431190410000
C23E0F88000763E1D8007C603C0E90410000
C00000080000A00020000060000010410000
000000000000200000000000000000000000
000000000000200000000000000000000000
000000000000200000000000000000000000
000000000000600000000000000000000000
000000000000C00000000000000000000000
ENDCHAR
STARTCHAR 00A1
ENCODING 161
SWIDTH 140 0
DWIDTH 21 0
BBX 5 97 8 -15
BITMAP
F8
F8
F8
F8
F8
F8
F8
F8
F8
F8
00
00
00
00
00
00
00
00
00
00
00
00
00
00
00
F8
F8
F8
F8
F8
F8
F8
F8
F8
F8
F8
F8
F8
F8
F8
F8
F8
F8
F8
F8
F8
F8
F8
F8
F8
F8
F8
F8
F8
F8
F8
F8
F8
F8
F8
F8
F8
F8
F8
F8
F8
F8
F8
F8
F8
F8
F8
F8
F8
F8
F8
F8
F8
F8
F8
F8
F8
F8
F8
F8
F8
F8
F8
F8
F8
F8
F8
F8
F8
F8
F8
F8
ENDCHAR
STARTCHAR 00A2
ENCODING 162
SWIDTH 346 0
DWIDTH 52 0
BBX 36 67 8 0
BITMAP
0001F00000
0001F00000
0001F00000
0001F00000
0001F00000
0001F00000
001FFF0000
007FFFC000
00FFFFF000
03FFFFF800
07FFFFFE00
0FF9F3FF00
1FE1F07F80
3F81F03FC0
7F01F00FE0
FE01F007E0
FC01F003C0
F801F00000
F801F00000
F801F00000
F801F00000
F801F00000
F801F00000
F801F00000
F801F00000
F801F00000
F801F00000
F801F00000
F801F00000
F801F00000
F801F00000
F801F00000
F801F00000
F801F00000
F801F00000
F801F00000
F801F00000
F801F00000
F801F00000
F801F00000
F801F00000
F801F00000
F801F00000
F801F00000
F801F00000
F801F00000
F801F00000
F801F00000
F801F00000
F801F00000
F801F00300
FC01F007F0
7F01F00FE0
3F81F01FC0
3FC1F07F80
1FF1F1FF00
07FFFFFE00
03FFFFFC00
01FFFFF000
007FFFE000
001FFF8000
0003F80000
0001F00000
0001F00000
0001F00000
0001F00000
0001F00000
ENDCHAR
STARTCHAR 00A3
ENCODING 163
SWIDTH 346 0
DWIDTH 52 0
BBX 36 97 8 0
BITMAP
0003FC0000
001FFF8000
007FFFE000
01FFFFF800
03FFFFFC00
0FFE03FE00
1FF000FF80
3FC0003FC0
7F80000FC0
FE000007E0
FC000003E0
F800000000
F800000000
F800000000
F800000000
F800000000
F800000000
F800000000
F800000000
F800000000
F800000000
F800000000
F800000000
F800000000
F800000000
F800000000
F800000000
F800000000
F800000000
F800000000
F800000000
F800000000
F800000000
F800000000
F800000000
FFFFFFC000
FFFFFFC000
FFFFFFC000
FFFFFFC000
FFFFFFC000
F800000000
F800000000
F800000000
F800000000
F800000000
F800000000
F800000000
F800000000
F800000000
F800000000
F800000000
FFFFFFC000
FFFFFFC000
FFFFFFC000
FFFFFFC000
FFFFFFC000
F800000000
F800000000
F800000000
F800000000
F800000000
F800000000
F800000000
F800000000
F800000000
F800000000
F800000000
F800000000
F800000000
F800000000
F800000000
F800000000
F800000000
F800000000
F800000000
F800000000
F800000000
F800000000
F800000000
F800000000
F800000000
F800000000
F800000000
F800000000
F800000000
FC00000000
FE00000000
7F00000000
3F80000000
3FC0000000
1FF0000000
07FC000000
0FFFFFFFF0
0FFFFFFFF0
1FFFFFFFF0
3FFFFFFFF0
7FFFFFFFF0
ENDCHAR
STARTCHAR 00A4
ENCODING 164
SWIDTH 446 0
DWIDTH 67 0
BBX 51 51 8 26
BITMAP
10000000000100
38000000000380
7C0000000007C0
FE0003FC000FE0
7F001FFF801FC0
3F807FFFE03F80
1FC0FFFFF8FF00
0FE3FFFFFDFE00
07F7FFDFFFFC00
03FFF801FFF800
01FFE0003FF000
00FF80001FE000
007F00000FE000
00FE000003F000
00FC000001F000
00F8000001F000
00F8000001F000
00F8000001F000
00F8000001F000
00F8000001F000
00F8000001F000
00F8000001F000
00F8000001F000
00F8000001F000
00F8000001F000
00F8000001F000
00F8000001F000
00F8000001F000
00F8000001F000
00F8000001F000
00F8000001F000
00F8000001F000
00F8000001F000
00F8000001F000
00F8000001F000
00F8000001F000
00F8000001F000
00FC000003F000
007E000007F000
00FF00000FE000
01FFC0003FF000
03FFF000FFF800
07FFFC03FFFC00
0FE3FFFFFCFE00
1FC1FFFFF87F00
3F807FFFE03F80
7F001FFF801FC0
FE0003FC000FE0
7C0000000007C0
38000000000380
10000000000100
ENDCHAR
STARTCHAR 00A5
ENCODING 165
SWIDTH 346 0
DWIDTH 52 0
BBX 36 97 8 0
BITMAP
F8000001F0
F8000001F0
F8000001F0
F8000001F0
F8000001F0
F8000001F0
F8000001F0
F8000001F0
F8000001F0
F8000001F0
F8000001F0
F8000001F0
F8000001F0
F8000001F0
F8000001F0
F8000001F0
F8000001F0
F8000001F0
F8000001F0
F8000001F0
F8000001F0
F8000001F0
F8000001F0
F8000001F0
F8000001F0
F8000001F0
F8000001F0
F8000001F0
F8000001F0
F8000001F0
F8000001F0
F8000001F0
F8000001F0
F8000001F0
FC000003F0
FE000007F0
7F00000FE0
3FC0003FC0
1FF0007F80
0FFC03FF00
07FFFFFE00
03FFFFFC00
01FFFFF000
007FFFE000
001FFF0000
0001F00000
0001F00000
0001F00000
0001F00000
0001F00000
0001F00000
0001F00000
0001F00000
0001F00000
0001F00000
0001F00000
0001F00000
0001F00000
0001F00000
0001F00000
0001F00000
FFFFFFFFF0
FFFFFFFFF0
FFFFFFFFF0
FFFFFFFFF0
FFFFFFFFF0
0001F00000
0001F00000
0001F00000
0001F00000
0001F00000
0001F00000
0001F00000
0001F00000
0001F00000
0001F00000
0001F00000
FFFFFFFFF0
FFFFFFFFF0
FFFFFFFFF0
FFFFFFFFF0
FFFFFFFFF0
0001F00000
0001F00000
0001F00000
0001F00000
0001F00000
0001F00000
0001F00000
0001F00000
0001F00000
0001F00000
0001F00000
0001F00000
0001F00000
0001F00000
0001F00000
ENDCHAR
STARTCHAR 00A6
ENCODING 166
SWIDTH 140 0
DWIDTH 21 0
BBX 5 108 8 -2
BITMAP
F8
F8
F8
F8
F8
F8
F8
F8
F8
F8
F8
F8
F8
F8
F8
F8
F8
F8
F8
F8
F8
F8
F8
F8
F8
F8
F8
F8
F8
F8
F8
F8
F8
F8
F8
F8
F8
F8
F8
F8
F8
F8
F8
F8
F8
F8
F8
F8
F8
00
00
00
00
00
00
00
00
00
00
F8
F8
F8
F8
F8
F8
F8
F8
F8
F8
F8
F8
F8
F8
F8
F8
F8
F8
F8
F8
F8
F8
F8
F8
F8
F8
F8
F8
F8
F8
F8
F8
F8
F8
F8
F8
F8
F8
F8
F8
F8
F8
F8
F8
F8
F8
F8
F8
F8
ENDCHAR
STARTCHAR 00A7
ENCODING 167
SWIDTH 346 0
DWIDTH 52 0
BBX 36 97 8 -13
BITMAP
0003FC0000
001FFF8000
007FFFE000
01FFFFF800
03FFFFFC00
0FFC03FF00
1FF000FF80
3FC0003FC0
7F80001FE0
7E000007F0
FC000003F0
F800000100
F800000000
F800000000
F800000000
F800000000
F800000000
F800000000
F800000000
F800000000
F800000000
F800000000
F800000000
F800000000
F800000000
FC00000000
7E00000000
3F80000000
1FC0000000
0FF0000000
07FC000000
03FFFC0000
00FFFF8000
00FFFFF000
01FFFFF800
07FFFFFE00
0FFC03FF00
1FF000FF80
3FC0003FC0
7F00000FE0
FE000007F0
FC000003F0
F8000001F0
F8000001F0
F8000001F0
F8000001F0
F8000001F0
F8000001F0
F8000001F0
F8000001F0
F8000001F0
F8000001F0
F8000001F0
F8000001F0
F8000001F0
FC000003F0
FE000007F0
7F00000FE0
3FC0003FC0
1FF0007F80
0FFC03FF00
03FFFFFE00
01FFFFF800
007FFFF000
001FFFF000
0003FFFC00
000003FE00
000000FF00
0000003F80
0000000FC0
00000007E0
00000003F0
00000001F0
00000001F0
00000001F0
00000001F0
00000001F0
00000001F0
00000001F0
00000001F0
00000001F0
00000001F0
00000001F0
00000001F0
00000001F0
04000001F0
7C000003F0
7F000007F0
7F80000FE0
3FC0003FC0
1FF000FF80
07FE03FF00
03FFFFFC00
01FFFFF800
007FFFE000
001FFF8000
0003FC0000
ENDCHAR
STARTCHAR 00A8
ENCODING 168
SWIDTH 240 0
DWIDTH 36 0
BBX 21 10 8 82
BITMAP
F800F8
F800F8
F800F8
F800F8
F800F8
F800F8
F800F8
F800F8
F800F8
F800F8
ENDCHAR
STARTCHAR 00A9
ENCODING 169
SWIDTH 353 0
DWIDTH 53 0
BBX 38 64 8 32
BITMAP
01C0000E00
07C0000F80
1FC0000FE0
3FC0000FF0
7FC0000FF8
FE000001FC
FC0000007C
F00000003C
F001FC003C
F007FF003C
F00FFF803C
F01FFFC03C
F03F07E03C
F07C01F03C
F07800E03C
F07800003C
F07800003C
F07800003C
F07800003C
F07800003C
F07800003C
F07800003C
F07800003C
F07800003C
F07800003C
F07800003C
F07800003C
F07800003C
F07800003C
F07800003C
F07800003C
F07800003C
F07800003C
F07800003C
F07800003C
F07800003C
F07800003C
F07800003C
F07800003C
F07800003C
F07800003C
F07800003C
F07800003C
F07800003C
F07800003C
F07800003C
F07800003C
F07800003C
F07800003C
F07800003C
F07C01F03C
F07F07F03C
F03FFFE03C
F01FFFC03C
F00FFF803C
F003FF003C
F000FC003C
F00000003C
FC0000007C
FE000001FC
7FC0000FF8
1FC0000FF0
0FC0000FC0
01C0000F00
ENDCHAR
STARTCHAR 00AA
ENCODING 170
SWIDTH 346 0
DWIDTH 52 0
BBX 36 51 8 47
BITMAP
0003FC0000
001FFF8000
007FFFE000
01FFFFF800
03FFFFFC00
07FE03FF00
1FF000FF80
3FC0003FC0
7F80000FE0
7F000007F0
FE000003F0
0C000001F0
00000001F0
00000001F0
00000001F0
00000001F0
00000001F0
00000001F0
0003FC01F0
001FFF81F0
007FFFE1F0
01FFFFF9F0
03FFFFFDF0
07FE07FFF0
0FF000FFF0
1FC0003FF0
3F80001FF0
7F000007F0
FC000003F0
F8000001F0
F8000001F0
F8000001F0
F8000001F0
F8000001F0
F8000001F0
F8000001F0
F8000001F0
F8000001F0
F8000001F0
F8000001F0
FC000003F0
FE000007F0
7F00000FF0
3F80001FF0
1FE0007FF0
0FF801FFF0
07FFFFFDF0
01FFFFF9F0
007FFFE1F0
001FFF81F0
0003FC01F0
ENDCHAR
STARTCHAR 00AB
ENCODING 171
SWIDTH 353 0
DWIDTH 53 0
BBX 38 36 8 26
BITMAP
0000400004
0000C0000C
0001C0001C
0003C0003C
0007C000FC
000FC001F8
001F8003F8
007F0007F0
00FE000FE0
01FE001FC0
03FC007F80
07F800FF80
0FF001FF00
3FF003FE00
7FE007FC00
FFC00FF800
FF800FF800
FF000FF000
FF000FF000
FF800FF000
FFC00FF800
7FE007FC00
3FE003FE00
1FF001FF00
07F800FF00
03FC007F80
01FC003FC0
00FE001FE0
007F0007E0
003F8003F0
001F8001F8
0007C000F8
0003C00078
0001C00038
0000C00008
0000400000
ENDCHAR
STARTCHAR 00AC
ENCODING 172
SWIDTH 433 0
DWIDTH 65 0
BBX 49 18 8 28
BITMAP
FFFFFFFFFE0000
FFFFFFFFFF8000
FFFFFFFFFFC000
FFFFFFFFFFE000
FFFFFFFFFFF000
0000000003F000
0000000001F800
0000000000FC00
00000000007C00
00000000007E00
00000000003E00
00000000003F00
00000000001F00
00000000001F80
00000000000F80
00000000000F80
00000000000F80
00000000000F80
ENDCHAR
STARTCHAR 00AD
ENCODING 173
SWIDTH 413 0
DWIDTH 62 0
BBX 46 5 8 41
BITMAP
FFFFFFFFFFFC
FFFFFFFFFFFC
FFFFFFFFFFFC
FFFFFFFFFFFC
FFFFFFFFFFFC
ENDCHAR
STARTCHAR 00AE
ENCODING 174
SWIDTH 353 0
DWIDTH 53 0
BBX 38 64 8 32
BITMAP
01C0000E00
07C0000F80
1FC0000FE0
3FC0000FF0
7FC0000FF8
FE000001FC
FC0000007C
F00000003C
F07FFC003C
F07FFF003C
F07FFF803C
F07FFFC03C
F07807E03C
F07801F03C
F07800F03C
F07800F03C
F07800F03C
F07800F03C
F07800F03C
F07800F03C
F07800F03C
F07800F03C
F07800F03C
F07800F03C
F07800F03C
F07800F03C
F07801F03C
F07807E03C
F07FFFC03C
F07FFF803C
F07FFF803C
F07FFFC03C
F07FFFE03C
F07807F03C
F07801F03C
F07800F03C
F07800F03C
F07800F03C
F07800F03C
F07800F03C
F07800F03C
F07800F03C
F07800F03C
F07800F03C
F07800F03C
F07800F03C
F07800F03C
F07800F03C
F07800F03C
F07800F03C
F07800F03C
F07800F03C
F07800F03C
F07800F03C
F07800F03C
F07800F03C
F07800F03C
F00000003C
FC0000007C
FE000001FC
7FC0000FF8
1FC0000FE0
0FC0000FC0
01C0000E00
ENDCHAR
STARTCHAR 00B0
ENCODING 176
SWIDTH 280 0
DWIDTH 42 0
BBX 26 37 8 65
BITMAP
003F8000
01FFE000
03FFF000
07FFF800
07FFF800
0FC0FC00
0F807C00
0F003E00
1F003E00
1F001F00
3E001F00
3E001F00
7E000F80
7C000FC0
FC0007C0
F80007C0
F80007C0
F80007C0
F80007C0
F80007C0
F80007C0
F80007C0
FC000FC0
7C000FC0
7C001F80
3E001F80
3E001F00
1E003F00
1F003E00
1F003E00
0F807C00
0FC0FC00
07FFF800
07FFF800
03FFF000
01FFE000
003F8000
ENDCHAR
STARTCHAR 00B1
ENCODING 177
SWIDTH 413 0
DWIDTH 62 0
BBX 47 58 8 9
BITMAP
000007C00000
000007C00000
000007C00000
000007C00000
000007C00000
000007C00000
000007C00000
000007C00000
000007C00000
000007C00000
000007C00000
000007C00000
000007C00000
000007C00000
000007C00000
000007C00000
000007C00000
000007C00000
000007C00000
000007C00000
000007C00000
FFFFFFFFFFFE
FFFFFFFFFFFE
FFFFFFFFFFFE
FFFFFFFFFFFE
FFFFFFFFFFFE
000007C00000
000007C00000
000007C00000
000007C00000
000007C00000
000007C00000
000007C00000
000007C00000
000007C00000
000007C00000
000007C00000
000007C00000
000007C00000
000007C00000
000007C00000
000007C00000
000007C00000
000007C00000
000007C00000
000007C00000
000000000000
000000000000
000000000000
000000000000
000000000000
000000000000
000000000000
FFFFFFFFFFFE
FFFFFFFFFFFE
FFFFFFFFFFFE
FFFFFFFFFFFE
FFFFFFFFFFFE
ENDCHAR
STARTCHAR 00B2
ENCODING 178
SWIDTH 273 0
DWIDTH 41 0
BBX 25 68 8 30
BITMAP
007F0000
01FFC000
07FFF000
0FFFF800
1FC1FC00
3F007E00
7C001F00
F8000F80
F0000780
F0000780
F0000780
F0000780
00000780
00000780
00000780
00000780
00000780
00000780
00000780
00000780
00000780
00000780
00000780
00000780
00000780
00000F80
00001F00
00003E00
0000FC00
007FF800
01FFF000
07FFE000
0FFF0000
1FC00000
3F000000
7C000000
F8000000
F0000000
F0000000
F0000000
F0000000
F0000000
F0000000
F0000000
F0000000
F0000000
F0000000
F0000000
F0000000
F0000000
F0000000
F0000000
F0000000
F0000000
F0000000
F0000000
F0000000
F0000000
F0000000
F0000000
F8000600
FC000F80
7F003F00
3FC0FE00
1FFFFC00
07FFF000
03FFE000
007F0000
ENDCHAR
STARTCHAR 00B3
ENCODING 179
SWIDTH 273 0
DWIDTH 41 0
BBX 25 68 8 30
BITMAP
007F0000
01FFC000
07FFF000
0FFFF800
1FC1FC00
3F007E00
7C001F00
F8000F80
F0000780
F0000780
F0000780
F0000780
00000780
00000780
00000780
00000780
00000780
00000780
00000780
00000780
00000780
00000780
00000780
00000780
00000780
00000F80
00001F00
00003E00
0000FC00
0007F800
0007E000
0007F000
0007FC00
0000FE00
00003F00
00001F00
00000F80
00000780
00000780
00000780
00000780
00000780
00000780
00000780
00000780
00000780
00000780
00000780
00000780
00000780
00000780
00000780
00000780
00000780
00000780
00000780
00000780
F0000780
F0000780
F0000780
F8000F80
FC001F80
7E003F00
3FC1FE00
1FFFFC00
07FFF000
03FFE000
007F0000
ENDCHAR
STARTCHAR 00B4
ENCODING 180
SWIDTH 233 0
DWIDTH 35 0
BBX 19 20 8 78
BITMAP
0007E0
000FC0
000FC0
001F80
003F00
007F00
007E00
00FC00
01F800
01F800
03F000
07E000
0FE000
0FC000
1F8000
3F8000
3F0000
7E0000
FC0000
FC0000
ENDCHAR
STARTCHAR 00B5
ENCODING 181
SWIDTH 346 0
DWIDTH 52 0
BBX 36 86 8 -19
BITMAP
F8000001F0
F8000001F0
F8000001F0
F8000001F0
F8000001F0
F8000001F0
F8000001F0
F8000001F0
F8000001F0
F8000001F0
F8000001F0
F8000001F0
F8000001F0
F8000001F0
F8000001F0
F8000001F0
F8000001F0
F8000001F0
F8000001F0
F8000001F0
F8000001F0
F8000001F0
F8000001F0
F8000001F0
F8000001F0
F8000001F0
F8000001F0
F8000001F0
F8000001F0
F8000001F0
F8000001F0
F8000001F0
F8000001F0
F8000001F0
F8000001F0
F8000001F0
F8000001F0
F8000001F0
F8000001F0
F8000001F0
F8000001F0
F8000001F0
F8000001F0
F8000001F0
F8000001F0
F8000001F0
F8000001F0
F8000001F0
F8000001F0
F8000001F0
F8000001F0
F8000001F0
F8000001F0
F8000001F0
F8000001F0
F8000001F0
FC000003F0
FF000007E0
FF80001FE0
FFC0003FC0
FFF000FF80
FFFF0FFE00
FBFFFFFC00
F9FFFFF800
F87FFFE000
F81FFF8000
F803FE0000
F8003E0000
F8003F0000
F8001F8000
F8001FE000
F8000FF000
F80007FC00
F80003FF00
F80000FFF0
F800007FF0
F800001FF0
F8000007F0
F8000000F0
F800000000
F800000000
F800000000
F800000000
F800000000
F800000000
F800000000
ENDCHAR
STARTCHAR 00B6
ENCODING 182
SWIDTH 366 0
DWIDTH 55 0
BBX 39 105 8 -9
BITMAP
0003FFFFFE
001FFFFFFE
007FFFFFFE
01FFFFFFFE
03FFFFFFFE
07FFFFF83E
0FFFFFF83E
1FFFFFF83E
3FFFFFF83E
7FFFFFF83E
FFFFFFF83E
FFFFFFF83E
FFFFFFF83E
FFFFFFF83E
FFFFFFF83E
FFFFFFF83E
FFFFFFF83E
FFFFFFF83E
FFFFFFF83E
FFFFFFF83E
FFFFFFF83E
FFFFFFF83E
FFFFFFF83E
FFFFFFF83E
FFFFFFF83E
FFFFFFF83E
FFFFFFF83E
FFFFFFF83E
FFFFFFF83E
FFFFFFF83E
FFFFFFF83E
FFFFFFF83E
FFFFFFF83E
FFFFFFF83E
FFFFFFF83E
FFFFFFF83E
FFFFFFF83E
7FFFFFF83E
3FFFFFF83E
1FFFFFF83E
0FFFFFF83E
03FFFFF83E
01FFFFF83E
007FFFF83E
003FFFF83E
0007FFF83E
000000F83E
000000F83E
000000F83E
000000F83E
000000F83E
000000F83E
000000F83E
000000F83E
000000F83E
000000F83E
000000F83E
000000F83E
000000F83E
000000F83E
000000F83E
000000F83E
000000F83E
000000F83E
000000F83E
000000F83E
000000F83E
000000F83E
000000F83E
000000F83E
000000F83E
000000F83E
000000F83E
000000F83E
000000F83E
000000F83E
000000F83E
000000F83E
000000F83E
000000F83E
000000F83E
000000F83E
000000F83E
000000F83E
000000F83E
000000F83E
000000F83E
000000F83E
000000F83E
000000F83E
000000F83E
000000F83E
000000F83E
000000F83E
000000F83E
000000F83E
000000F83E
000000F83E
000000F83E
000000F83E
000000F83E
000000F83E
000000F83E
000000F83E
000000F83E
ENDCHAR
STARTCHAR 00B7
ENCODING 183
SWIDTH 140 0
DWIDTH 21 0
BBX 5 10 8 41
BITMAP
F8
F8
F8
F8
F8
F8
F8
F8
F8
F8
ENDCHAR
STARTCHAR 00B8
ENCODING 184
SWIDTH 226 0
DWIDTH 34 0
BBX 18 32 8 -27
BITMAP
F80000
F80000
F80000
F80000
F80000
F80000
FE0000
FF8000
FFE000
FFF000
0FF800
03FE00
00FF00
003F80
001F80
000FC0
0007C0
0007C0
0007C0
0007C0
0007C0
000FC0
001FC0
003F80
00FF00
03FE00
0FFC00
FFF800
FFE000
FFC000
FE0000
F00000
ENDCHAR
STARTCHAR 00B9
ENCODING 185
SWIDTH 273 0
DWIDTH 41 0
BBX 25 68 8 30
BITMAP
001E0000
001E0000
001E0000
001E0000
001E0000
001E0000
001E0000
001E0000
001E0000
001E0000
001E0000
001E0000
001E0000
001E0000
001E0000
001E0000
001E0000
001E0000
001E0000
001E0000
001E0000
001E0000
001E0000
001E0000
001E0000
001E0000
001E0000
001E0000
001E0000
001E0000
001E0000
001E0000
001E0000
001E0000
001E0000
001E0000
001E0000
001E0000
001E0000
001E0000
001E0000
001E0000
001E0000
001E0000
001E0000
001E0000
001E0000
001E0000
001E0000
001E0000
001E0000
001E0000
001E0000
001E0000
001E0000
001E0000
001E0000
001E0000
001E0000
001E0000
301E0600
F81E0F80
7C1E1F00
3F1E3E00
1FFFFC00
07FFF800
01FFE000
007F0000
ENDCHAR
STARTCHAR 00BA
ENCODING 186
SWIDTH 280 0
DWIDTH 42 0
BBX 26 28 8 74
BITMAP
003F8000
01FFE000
03FFF000
07FFF800
07FFFC00
0FE1FE00
1F807E00
3F003F00
7E003F80
7E001FC0
FC000FC0
F80007C0
F80007C0
F80007C0
F80007C0
F80007C0
F80007C0
FC000FC0
7E001F80
3F001F80
3F003F00
1FC07E00
0FE0FC00
07FFF800
03FFF800
01FFF000
00FFC000
003F0000
ENDCHAR
STARTCHAR 00BB
ENCODING 187
SWIDTH 353 0
DWIDTH 53 0
BBX 38 36 8 26
BITMAP
8000000000
C000080000
E0000C0000
F0000F0000
F8000F8000
FC000FC000
7F0007E000
3F8003F000
1FC003F800
0FE001FE00
0FF000FF00
07F8007F80
03FE003FC0
01FF003FE0
00FF801FF0
00FFC00FFC
007FC007FC
003FC007FC
003FC003FC
007FC007FC
007FC00FFC
00FF801FF8
01FF001FE0
03FE003FC0
07FC007F80
07F800FF00
0FE001FE00
1FC001FC00
3F8003F800
3F0007F000
7E000FC000
7C000F8000
78000F0000
60000E0000
40000C0000
0000080000
ENDCHAR
STARTCHAR 00BC
ENCODING 188
SWIDTH 653 0
DWIDTH 98 0
BBX 83 98 8 0
BITMAP
001E000000000000000000
001E0000000003E0000000
001E0000000007E0000000
001E0000000007C0000000
001E0000000007C0000000
001E0000000007C0000000
001E000000000F80000000
001E000000000F80000000
001E000000000F80000000
001E000000001F80000000
001E000000001F00000000
001E000000001F00000000
001E000000003F00000000
001E000000003E00000000
001E000000003E00000000
001E000000007E00000000
001E000000007C00000000
001E000000007C00000000
001E00000000FC00000000
001E00000000F800000000
001E00000000F800000000
001E00000001F800000000
001E00000001F000000000
001E00000001F000000000
001E00000003F000000000
001E00000003E000000000
001E00000003E000000000
001E00000003E000000000
001E00000007E000000000
001E00000007C000000000
001E00000007C0000E0000
001E0000000FC0000E0000
001E0000000F80001C0000
001E0000000F80001C0000
001E0000001F80001C0000
001E0000001F00001C0000
001E0000001F0000380000
001E0000003F0000380000
001E0000003E0000380000
001E0000003E0000380000
001E0000007E0000700000
001E0000007C0000700000
001E0000007C0000700000
001E000000FC0000700000
001E000000F80000E00000
001E000000F80000E00000
001E000000F80000E00000
001E000001F00000E00000
001E000001F00001C1E000
001E000001F00001C1E000
001E000003F00001C1E000
001E000003E00003C1E000
001E000003E0000381E000
001E000007E0000381E000
001E000007C0000381E000
001E000007C0000781E000
001E00000FC0000701E000
001E00000F80000701E000
001E00000F80000701E000
001E00001F80000F01E000
301E06001F00000E01E000
F81E0F801F00000E01E000
7C1E1F003F00000E01E000
3F1E3E003E00001E01E000
1FFFFC003E00001C01E000
0FFFF8007E00001C01E000
03FFE0007C00001C01E000
00FFC0007C00003C01E000
000000007C00003801E000
00000000FC00007801E000
00000000F800007801E000
00000000F800007801E000
00000001F800007801E000
00000001F000007801E000
00000001F000007801E000
00000003F000007801E000
00000003E000007C01E3E0
00000003E000003E01E7C0
00000007E000001F81FF80
00000007C000000FE1FF00
00000007C0000007FFFC00
0000000FC0000003FFF800
0000000F80000000FFE000
0000000F800000003FE000
0000001F8000000001E000
0000001F0000000001E000
0000001F0000000001E000
0000001F0000000001E000
0000003E0000000001E000
0000003E0000000001E000
0000003E0000000001E000
0000007E0000000001E000
0000007C0000000001E000
0000007C0000000001E000
000000FC0000000001E000
000000F80000000001E000
000000F80000000001E000
000001F80000000001E000
ENDCHAR
STARTCHAR 00BD
ENCODING 189
SWIDTH 673 0
DWIDTH 101 0
BBX 85 98 8 0
BITMAP
001E000000000000000000
001E0000000003E0000000
001E0000000007E0000000
001E0000000007C0000000
001E0000000007C0000000
001E0000000007C0000000
001E000000000F80000000
001E000000000F80000000
001E000000000F80000000
001E000000001F80000000
001E000000001F00000000
001E000000001F00000000
001E000000003F00000000
001E000000003E00000000
001E000000003E00000000
001E000000007E00000000
001E000000007C00000000
001E000000007C00000000
001E00000000FC00000000
001E00000000F800000000
001E00000000F800000000
001E00000001F800000000
001E00000001F000000000
001E00000001F000000000
001E00000003F000000000
001E00000003E000000000
001E00000003E000000000
001E00000003E000000000
001E00000007E000000000
001E00000007C000000000
001E00000007C0000FF000
001E0000000FC0003FFC00
001E0000000F8000FFFF00
001E0000000F8001FFFF80
001E0000001F8003F81FE0
001E0000001F0007E007F0
001E0000001F000F8001F8
001E0000003F001F0000F8
001E0000003E001E000078
001E0000003E001E000078
001E0000007E001E000078
001E0000007C0000000078
001E0000007C0000000078
001E000000FC0000000078
001E000000F80000000078
001E000000F80000000078
001E000000F80000000078
001E000001F00000000078
001E000001F00000000078
001E000001F00000000078
001E000003F00000000078
001E000003E00000000078
001E000003E00000000078
001E000007E00000000078
001E000007C000000000F8
001E000007C000000001F8
001E00000FC000000003F0
001E00000F800000001FE0
001E00000F80000007FFC0
001E00001F8000003FFF00
301E06001F000000FFFC00
F81E0F801F000001FFF000
7C1E1F003F000003F80000
3F1E3E003E000007E00000
1FFFFC003E00000F800000
0FFFF8007E00001F000000
03FFE0007C00001E000000
00FFC0007C00001E000000
000000007C00001E000000
00000000FC00001E000000
00000000F800001E000000
00000000F800001E000000
00000001F800001E000000
00000001F000001E000000
00000001F000001E000000
00000003F000001E000000
00000003E000001E000000
00000003E000001E000000
00000007E000001E000000
00000007C000001E000000
00000007C000001E000000
0000000FC000001E000000
0000000F8000001E000000
0000000F8000001E000000
0000001F8000001E000000
0000001F0000001E000000
0000001F0000001E000000
0000001F0000001E000000
0000003E0000001E000000
0000003E0000001E000000
0000003E0000001F0000F8
0000007E0000000F8001F8
0000007C00000007E003F0
0000007C00000003F81FE0
000000FC00000001FFFF80
000000F800000000FFFF00
000000F8000000003FFC00
000001F8000000000FF000
ENDCHAR
STARTCHAR 00BE
ENCODING 190
SWIDTH 666 0
DWIDTH 100 0
BBX 84 98 8 0
BITMAP
007F000000000000000000
01FFC000000001F8000000
07FFF000000001F0000000
0FFFF800000001F0000000
1FC1FC00000003F0000000
3F007E00000003E0000000
7C001F00000003E0000000
F8000F80000007E0000000
F0000780000007C0000000
F0000780000007C0000000
F000078000000FC0000000
F000078000000F80000000
0000078000000F80000000
0000078000001F80000000
0000078000001F00000000
0000078000001F00000000
0000078000001F00000000
0000078000003E00000000
0000078000003E00000000
0000078000003E00000000
0000078000007E00000000
0000078000007C00000000
0000078000007C00000000
000007800000FC00000000
000007800000F800000000
00000F800000F800000000
00001F000001F800000000
00003E000001F000000000
0000FC000001F000000000
0007F8000003F000000000
0007E0000003E000038000
0007F0000003E000038000
0007FC000007E000070000
0000FE000007C000070000
00003F000007C000070000
00001F00000FC000070000
00000F80000F80000E0000
00000780000F80000E0000
00000780000F80000E0000
00000780001F80000E0000
00000780001F00001C0000
00000780001F00001C0000
00000780003F00001C0000
00000780003E00001C0000
00000780003E0000380000
00000780007E0000380000
00000780007C0000380000
00000780007C0000380000
0000078000FC0000707800
0000078000F80000707800
0000078000F80000707800
0000078001F80000F07800
0000078001F00000E07800
0000078001F00000E07800
0000078003F00000E07800
0000078003E00001E07800
0000078003E00001C07800
F000078003E00001C07800
F000078007C00001C07800
F000078007C00003C07800
F8000F8007C00003807800
FC001F800FC00003807800
7E003F000F800003807800
3FC1FE000F800007807800
1FFFFC001F800007007800
07FFF0001F000007007800
03FFE0001F000007007800
007F00003F00000F007800
000000003E00000E007800
000000003E00001E007800
000000007E00001E007800
000000007C00001E007800
000000007C00001E007800
00000000FC00001E007800
00000000F800001E007800
00000000F800001E007880
00000000F800001F0078F0
00000001F000000F807BE0
00000001F0000007E07FC0
00000001F0000003F87F80
00000003F0000001FFFF00
00000003E0000000FFFE00
00000003E00000003FF800
00000007E00000000FF800
00000007C0000000007800
00000007C0000000007800
0000000FC0000000007800
0000000F80000000007800
0000000F80000000007800
0000001F80000000007800
0000001F00000000007800
0000001F00000000007800
0000003F00000000007800
0000003E00000000007800
0000003E00000000007800
0000007E00000000007800
0000007C00000000007800
0000007C00000000007800
ENDCHAR
STARTCHAR 00BF
ENCODING 191
SWIDTH 346 0
DWIDTH 52 0
BBX 36 97 8 -15
BITMAP
0003E00000
0003E00000
0003E00000
0003E00000
0003E00000
0003E00000
0003E00000
0003E00000
0003E00000
0003E00000
0000000000
0000000000
0000000000
0000000000
0000000000
0000000000
0000000000
0000000000
0000000000
0000000000
0000000000
0000000000
0000000000
0000000000
0000000000
0003E00000
0003E00000
0003E00000
0003E00000
0003E00000
0003E00000
0003E00000
0003E00000
0003E00000
0003E00000
0003E00000
0003E00000
0003E00000
0003E00000
0003E00000
0003E00000
0003E00000
0003E00000
0003E00000
0003E00000
0003E00000
0003E00000
0003E00000
0003E00000
0003E00000
0003E00000
0007E00000
003FE00000
00FFE00000
01FFE00000
03FFE00000
0FFC000000
1FF0000000
3FC0000000
7F80000000
7E00000000
FC00000000
F800000000
F800000000
F800000000
F800000000
F800000000
F800000000
F800000000
F800000000
F800000000
F800000000
F800000000
F800000000
F800000000
F800000000
F800000000
F800000000
F800000000
F800000000
F800000000
F800000000
F800000000
F800000000
F800000000
F800000380
FC000007F0
7E00000FE0
3F00001FC0
1FC0003F80
1FF000FF00
07FC07FE00
03FFFFFC00
01FFFFF800
007FFFE000
001FFF8000
0003FC0000
ENDCHAR
STARTCHAR 00C0
ENCODING 192
SWIDTH 346 0
DWIDTH 52 0
BBX 36 120 8 0
BITMAP
007C000000
003E000000
003F000000
001F800000
000FC00000
0007C00000
0003E00000
0001F00000
0000F80000
00007C0000
00003E0000
00003F0000
00001F8000
00000F8000
000007C000
000003E000
0000000000
0000000000
0000000000
0000000000
0000000000
0000000000
0000000000
0003FC0000
001FFF8000
007FFFF000
01FFFFF800
03FFFFFE00
0FFC03FF00
1FF000FF80
3FC0003FC0
7F80000FE0
FE000007F0
FC000003F0
F8000001F0
F8000001F0
F8000001F0
F8000001F0
F8000001F0
F8000001F0
F8000001F0
F8000001F0
F8000001F0
F8000001F0
F8000001F0
F8000001F0
F8000001F0
F8000001F0
F8000001F0
F8000001F0
F8000001F0
F8000001F0
F8000001F0
F8000001F0
F8000001F0
F8000001F0
F8000001F0
F8000001F0
F8000001F0
F8000001F0
F8000001F0
F8000001F0
F8000001F0
F8000001F0
FFFFFFFFF0
FFFFFFFFF0
FFFFFFFFF0
FFFFFFFFF0
FFFFFFFFF0
F8000001F0
F8000001F0
F8000001F0
F8000001F0
F8000001F0
F8000001F0
F8000001F0
F8000001F0
F8000001F0
F8000001F0
F8000001F0
F8000001F0
F8000001F0
F8000001F0
F8000001F0
F8000001F0
F8000001F0
F8000001F0
F8000001F0
F8000001F0
F8000001F0
F8000001F0
F8000001F0
F8000001F0
F8000001F0
F8000001F0
F8000001F0
F8000001F0
F8000001F0
F8000001F0
F8000001F0
F8000001F0
F8000001F0
F8000001F0
F8000001F0
F8000001F0
F8000001F0
F8000001F0
F8000001F0
F8000001F0
F8000001F0
F8000001F0
F8000001F0
F8000001F0
F8000001F0
F8000001F0
F8000001F0
F8000001F0
F8000001F0
F8000001F0
F8000001F0
ENDCHAR
STARTCHAR 00C1
ENCODING 193
SWIDTH 346 0
DWIDTH 52 0
BBX 36 120 8 0
BITMAP
000003E000
000007E000
00000FC000
00001F8000
00001F0000
00003E0000
00007C0000
0000F80000
0001F00000
0003F00000
0007E00000
000FC00000
000F800000
001F000000
003E000000
007C000000
0000000000
0000000000
0000000000
0000000000
0000000000
0000000000
0000000000
0003FC0000
001FFF8000
007FFFF000
01FFFFF800
03FFFFFE00
0FFC03FF00
1FF000FF80
3FC0003FC0
7F80000FE0
FE000007F0
FC000003F0
F8000001F0
F8000001F0
F8000001F0
F8000001F0
F8000001F0
F8000001F0
F8000001F0
F8000001F0
F8000001F0
F8000001F0
F8000001F0
F8000001F0
F8000001F0
F8000001F0
F8000001F0
F8000001F0
F8000001F0
F8000001F0
F8000001F0
F8000001F0
F8000001F0
F8000001F0
F8000001F0
F8000001F0
F8000001F0
F8000001F0
F8000001F0
F8000001F0
F8000001F0
F8000001F0
FFFFFFFFF0
FFFFFFFFF0
FFFFFFFFF0
FFFFFFFFF0
FFFFFFFFF0
F8000001F0
F8000001F0
F8000001F0
F8000001F0
F8000001F0
F8000001F0
F8000001F0
F8000001F0
F8000001F0
F8000001F0
F8000001F0
F8000001F0
F8000001F0
F8000001F0
F8000001F0
F8000001F0
F8000001F0
F8000001F0
F8000001F0
F8000001F0
F8000001F0
F8000001F0
F8000001F0
F8000001F0
F8000001F0
F8000001F0
F8000001F0
F8000001F0
F8000001F0
F8000001F0
F8000001F0
F8000001F0
F8000001F0
F8000001F0
F8000001F0
F8000001F0
F8000001F0
F8000001F0
F8000001F0
F8000001F0
F8000001F0
F8000001F0
F8000001F0
F8000001F0
F8000001F0
F8000001F0
F8000001F0
F8000001F0
F8000001F0
F8000001F0
F8000001F0
ENDCHAR
STARTCHAR 00C2
ENCODING 194
SWIDTH 346 0
DWIDTH 52 0
BBX 36 120 8 0
BITMAP
0001F80000
0001FC0000
0003FC0000
0007FE0000
0007FF0000
000FFF0000
001F9F8000
001F0F8000
003F0FC000
007E07E000
007C03E000
00FC03F000
01F801F800
01F000F800
03E0007C00
07E0007C00
0000003E00
0000000000
0000000000
0000000000
0000000000
0000000000
0000000000
0003FC0000
001FFF8000
007FFFF000
01FFFFF800
03FFFFFE00
0FFE03FF00
1FF000FF80
3FC0003FC0
7F80001FE0
FF000007F0
FC000003F0
F8000001F0
F8000001F0
F8000001F0
F8000001F0
F8000001F0
F8000001F0
F8000001F0
F8000001F0
F8000001F0
F8000001F0
F8000001F0
F8000001F0
F8000001F0
F8000001F0
F8000001F0
F8000001F0
F8000001F0
F8000001F0
F8000001F0
F8000001F0
F8000001F0
F8000001F0
F8000001F0
F8000001F0
F8000001F0
F8000001F0
F8000001F0
F8000001F0
F8000001F0
F8000001F0
FFFFFFFFF0
FFFFFFFFF0
FFFFFFFFF0
FFFFFFFFF0
FFFFFFFFF0
F8000001F0
F8000001F0
F8000001F0
F8000001F0
F8000001F0
F8000001F0
F8000001F0
F8000001F0
F8000001F0
F8000001F0
F8000001F0
F8000001F0
F8000001F0
F8000001F0
F8000001F0
F8000001F0
F8000001F0
F8000001F0
F8000001F0
F8000001F0
F8000001F0
F8000001F0
F8000001F0
F8000001F0
F8000001F0
F8000001F0
F8000001F0
F8000001F0
F8000001F0
F8000001F0
F8000001F0
F8000001F0
F8000001F0
F8000001F0
F8000001F0
F8000001F0
F8000001F0
F8000001F0
F8000001F0
F8000001F0
F8000001F0
F8000001F0
F8000001F0
F8000001F0
F8000001F0
F8000001F0
F8000001F0
F8000001F0
F8000001F0
F8000001F0
F8000001F0
ENDCHAR
STARTCHAR 00C3
ENCODING 195
SWIDTH 346 0
DWIDTH 52 0
BBX 36 115 8 0
BITMAP
007E000000
01FFC00300
07FFF00F80
1FFFFE3FE0
7FFFFFFFE0
3FC3FFFF80
1F007FFE00
0C001FF800
000003E000
0000000000
0000000000
0000000000
0000000000
0000000000
0000000000
0000000000
0000000000
0000000000
0003FC0000
001FFF8000
007FFFF000
01FFFFF800
03FFFFFE00
0FFC03FF00
1FF000FF80
3FC0003FC0
7F80000FE0
FE000007F0
FC000003F0
F8000001F0
F8000001F0
F8000001F0
F8000001F0
F8000001F0
F8000001F0
F8000001F0
F8000001F0
F8000001F0
F8000001F0
F8000001F0
F8000001F0
F8000001F0
F8000001F0
F8000001F0
F8000001F0
F8000001F0
F8000001F0
F8000001F0
F8000001F0
F8000001F0
F8000001F0
F8000001F0
F8000001F0
F8000001F0
F8000001F0
F8000001F0
F8000001F0
F8000001F0
F8000001F0
FFFFFFFFF0
FFFFFFFFF0
FFFFFFFFF0
FFFFFFFFF0
FFFFFFFFF0
F8000001F0
F8000001F0
F8000001F0
F8000001F0
F8000001F0
F8000001F0
F8000001F0
F8000001F0
F8000001F0
F8000001F0
F8000001F0
F8000001F0
F8000001F0
F8000001F0
F8000001F0
F8000001F0
F8000001F0
F8000001F0
F8000001F0
F8000001F0
F8000001F0
F8000001F0
F8000001F0
F8000001F0
F8000001F0
F8000001F0
F8000001F0
F8000001F0
F8000001F0
F8000001F0
F8000001F0
F8000001F0
F8000001F0
F8000001F0
F8000001F0
F8000001F0
F8000001F0
F8000001F0
F8000001F0
F8000001F0
F8000001F0
F8000001F0
F8000001F0
F8000001F0
F8000001F0
F8000001F0
F8000001F0
F8000001F0
F8000001F0
F8000001F0
F8000001F0
ENDCHAR
STARTCHAR 00C4
ENCODING 196
SWIDTH 346 0
DWIDTH 52 0
BBX 36 115 8 0
BITMAP
00F801F000
00F801F000
00F801F000
00F801F000
00F801F000
00F801F000
00F801F000
00F801F000
00F801F000
00F801F000
0000000000
0000000000
0000000000
0000000000
0000000000
0000000000
0000000000
0000000000
0003FC0000
001FFF8000
007FFFF000
01FFFFF800
03FFFFFE00
0FFC03FF00
1FF000FF80
3FC0003FC0
7F80000FE0
FE000007F0
FC000003F0
F8000001F0
F8000001F0
F8000001F0
F8000001F0
F8000001F0
F8000001F0
F8000001F0
F8000001F0
F8000001F0
F8000001F0
F8000001F0
F8000001F0
F8000001F0
F8000001F0
F8000001F0
F8000001F0
F8000001F0
F8000001F0
F8000001F0
F8000001F0
F8000001F0
F8000001F0
F8000001F0
F8000001F0
F8000001F0
F8000001F0
F8000001F0
F8000001F0
F8000001F0
F8000001F0
FFFFFFFFF0
FFFFFFFFF0
FFFFFFFFF0
FFFFFFFFF0
FFFFFFFFF0
F8000001F0
F8000001F0
F8000001F0
F8000001F0
F8000001F0
F8000001F0
F8000001F0
F8000001F0
F8000001F0
F8000001F0
F8000001F0
F8000001F0
F8000001F0
F8000001F0
F8000001F0
F8000001F0
F8000001F0
F8000001F0
F8000001F0
F8000001F0
F8000001F0
F8000001F0
F8000001F0
F8000001F0
F8000001F0
F8000001F0
F8000001F0
F8000001F0
F8000001F0
F8000001F0
F8000001F0
F8000001F0
F8000001F0
F8000001F0
F8000001F0
F8000001F0
F8000001F0
F8000001F0
F8000001F0
F8000001F0
F8000001F0
F8000001F0
F8000001F0
F8000001F0
F8000001F0
F8000001F0
F8000001F0
F8000001F0
F8000001F0
F8000001F0
F8000001F0
ENDCHAR
STARTCHAR 00C5
ENCODING 197
SWIDTH 346 0
DWIDTH 52 0
BBX 36 119 8 0
BITMAP
0003F80000
000FFE0000
001FFF0000
003FFF8000
007FFFC000
00FE1FE000
00FC07E000
01F803F000
03F001F800
07F001FC00
07E000FC00
07C0007C00
07C0007C00
07C0007C00
07C0007C00
07C0007C00
07E0007C00
07E000FC00
07F001FC00
03F803F800
01F807F800
01FE0FF000
00FFFFE000
007FFFC000
007FFFF000
01FFFFF800
03FFFFFE00
0FFC03FF00
1FF000FF80
3FC0003FC0
7F80000FE0
FE000007F0
FC000003F0
F8000001F0
F8000001F0
F8000001F0
F8000001F0
F8000001F0
F8000001F0
F8000001F0
F8000001F0
F8000001F0
F8000001F0
F8000001F0
F8000001F0
F8000001F0
F8000001F0
F8000001F0
F8000001F0
F8000001F0
F8000001F0
F8000001F0
F8000001F0
F8000001F0
F8000001F0
F8000001F0
F8000001F0
F8000001F0
F8000001F0
F8000001F0
F8000001F0
F8000001F0
F8000001F0
FFFFFFFFF0
FFFFFFFFF0
FFFFFFFFF0
FFFFFFFFF0
FFFFFFFFF0
F8000001F0
F8000001F0
F8000001F0
F8000001F0
F8000001F0
F8000001F0
F8000001F0
F8000001F0
F8000001F0
F8000001F0
F8000001F0
F8000001F0
F8000001F0
F8000001F0
F8000001F0
F8000001F0
F8000001F0
F8000001F0
F8000001F0
F8000001F0
F8000001F0
F8000001F0
F8000001F0
F8000001F0
F8000001F0
F8000001F0
F8000001F0
F8000001F0
F8000001F0
F8000001F0
F8000001F0
F8000001F0
F8000001F0
F8000001F0
F8000001F0
F8000001F0
F8000001F0
F8000001F0
F8000001F0
F8000001F0
F8000001F0
F8000001F0
F8000001F0
F8000001F0
F8000001F0
F8000001F0
F8000001F0
F8000001F0
F8000001F0
F8000001F0
F8000001F0
ENDCHAR
STARTCHAR 00C6
ENCODING 198
SWIDTH 553 0
DWIDTH 83 0
BBX 67 97 8 0
BITMAP
0003FC00000FF80000
001FFF80007FFF0000
007FFFE001FFFFC000
01FFFFF803FFFFF000
03FFFFFC0FFFFFF800
0FFE03FF1FF80FFC00
1FF000FFBFE001FE00
3FC0003FFF80007F00
7F80000FFF00003F80
FE000007FC00000FC0
FC000003F800000780
F8000001F000000000
F8000001F000000000
F8000001F000000000
F8000001F000000000
F8000001F000000000
F8000001F000000000
F8000001F000000000
F8000001F000000000
F8000001F000000000
F8000001F000000000
F8000001F000000000
F8000001F000000000
F8000001F000000000
F8000001F000000000
F8000001F000000000
F8000001F000000000
F8000001F000000000
F8000001F000000000
F8000001F000000000
F8000001F000000000
F8000001F000000000
F8000001F000000000
F8000001F000000000
F8000001F000000000
F8000001F000000000
F8000001F000000000
F8000001F000000000
F8000001F000000000
F8000001F000000000
F8000001F000000000
FFFFFFFFFFFFFF8000
FFFFFFFFFFFFFF8000
FFFFFFFFFFFFFF8000
FFFFFFFFFFFFFF8000
FFFFFFFFFFFFFF8000
F8000001F000000000
F8000001F000000000
F8000001F000000000
F8000001F000000000
F8000001F000000000
F8000001F000000000
F8000001F000000000
F8000001F000000000
F8000001F000000000
F8000001F000000000
F8000001F000000000
F8000001F000000000
F8000001F000000000
F8000001F000000000
F8000001F000000000
F8000001F000000000
F8000001F000000000
F8000001F000000000
F8000001F000000000
F8000001F000000000
F8000001F000000000
F8000001F000000000
F8000001F000000000
F8000001F000000000
F8000001F000000000
F8000001F000000000
F8000001F000000000
F8000001F000000000
F8000001F000000000
F8000001F000000000
F8000001F000000000
F8000001F000000000
F8000001F000000000
F8000001F000000000
F8000001F000000000
F8000001F000000000
F8000001F000000000
F8000001F000000000
F8000001F000000000
F8000001F000000600
F8000001F800000FE0
F8000000FC00001FC0
F80000007E00003F80
F80000007F80007F00
F80000003FE001FE00
F80000000FF80FFC00
F800000007FFFFF800
F800000003FFFFF000
F800000000FFFFC000
F8000000003FFF0000
F80000000007F80000
ENDCHAR
STARTCHAR 00C7
ENCODING 199
SWIDTH 346 0
DWIDTH 52 0
BBX 36 124 8 -27
BITMAP
0003FC0000
001FFF8000
007FFFE000
01FFFFF800
03FFFFFC00
0FFC03FE00
1FF000FF80
3FC0003FC0
7F80001FC0
FE000007E0
FC000003E0
F800000000
F800000000
F800000000
F800000000
F800000000
F800000000
F800000000
F800000000
F800000000
F800000000
F800000000
F800000000
F800000000
F800000000
F800000000
F800000000
F800000000
F800000000
F800000000
F800000000
F800000000
F800000000
F800000000
F800000000
F800000000
F800000000
F800000000
F800000000
F800000000
F800000000
F800000000
F800000000
F800000000
F800000000
F800000000
F800000000
F800000000
F800000000
F800000000
F800000000
F800000000
F800000000
F800000000
F800000000
F800000000
F800000000
F800000000
F800000000
F800000000
F800000000
F800000000
F800000000
F800000000
F800000000
F800000000
F800000000
F800000000
F800000000
F800000000
F800000000
F800000000
F800000000
F800000000
F800000000
F800000000
F800000000
F800000000
F800000000
F800000000
F800000000
F800000000
F800000000
F800000000
F800000000
F800000300
FC000003F0
7E00000FE0
3F00001FC0
3FC0003F80
1FF000FF00
07FC03FE00
03FFFFFC00
01FFFFF800
007FFFE000
001FFF8000
0007FC0000
0007C00000
0007F00000
0007FC0000
0007FF0000
0007FF8000
00007FC000
00001FF000
000007F800
000001FC00
000000FC00
0000007E00
0000003E00
0000003E00
0000003E00
0000003E00
0000003E00
0000007E00
000000FE00
000001FC00
000007F800
00001FF000
00007FE000
0007FF8000
0007FF0000
0007FC0000
0007F00000
0007800000
ENDCHAR
STARTCHAR 00C8
ENCODING 200
SWIDTH 346 0
DWIDTH 52 0
BBX 36 120 8 0
BITMAP
007C000000
003E000000
003F000000
001F800000
000FC00000
0007C00000
0003E00000
0001F00000
0000F80000
00007C0000
00003E0000
00003F0000
00001F8000
00000F8000
000007C000
000003E000
0000000000
0000000000
0000000000
0000000000
0000000000
0000000000
0000000000
0003FC0000
001FFF8000
007FFFE000
01FFFFF800
03FFFFFC00
0FFC03FF00
1FF000FF80
3FC0003FC0
7F00000FE0
FE000007E0
FC000003C0
F800000000
F800000000
F800000000
F800000000
F800000000
F800000000
F800000000
F800000000
F800000000
F800000000
F800000000
F800000000
F800000000
F800000000
F800000000
F800000000
F800000000
F800000000
F800000000
F800000000
F800000000
F800000000
F800000000
F800000000
F800000000
F800000000
F800000000
F800000000
F800000000
F800000000
FFFFFFC000
FFFFFFC000
FFFFFFC000
FFFFFFC000
FFFFFFC000
F800000000
F800000000
F800000000
F800000000
F800000000
F800000000
F800000000
F800000000
F800000000
F800000000
F800000000
F800000000
F800000000
F800000000
F800000000
F800000000
F800000000
F800000000
F800000000
F800000000
F800000000
F800000000
F800000000
F800000000
F800000000
F800000000
F800000000
F800000000
F800000000
F800000000
F800000000
F800000000
F800000000
F800000000
F800000000
F800000000
F800000000
F800000000
F800000000
F800000380
FC000007F0
7E00000FE0
3F00001FC0
1FC0003F80
1FF000FF00
07FC07FE00
03FFFFFC00
01FFFFF800
007FFFE000
001FFF8000
0003FC0000
ENDCHAR
STARTCHAR 00C9
ENCODING 201
SWIDTH 346 0
DWIDTH 52 0
BBX 36 120 8 0
BITMAP
000003E000
000007E000
00000FC000
00001F8000
00001F0000
00003E0000
00007C0000
0000F80000
0001F00000
0003F00000
0007E00000
000FC00000
000F800000
001F000000
003E000000
007C000000
0000000000
0000000000
0000000000
0000000000
0000000000
0000000000
0000000000
0003FC0000
001FFF8000
007FFFE000
01FFFFF800
03FFFFFC00
0FFC03FF00
1FF000FF80
3FC0003FC0
7F00000FE0
FE000007E0
FC000003C0
F800000000
F800000000
F800000000
F800000000
F800000000
F800000000
F800000000
F800000000
F800000000
F800000000
F800000000
F800000000
F800000000
F800000000
F800000000
F800000000
F800000000
F800000000
F800000000
F800000000
F800000000
F800000000
F800000000
F800000000
F800000000
F800000000
F800000000
F800000000
F800000000
F800000000
FFFFFFC000
FFFFFFC000
FFFFFFC000
FFFFFFC000
FFFFFFC000
F800000000
F800000000
F800000000
F800000000
F800000000
F800000000
F800000000
F800000000
F800000000
F800000000
F800000000
F800000000
F800000000
F800000000
F800000000
F800000000
F800000000
F800000000
F800000000
F800000000
F800000000
F800000000
F800000000
F800000000
F800000000
F800000000
F800000000
F800000000
F800000000
F800000000
F800000000
F800000000
F800000000
F800000000
F800000000
F800000000
F800000000
F800000000
F800000000
F800000380
FC000007F0
7E00000FE0
3F00001FC0
1FC0003F80
1FF000FF00
07FC07FE00
03FFFFFC00
01FFFFF800
007FFFE000
001FFF8000
0003FC0000
ENDCHAR
STARTCHAR 00CA
ENCODING 202
SWIDTH 346 0
DWIDTH 52 0
BBX 36 120 8 0
BITMAP
0001F80000
0003F80000
0003FC0000
0007FE0000
000FFE0000
000FFF0000
001F9F8000
001F8F8000
003F0FC000
007E07C000
007C03E000
00FC01F000
01F801F000
01F000F800
03F0007C00
07E0007C00
0000003E00
0000000000
0000000000
0000000000
0000000000
0000000000
0000000000
0003FC0000
001FFF8000
007FFFE000
01FFFFF800
03FFFFFC00
0FFE03FF00
1FF000FF80
3FC0003FC0
7F80000FE0
FF000007E0
FC000003C0
F800000000
F800000000
F800000000
F800000000
F800000000
F800000000
F800000000
F800000000
F800000000
F800000000
F800000000
F800000000
F800000000
F800000000
F800000000
F800000000
F800000000
F800000000
F800000000
F800000000
F800000000
F800000000
F800000000
F800000000
F800000000
F800000000
F800000000
F800000000
F800000000
F800000000
FFFFFFC000
FFFFFFC000
FFFFFFC000
FFFFFFC000
FFFFFFC000
F800000000
F800000000
F800000000
F800000000
F800000000
F800000000
F800000000
F800000000
F800000000
F800000000
F800000000
F800000000
F800000000
F800000000
F800000000
F800000000
F800000000
F800000000
F800000000
F800000000
F800000000
F800000000
F800000000
F800000000
F800000000
F800000000
F800000000
F800000000
F800000000
F800000000
F800000000
F800000000
F800000000
F800000000
F800000000
F800000000
F800000000
F800000000
F800000000
FC00000380
FE000007F0
7F00000FE0
3F80001FC0
1FC0003F80
1FF000FF00
07FC03FE00
03FFFFFC00
01FFFFF800
007FFFE000
001FFF8000
0003FC0000
ENDCHAR
STARTCHAR 00CB
ENCODING 203
SWIDTH 346 0
DWIDTH 52 0
BBX 36 115 8 0
BITMAP
00F801F000
00F801F000
00F801F000
00F801F000
00F801F000
00F801F000
00F801F000
00F801F000
00F801F000
00F801F000
0000000000
0000000000
0000000000
0000000000
0000000000
0000000000
0000000000
0000000000
0003FC0000
001FFF8000
007FFFE000
01FFFFF800
03FFFFFC00
0FFC03FF00
1FF000FF80
3FC0003FC0
7F00000FE0
FE000007E0
FC000003C0
F800000000
F800000000
F800000000
F800000000
F800000000
F800000000
F800000000
F800000000
F800000000
F800000000
F800000000
F800000000
F800000000
F800000000
F800000000
F800000000
F800000000
F800000000
F800000000
F800000000
F800000000
F800000000
F800000000
F800000000
F800000000
F800000000
F800000000
F800000000
F800000000
F800000000
FFFFFFC000
FFFFFFC000
FFFFFFC000
FFFFFFC000
FFFFFFC000
F800000000
F800000000
F800000000
F800000000
F800000000
F800000000
F800000000
F800000000
F800000000
F800000000
F800000000
F800000000
F800000000
F800000000
F800000000
F800000000
F800000000
F800000000
F800000000
F800000000
F800000000
F800000000
F800000000
F800000000
F800000000
F800000000
F800000000
F800000000
F800000000
F800000000
F800000000
F800000000
F800000000
F800000000
F800000000
F800000000
F800000000
F800000000
F800000000
F800000380
FC000007F0
7E00000FE0
3F00001FC0
1FC0003F80
1FF000FF00
07FC07FE00
03FFFFFC00
01FFFFF800
007FFFE000
001FFF8000
0003FC0000
ENDCHAR
STARTCHAR 00CC
ENCODING 204
SWIDTH 233 0
DWIDTH 35 0
BBX 19 120 8 0
BITMAP
FC0000
7E0000
3F0000
1F0000
0F8000
07C000
03E000
01F000
01F800
00FC00
007E00
003E00
001F00
000F80
0007C0
0003E0
000000
000000
000000
000000
000000
000000
000000
01F000
01F000
01F000
01F000
01F000
01F000
01F000
01F000
01F000
01F000
01F000
01F000
01F000
01F000
01F000
01F000
01F000
01F000
01F000
01F000
01F000
01F000
01F000
01F000
01F000
01F000
01F000
01F000
01F000
01F000
01F000
01F000
01F000
01F000
01F000
01F000
01F000
01F000
01F000
01F000
01F000
01F000
01F000
01F000
01F000
01F000
01F000
01F000
01F000
01F000
01F000
01F000
01F000
01F000
01F000
01F000
01F000
01F000
01F000
01F000
01F000
01F000
01F000
01F000
01F000
01F000
01F000
01F000
01F000
01F000
01F000
01F000
01F000
01F000
01F000
01F000
01F000
01F000
01F000
01F000
01F000
01F000
01F000
01F000
01F000
01F000
01F000
01F000
01F000
01F000
01F000
01F000
01F000
01F000
01F000
01F000
01F000
ENDCHAR
STARTCHAR 00CD
ENCODING 205
SWIDTH 233 0
DWIDTH 35 0
BBX 18 120 9 0
BITMAP
0007C0
000F80
001F80
003F00
007E00
00FC00
00F800
01F000
03E000
07C000
0F8000
1F8000
3F0000
7E0000
FC0000
F80000
000000
000000
000000
000000
000000
000000
000000
03E000
03E000
03E000
03E000
03E000
03E000
03E000
03E000
03E000
03E000
03E000
03E000
03E000
03E000
03E000
03E000
03E000
03E000
03E000
03E000
03E000
03E000
03E000
03E000
03E000
03E000
03E000
03E000
03E000
03E000
03E000
03E000
03E000
03E000
03E000
03E000
03E000
03E000
03E000
03E000
03E000
03E000
03E000
03E000
03E000
03E000
03E000
03E000
03E000
03E000
03E000
03E000
03E000
03E000
03E000
03E000
03E000
03E000
03E000
03E000
03E000
03E000
03E000
03E000
03E000
03E000
03E000
03E000
03E000
03E000
03E000
03E000
03E000
03E000
03E000
03E000
03E000
03E000
03E000
03E000
03E000
03E000
03E000
03E000
03E000
03E000
03E000
03E000
03E000
03E000
03E000
03E000
03E000
03E000
03E000
03E000
03E000
ENDCHAR
STARTCHAR 00CE
ENCODING 206
SWIDTH 280 0
DWIDTH 42 0
BBX 26 120 8 0
BITMAP
003E0000
007F0000
007F8000
00FF8000
01FFC000
01FFE000
03F3E000
07E3F000
07E1F800
0FC0F800
0F80FC00
1F007E00
3F003E00
3E001F00
7C001F00
FC000F80
000007C0
00000000
00000000
00000000
00000000
00000000
00000000
003E0000
003E0000
003E0000
003E0000
003E0000
003E0000
003E0000
003E0000
003E0000
003E0000
003E0000
003E0000
003E0000
003E0000
003E0000
003E0000
003E0000
003E0000
003E0000
003E0000
003E0000
003E0000
003E0000
003E0000
003E0000
003E0000
003E0000
003E0000
003E0000
003E0000
003E0000
003E0000
003E0000
003E0000
003E0000
003E0000
003E0000
003E0000
003E0000
003E0000
003E0000
003E0000
003E0000
003E0000
003E0000
003E0000
003E0000
003E0000
003E0000
003E0000
003E0000
003E0000
003E0000
003E0000
003E0000
003E0000
003E0000
003E0000
003E0000
003E0000
003E0000
003E0000
003E0000
003E0000
003E0000
003E0000
003E0000
003E0000
003E0000
003E0000
003E0000
003E0000
003E0000
003E0000
003E0000
003E0000
003E0000
003E0000
003E0000
003E0000
003E0000
003E0000
003E0000
003E0000
003E0000
003E0000
003E0000
003E0000
003E0000
003E0000
003E0000
003E0000
003E0000
003E0000
003E0000
003E0000
003E0000
ENDCHAR
STARTCHAR 00CF
ENCODING 207
SWIDTH 240 0
DWIDTH 36 0
BBX 21 115 8 0
BITMAP
F800F8
F800F8
F800F8
F800F8
F800F8
F800F8
F800F8
F800F8
F800F8
F800F8
000000
000000
000000
000000
000000
000000
000000
000000
00F800
00F800
00F800
00F800
00F800
00F800
00F800
00F800
00F800
00F800
00F800
00F800
00F800
00F800
00F800
00F800
00F800
00F800
00F800
00F800
00F800
00F800
00F800
00F800
00F800
00F800
00F800
00F800
00F800
00F800
00F800
00F800
00F800
00F800
00F800
00F800
00F800
00F800
00F800
00F800
00F800
00F800
00F800
00F800
00F800
00F800
00F800
00F800
00F800
00F800
00F800
00F800
00F800
00F800
00F800
00F800
00F800
00F800
00F800
00F800
00F800
00F800
00F800
00F800
00F800
00F800
00F800
00F800
00F800
00F800
00F800
00F800
00F800
00F800
00F800
00F800
00F800
00F800
00F800
00F800
00F800
00F800
00F800
00F800
00F800
00F800
00F800
00F800
00F800
00F800
00F800
00F800
00F800
00F800
00F800
00F800
00F800
ENDCHAR
STARTCHAR 00D0
ENCODING 208
SWIDTH 380 0
DWIDTH 57 0
BBX 41 97 8 0
BITMAP
07FFFFE00000
07FFFFFE0000
07FFFFFF8000
07FFFFFFC000
07FFFFFFF000
07C0001FF800
07C00007FC00
07C00001FE00
07C000007F00
07C000003F80
07C000001F80
07C000000F80
07C000000F80
07C000000F80
07C000000F80
07C000000F80
07C000000F80
07C000000F80
07C000000F80
07C000000F80
07C000000F80
07C000000F80
07C000000F80
07C000000F80
07C000000F80
07C000000F80
07C000000F80
07C000000F80
07C000000F80
07C000000F80
07C000000F80
07C000000F80
07C000000F80
07C000000F80
07C000000F80
07C000000F80
07C000000F80
07C000000F80
07C000000F80
07C000000F80
07C000000F80
FFFFFFC00F80
FFFFFFC00F80
FFFFFFC00F80
FFFFFFC00F80
FFFFFFC00F80
07C000000F80
07C000000F80
07C000000F80
07C000000F80
07C000000F80
07C000000F80
07C000000F80
07C000000F80
07C000000F80
07C000000F80
07C000000F80
07C000000F80
07C000000F80
07C000000F80
07C000000F80
07C000000F80
07C000000F80
07C000000F80
07C000000F80
07C000000F80
07C000000F80
07C000000F80
07C000000F80
07C000000F80
07C000000F80
07C000000F80
07C000000F80
07C000000F80
07C000000F80
07C000000F80
07C000000F80
07C000000F80
07C000000F80
07C000000F80
07C000000F80
07C000000F80
07C000000F80
07C000000F80
07C000000F80
07C000000F80
07C000001F80
07C000003F80
07C000007F00
07C00001FE00
07C00007FC00
07C0001FF800
07FFFFFFE000
07FFFFFFC000
07FFFFFF0000
07FFFFFC0000
07FFFFE00000
ENDCHAR
STARTCHAR 00D1
ENCODING 209
SWIDTH 346 0
DWIDTH 52 0
BBX 36 115 8 0
BITMAP
007E000000
01FFC00300
07FFF00F80
1FFFFE3FE0
7FFFFFFFE0
3FC3FFFF80
1F007FFE00
0C001FF800
000003E000
0000000000
0000000000
0000000000
0000000000
0000000000
0000000000
0000000000
0000000000
0000000000
0003FC0000
001FFF8000
007FFFF000
01FFFFF800
03FFFFFE00
0FFC03FF00
1FF000FF80
3FC0003FC0
7F80000FE0
FE000007F0
FC000003F0
F8000001F0
F8000001F0
F8000001F0
F8000001F0
F8000001F0
F8000001F0
F8000001F0
F8000001F0
F8000001F0
F8000001F0
F8000001F0
F8000001F0
F8000001F0
F8000001F0
F8000001F0
F8000001F0
F8000001F0
F8000001F0
F8000001F0
F8000001F0
F8000001F0
F8000001F0
F8000001F0
F8000001F0
F8000001F0
F8000001F0
F8000001F0
F8000001F0
F8000001F0
F8000001F0
F8000001F0
F8000001F0
F8000001F0
F8000001F0
F8000001F0
F8000001F0
F8000001F0
F8000001F0
F8000001F0
F8000001F0
F8000001F0
F8000001F0
F8000001F0
F8000001F0
F8000001F0
F8000001F0
F8000001F0
F8000001F0
F8000001F0
F8000001F0
F8000001F0
F8000001F0
F8000001F0
F8000001F0
F8000001F0
F8000001F0
F8000001F0
F8000001F0
F8000001F0
F8000001F0
F8000001F0
F8000001F0
F8000001F0
F8000001F0
F8000001F0
F8000001F0
F8000001F0
F8000001F0
F8000001F0
F8000001F0
F8000001F0
F8000001F0
F8000001F0
F8000001F0
F8000001F0
F8000001F0
F8000001F0
F8000001F0
F8000001F0
F8000001F0
F8000001F0
F8000001F0
F8000001F0
F8000001F0
F8000001F0
F8000001F0
ENDCHAR
STARTCHAR 00D2
ENCODING 210
SWIDTH 346 0
DWIDTH 52 0
BBX 36 120 8 0
BITMAP
007C000000
003E000000
003F000000
001F800000
000FC00000
0007C00000
0003E00000
0001F00000
0000F80000
00007C0000
00003E0000
00003F0000
00001F8000
00000F8000
000007C000
000003E000
0000000000
0000000000
0000000000
0000000000
0000000000
0000000000
0000000000
0003FC0000
001FFF8000
007FFFF000
01FFFFF800
03FFFFFE00
0FFC03FF00
1FF000FF80
3FC0003FC0
7F80000FE0
FE000007F0
FC000003F0
F8000001F0
F8000001F0
F8000001F0
F8000001F0
F8000001F0
F8000001F0
F8000001F0
F8000001F0
F8000001F0
F8000001F0
F8000001F0
F8000001F0
F8000001F0
F8000001F0
F8000001F0
F8000001F0
F8000001F0
F8000001F0
F8000001F0
F8000001F0
F8000001F0
F8000001F0
F8000001F0
F8000001F0
F8000001F0
F8000001F0
F8000001F0
F8000001F0
F8000001F0
F8000001F0
F8000001F0
F8000001F0
F8000001F0
F8000001F0
F8000001F0
F8000001F0
F8000001F0
F8000001F0
F8000001F0
F8000001F0
F8000001F0
F8000001F0
F8000001F0
F8000001F0
F8000001F0
F8000001F0
F8000001F0
F8000001F0
F8000001F0
F8000001F0
F8000001F0
F8000001F0
F8000001F0
F8000001F0
F8000001F0
F8000001F0
F8000001F0
F8000001F0
F8000001F0
F8000001F0
F8000001F0
F8000001F0
F8000001F0
F8000001F0
F8000001F0
F8000001F0
F8000001F0
F8000001F0
F8000001F0
F8000001F0
F8000001F0
F8000001F0
F8000001F0
F8000001F0
F8000001F0
FC000003F0
7E000007E0
3F80000FE0
1FC0003FC0
0FF000FF80
07FC03FF00
03FFFFFC00
01FFFFF800
007FFFE000
001FFF8000
0003FC0000
ENDCHAR
STARTCHAR 00D3
ENCODING 211
SWIDTH 346 0
DWIDTH 52 0
BBX 36 120 8 0
BITMAP
000003E000
000007E000
00000FC000
00001F8000
00001F0000
00003E0000
00007C0000
0000F80000
0001F00000
0003F00000
0007E00000
000FC00000
000F800000
001F000000
003E000000
007C000000
0000000000
0000000000
0000000000
0000000000
0000000000
0000000000
0000000000
0003FC0000
001FFF8000
007FFFF000
01FFFFF800
03FFFFFE00
0FFC03FF00
1FF000FF80
3FC0003FC0
7F80000FE0
FE000007F0
FC000003F0
F8000001F0
F8000001F0
F8000001F0
F8000001F0
F8000001F0
F8000001F0
F8000001F0
F8000001F0
F8000001F0
F8000001F0
F8000001F0
F8000001F0
F8000001F0
F8000001F0
F8000001F0
F8000001F0
F8000001F0
F8000001F0
F8000001F0
F8000001F0
F8000001F0
F8000001F0
F8000001F0
F8000001F0
F8000001F0
F8000001F0
F8000001F0
F8000001F0
F8000001F0
F8000001F0
F8000001F0
F8000001F0
F8000001F0
F8000001F0
F8000001F0
F8000001F0
F8000001F0
F8000001F0
F8000001F0
F8000001F0
F8000001F0
F8000001F0
F8000001F0
F8000001F0
F8000001F0
F8000001F0
F8000001F0
F8000001F0
F8000001F0
F8000001F0
F8000001F0
F8000001F0
F8000001F0
F8000001F0
F8000001F0
F8000001F0
F8000001F0
F8000001F0
F8000001F0
F8000001F0
F8000001F0
F8000001F0
F8000001F0
F8000001F0
F8000001F0
F8000001F0
F8000001F0
F8000001F0
F8000001F0
F8000001F0
F8000001F0
F8000001F0
F8000001F0
F8000001F0
F8000001F0
FC000003F0
7E000007E0
3F80000FE0
1FC0003FC0
0FF000FF80
07FC03FF00
03FFFFFC00
01FFFFF800
007FFFE000
001FFF8000
0003FC0000
ENDCHAR
STARTCHAR 00D4
ENCODING 212
SWIDTH 346 0
DWIDTH 52 0
BBX 36 120 8 0
BITMAP
0001F80000
0001FC0000
0003FC0000
0007FE0000
0007FF0000
000FFF0000
001F9F8000
001F0F8000
003F0FC000
007E07E000
007C03E000
00FC03F000
01F801F800
01F000F800
03E0007C00
07E0007C00
0000003E00
0000000000
0000000000
0000000000
0000000000
0000000000
0000000000
0003FC0000
001FFF8000
007FFFF000
01FFFFF800
03FFFFFE00
0FFE03FF00
1FF000FF80
3FC0003FC0
7F80001FE0
FE000007F0
FC000003F0
F8000001F0
F8000001F0
F8000001F0
F8000001F0
F8000001F0
F8000001F0
F8000001F0
F8000001F0
F8000001F0
F8000001F0
F8000001F0
F8000001F0
F8000001F0
F8000001F0
F8000001F0
F8000001F0
F8000001F0
F8000001F0
F8000001F0
F8000001F0
F8000001F0
F8000001F0
F8000001F0
F8000001F0
F8000001F0
F8000001F0
F8000001F0
F8000001F0
F8000001F0
F8000001F0
F8000001F0
F8000001F0
F8000001F0
F8000001F0
F8000001F0
F8000001F0
F8000001F0
F8000001F0
F8000001F0
F8000001F0
F8000001F0
F8000001F0
F8000001F0
F8000001F0
F8000001F0
F8000001F0
F8000001F0
F8000001F0
F8000001F0
F8000001F0
F8000001F0
F8000001F0
F8000001F0
F8000001F0
F8000001F0
F8000001F0
F8000001F0
F8000001F0
F8000001F0
F8000001F0
F8000001F0
F8000001F0
F8000001F0
F8000001F0
F8000001F0
F8000001F0
F8000001F0
F8000001F0
F8000001F0
F8000001F0
F8000001F0
F8000001F0
F8000001F0
F8000001F0
FC000001F0
FE000003F0
7F000007E0
3F80001FE0
1FC0003FC0
0FF000FF80
07FC03FF00
03FFFFFC00
01FFFFF800
007FFFE000
001FFF8000
0003FC0000
ENDCHAR
STARTCHAR 00D5
ENCODING 213
SWIDTH 346 0
DWIDTH 52 0
BBX 36 115 8 0
BITMAP
007E000000
01FFC00300
07FFF00F80
1FFFFE3FE0
7FFFFFFFE0
3FC3FFFF80
1F007FFE00
0C001FF800
000003E000
0000000000
0000000000
0000000000
0000000000
0000000000
0000000000
0000000000
0000000000
0000000000
0003FC0000
001FFF8000
007FFFF000
01FFFFF800
03FFFFFE00
0FFC03FF00
1FF000FF80
3FC0003FC0
7F80000FE0
FE000007F0
FC000003F0
F8000001F0
F8000001F0
F8000001F0
F8000001F0
F8000001F0
F8000001F0
F8000001F0
F8000001F0
F8000001F0
F8000001F0
F8000001F0
F8000001F0
F8000001F0
F8000001F0
F8000001F0
F8000001F0
F8000001F0
F8000001F0
F8000001F0
F8000001F0
F8000001F0
F8000001F0
F8000001F0
F8000001F0
F8000001F0
F8000001F0
F8000001F0
F8000001F0
F8000001F0
F8000001F0
F8000001F0
F8000001F0
F8000001F0
F8000001F0
F8000001F0
F8000001F0
F8000001F0
F8000001F0
F8000001F0
F8000001F0
F8000001F0
F8000001F0
F8000001F0
F8000001F0
F8000001F0
F8000001F0
F8000001F0
F8000001F0
F8000001F0
F8000001F0
F8000001F0
F8000001F0
F8000001F0
F8000001F0
F8000001F0
F8000001F0
F8000001F0
F8000001F0
F8000001F0
F8000001F0
F8000001F0
F8000001F0
F8000001F0
F8000001F0
F8000001F0
F8000001F0
F8000001F0
F8000001F0
F8000001F0
F8000001F0
F8000001F0
F8000001F0
F8000001F0
F8000001F0
F8000001F0
FC000003F0
7E000007E0
3F80000FE0
1FC0003FC0
0FF000FF80
07FC03FF00
03FFFFFC00
01FFFFF800
007FFFE000
001FFF8000
0003FC0000
ENDCHAR
STARTCHAR 00D6
ENCODING 214
SWIDTH 346 0
DWIDTH 52 0
BBX 36 115 8 0
BITMAP
00F801F000
00F801F000
00F801F000
00F801F000
00F801F000
00F801F000
00F801F000
00F801F000
00F801F000
00F801F000
0000000000
0000000000
0000000000
0000000000
0000000000
0000000000
0000000000
0000000000
0003FC0000
001FFF8000
007FFFF000
01FFFFF800
03FFFFFE00
0FFC03FF00
1FF000FF80
3FC0003FC0
7F80000FE0
FE000007F0
FC000003F0
F8000001F0
F8000001F0
F8000001F0
F8000001F0
F8000001F0
F8000001F0
F8000001F0
F8000001F0
F8000001F0
F8000001F0
F8000001F0
F8000001F0
F8000001F0
F8000001F0
F8000001F0
F8000001F0
F8000001F0
F8000001F0
F8000001F0
F8000001F0
F8000001F0
F8000001F0
F8000001F0
F8000001F0
F8000001F0
F8000001F0
F8000001F0
F8000001F0
F8000001F0
F8000001F0
F8000001F0
F8000001F0
F8000001F0
F8000001F0
F8000001F0
F8000001F0
F8000001F0
F8000001F0
F8000001F0
F8000001F0
F8000001F0
F8000001F0
F8000001F0
F8000001F0
F8000001F0
F8000001F0
F8000001F0
F8000001F0
F8000001F0
F8000001F0
F8000001F0
F8000001F0
F8000001F0
F8000001F0
F8000001F0
F8000001F0
F8000001F0
F8000001F0
F8000001F0
F8000001F0
F8000001F0
F8000001F0
F8000001F0
F8000001F0
F8000001F0
F8000001F0
F8000001F0
F8000001F0
F8000001F0
F8000001F0
F8000001F0
F8000001F0
F8000001F0
F8000001F0
F8000001F0
FC000003F0
7E000007E0
3F80000FE0
1FC0003FC0
0FF000FF80
07FC03FF00
03FFFFFC00
01FFFFF800
007FFFE000
001FFF8000
0003FC0000
ENDCHAR
STARTCHAR 00D7
ENCODING 215
SWIDTH 346 0
DWIDTH 52 0
BBX 36 37 8 25
BITMAP
1000000000
3800000000
3C00000040
3E00000080
1F00000100
0F80000200
07C0000400
03E0001C00
01F0003800
00F8007000
007C00E000
007E01C000
003F03C000
001F878000
000FDF0000
0007FE0000
0003FE0000
0001FC0000
0001FC0000
0003FE0000
0007FF0000
001FDF8000
003F9FC000
007F8FE000
00FF07F000
01FE03F800
03FC01FC00
0FF800FE00
1FF0007F00
3FE0003F80
7FC0001FC0
FFC0000FE0
FF800007F0
7F000003F0
3E000003E0
1C00000180
0800000000
ENDCHAR
STARTCHAR 00D8
ENCODING 216
SWIDTH 346 0
DWIDTH 52 0
BBX 36 108 8 -5
BITMAP
00000001F0
00000003F0
00000003F0
00000003E0
00000007E0
0003FC07E0
001FFF87C0
007FFFF7C0
01FFFFFFC0
03FFFFFFC0
0FFC03FF80
1FF000FF80
3FC0003FC0
7F80001FE0
FE00001FF0
FC00003FF0
F800003FF0
F800003FF0
F800007FF0
F800007DF0
F800007DF0
F800007DF0
F80000FDF0
F80000F9F0
F80000F9F0
F80001F9F0
F80001F1F0
F80001F1F0
F80001F1F0
F80003F1F0
F80003E1F0
F80003E1F0
F80007E1F0
F80007C1F0
F80007C1F0
F80007C1F0
F8000FC1F0
F8000F81F0
F8000F81F0
F8001F81F0
F8001F01F0
F8001F01F0
F8001F01F0
F8003F01F0
F8003E01F0
F8003E01F0
F8007E01F0
F8007C01F0
F8007C01F0
F8007C01F0
F800FC01F0
F800F801F0
F800F801F0
F801F801F0
F801F001F0
F801F001F0
F801F001F0
F803F001F0
F803E001F0
F803E001F0
F807E001F0
F807C001F0
F807C001F0
F807C001F0
F80FC001F0
F80F8001F0
F80F8001F0
F81F8001F0
F81F0001F0
F81F0001F0
F81F0001F0
F83F0001F0
F83E0001F0
F83E0001F0
F87E0001F0
F87C0001F0
F87C0001F0
F87C0001F0
F8FC0001F0
F8F80001F0
F8F80001F0
F9F80001F0
F9F00001F0
F9F00001F0
F9F00001F0
FBF00001F0
FBE00001F0
FBE00001F0
FFE00001F0
FFC00001F0
FFC00001F0
FFC00003F0
7FC00007F0
3F80001FE0
1FC0003FC0
1FF000FF80
1FFE03FF00
1FFFFFFC00
1FFFFFF800
3F7FFFE000
3E1FFF8000
3E03FC0000
7E00000000
7C00000000
7C00000000
7C00000000
FC00000000
F800000000
ENDCHAR
STARTCHAR 00D9
ENCODING 217
SWIDTH 346 0
DWIDTH 52 0
BBX 36 120 8 0
BITMAP
007C000000
003E000000
003F000000
001F800000
000FC00000
0007C00000
0003E00000
0001F00000
0000F80000
00007C0000
00003E0000
00003F0000
00001F8000
00000F8000
000007C000
000003E000
0000000000
0000000000
0000000000
0000000000
0000000000
0000000000
0000000000
F8000001F0
F8000001F0
F8000001F0
F8000001F0
F8000001F0
F8000001F0
F8000001F0
F8000001F0
F8000001F0
F8000001F0
F8000001F0
F8000001F0
F8000001F0
F8000001F0
F8000001F0
F8000001F0
F8000001F0
F8000001F0
F8000001F0
F8000001F0
F8000001F0
F8000001F0
F8000001F0
F8000001F0
F8000001F0
F8000001F0
F8000001F0
F8000001F0
F8000001F0
F8000001F0
F8000001F0
F8000001F0
F8000001F0
F8000001F0
F8000001F0
F8000001F0
F8000001F0
F8000001F0
F8000001F0
F8000001F0
F8000001F0
F8000001F0
F8000001F0
F8000001F0
F8000001F0
F8000001F0
F8000001F0
F8000001F0
F8000001F0
F8000001F0
F8000001F0
F8000001F0
F8000001F0
F8000001F0
F8000001F0
F8000001F0
F8000001F0
F8000001F0
F8000001F0
F8000001F0
F8000001F0
F8000001F0
F8000001F0
F8000001F0
F8000001F0
F8000001F0
F8000001F0
F8000001F0
F8000001F0
F8000001F0
F8000001F0
F8000001F0
F8000001F0
F8000001F0
F8000001F0
F8000001F0
F8000001F0
F8000001F0
F8000001F0
F8000001F0
F8000001F0
F8000001F0
F8000001F0
F8000001F0
F8000001F0
F8000001F0
FC000003F0
7E000007E0
3F80000FE0
1FC0003FC0
0FF000FF80
07FC03FF00
03FFFFFC00
01FFFFF800
007FFFE000
001FFF8000
0003FC0000
ENDCHAR
STARTCHAR 00DA
ENCODING 218
SWIDTH 346 0
DWIDTH 52 0
BBX 36 120 8 0
BITMAP
000003E000
000007E000
00000FC000
00001F8000
00001F0000
00003E0000
00007C0000
0000F80000
0001F00000
0003F00000
0007E00000
000FC00000
000F800000
001F000000
003E000000
007C000000
0000000000
0000000000
0000000000
0000000000
0000000000
0000000000
0000000000
F8000001F0
F8000001F0
F8000001F0
F8000001F0
F8000001F0
F8000001F0
F8000001F0
F8000001F0
F8000001F0
F8000001F0
F8000001F0
F8000001F0
F8000001F0
F8000001F0
F8000001F0
F8000001F0
F8000001F0
F8000001F0
F8000001F0
F8000001F0
F8000001F0
F8000001F0
F8000001F0
F8000001F0
F8000001F0
F8000001F0
F8000001F0
F8000001F0
F8000001F0
F8000001F0
F8000001F0
F8000001F0
F8000001F0
F8000001F0
F8000001F0
F8000001F0
F8000001F0
F8000001F0
F8000001F0
F8000001F0
F8000001F0
F8000001F0
F8000001F0
F8000001F0
F8000001F0
F8000001F0
F8000001F0
F8000001F0
F8000001F0
F8000001F0
F8000001F0
F8000001F0
F8000001F0
F8000001F0
F8000001F0
F8000001F0
F8000001F0
F8000001F0
F8000001F0
F8000001F0
F8000001F0
F8000001F0
F8000001F0
F8000001F0
F8000001F0
F8000001F0
F8000001F0
F8000001F0
F8000001F0
F8000001F0
F8000001F0
F8000001F0
F8000001F0
F8000001F0
F8000001F0
F8000001F0
F8000001F0
F8000001F0
F8000001F0
F8000001F0
F8000001F0
F8000001F0
F8000001F0
F8000001F0
F8000001F0
F8000001F0
FC000003F0
7E000007E0
3F80000FE0
1FC0003FC0
0FF000FF80
07FC03FF00
03FFFFFC00
01FFFFF800
007FFFE000
001FFF8000
0003FC0000
ENDCHAR
STARTCHAR 00DB
ENCODING 219
SWIDTH 346 0
DWIDTH 52 0
BBX 36 120 8 0
BITMAP
0001F80000
0001FC0000
0003FC0000
0007FE0000
0007FF0000
000FFF0000
001F9F8000
001F0F8000
003F0FC000
007E07E000
007C03E000
00FC03F000
01F801F800
01F000F800
03E0007C00
07E0007C00
0000003E00
0000000000
0000000000
0000000000
0000000000
0000000000
0000000000
F8000001F0
F8000001F0
F8000001F0
F8000001F0
F8000001F0
F8000001F0
F8000001F0
F8000001F0
F8000001F0
F8000001F0
F8000001F0
F8000001F0
F8000001F0
F8000001F0
F8000001F0
F8000001F0
F8000001F0
F8000001F0
F8000001F0
F8000001F0
F8000001F0
F8000001F0
F8000001F0
F8000001F0
F8000001F0
F8000001F0
F8000001F0
F8000001F0
F8000001F0
F8000001F0
F8000001F0
F8000001F0
F8000001F0
F8000001F0
F8000001F0
F8000001F0
F8000001F0
F8000001F0
F8000001F0
F8000001F0
F8000001F0
F8000001F0
F8000001F0
F8000001F0
F8000001F0
F8000001F0
F8000001F0
F8000001F0
F8000001F0
F8000001F0
F8000001F0
F8000001F0
F8000001F0
F8000001F0
F8000001F0
F8000001F0
F8000001F0
F8000001F0
F8000001F0
F8000001F0
F8000001F0
F8000001F0
F8000001F0
F8000001F0
F8000001F0
F8000001F0
F8000001F0
F8000001F0
F8000001F0
F8000001F0
F8000001F0
F8000001F0
F8000001F0
F8000001F0
F8000001F0
F8000001F0
F8000001F0
F8000001F0
F8000001F0
F8000001F0
F8000001F0
F8000001F0
F8000001F0
F8000001F0
F8000001F0
FC000001F0
FE000003F0
7F000007E0
3F80001FE0
1FC0003FC0
0FF000FF80
07FC03FF00
03FFFFFC00
01FFFFF800
007FFFE000
001FFF8000
0003FC0000
ENDCHAR
STARTCHAR 00DC
ENCODING 220
SWIDTH 346 0
DWIDTH 52 0
BBX 36 115 8 0
BITMAP
00F801F000
00F801F000
00F801F000
00F801F000
00F801F000
00F801F000
00F801F000
00F801F000
00F801F000
00F801F000
0000000000
0000000000
0000000000
0000000000
0000000000
0000000000
0000000000
0000000000
F8000001F0
F8000001F0
F8000001F0
F8000001F0
F8000001F0
F8000001F0
F8000001F0
F8000001F0
F8000001F0
F8000001F0
F8000001F0
F8000001F0
F8000001F0
F8000001F0
F8000001F0
F8000001F0
F8000001F0
F8000001F0
F8000001F0
F8000001F0
F8000001F0
F8000001F0
F8000001F0
F8000001F0
F8000001F0
F8000001F0
F8000001F0
F8000001F0
F8000001F0
F8000001F0
F8000001F0
F8000001F0
F8000001F0
F8000001F0
F8000001F0
F8000001F0
F8000001F0
F8000001F0
F8000001F0
F8000001F0
F8000001F0
F8000001F0
F8000001F0
F8000001F0
F8000001F0
F8000001F0
F8000001F0
F8000001F0
F8000001F0
F8000001F0
F8000001F0
F8000001F0
F8000001F0
F8000001F0
F8000001F0
F8000001F0
F8000001F0
F8000001F0
F8000001F0
F8000001F0
F8000001F0
F8000001F0
F8000001F0
F8000001F0
F8000001F0
F8000001F0
F8000001F0
F8000001F0
F8000001F0
F8000001F0
F8000001F0
F8000001F0
F8000001F0
F8000001F0
F8000001F0
F8000001F0
F8000001F0
F8000001F0
F8000001F0
F8000001F0
F8000001F0
F8000001F0
F8000001F0
F8000001F0
F8000001F0
F8000001F0
FC000003F0
7E000007E0
3F80000FE0
1FC0003FC0
0FF000FF80
07FC03FF00
03FFFFFC00
01FFFFF800
007FFFE000
001FFF8000
0003FC0000
ENDCHAR
STARTCHAR 00DD
ENCODING 221
SWIDTH 346 0
DWIDTH 52 0
BBX 36 120 8 0
BITMAP
000003E000
000007E000
00000FC000
00001F8000
00001F0000
00003E0000
00007C0000
0000F80000
0001F00000
0003F00000
0007E00000
000FC00000
000F800000
001F000000
003E000000
007C000000
0000000000
0000000000
0000000000
0000000000
0000000000
0000000000
0000000000
F8000001F0
F8000001F0
F8000001F0
F8000001F0
F8000001F0
F8000001F0
F8000001F0
F8000001F0
F8000001F0
F8000001F0
F8000001F0
F8000001F0
F8000001F0
F8000001F0
F8000001F0
F8000001F0
F8000001F0
F8000001F0
F8000001F0
F8000001F0
F8000001F0
F8000001F0
F8000001F0
F8000001F0
F8000001F0
F8000001F0
F8000001F0
F8000001F0
F8000001F0
F8000001F0
F8000001F0
F8000001F0
F8000001F0
F8000001F0
FC000001F0
FE000003F0
7F00000FE0
3F80001FC0
1FE0003F80
0FF800FF00
07FF9FFE00
03FFFFFC00
01FFFFF000
007FFFE000
001FFF0000
0001F00000
0001F00000
0001F00000
0001F00000
0001F00000
0001F00000
0001F00000
0001F00000
0001F00000
0001F00000
0001F00000
0001F00000
0001F00000
0001F00000
0001F00000
0001F00000
0001F00000
0001F00000
0001F00000
0001F00000
0001F00000
0001F00000
0001F00000
0001F00000
0001F00000
0001F00000
0001F00000
0001F00000
0001F00000
0001F00000
0001F00000
0001F00000
0001F00000
0001F00000
0001F00000
0001F00000
0001F00000
0001F00000
0001F00000
0001F00000
0001F00000
0001F00000
0001F00000
0001F00000
0001F00000
0001F00000
0001F00000
0001F00000
0001F00000
0001F00000
0001F00000
0001F00000
ENDCHAR
STARTCHAR 00DE
ENCODING 222
SWIDTH 346 0
DWIDTH 52 0
BBX 36 97 8 0
BITMAP
F800000000
F800000000
F800000000
F800000000
F800000000
F800000000
F800000000
F800000000
F800000000
F800000000
F800000000
F800000000
F800000000
F800000000
F800000000
F800000000
F800000000
F800000000
F800000000
F800000000
F800000000
F800000000
F800000000
F800000000
FFFFFC0000
FFFFFF8000
FFFFFFE000
FFFFFFF800
FFFFFFFC00
F80003FF00
F80000FF80
F800003FC0
F800000FE0
F8000007F0
F8000003F0
F8000001F0
F8000001F0
F8000001F0
F8000001F0
F8000001F0
F8000001F0
F8000001F0
F8000001F0
F8000001F0
F8000001F0
F8000001F0
F8000001F0
F8000001F0
F8000001F0
F8000001F0
F8000001F0
F8000001F0
F8000001F0
F8000001F0
F8000001F0
F8000001F0
F8000001F0
F8000001F0
F8000001F0
F8000001F0
F8000001F0
F8000001F0
F8000001F0
F8000001F0
F8000003F0
F8000007F0
F800000FE0
F800003FC0
F80000FF80
F80003FF00
FFFFFFFE00
FFFFFFF800
FFFFFFF000
FFFFFFC000
FFFFFE0000
F800000000
F800000000
F800000000
F800000000
F800000000
F800000000
F800000000
F800000000
F800000000
F800000000
F800000000
F800000000
F800000000
F800000000
F800000000
F800000000
F800000000
F800000000
F800000000
F800000000
F800000000
F800000000
ENDCHAR
STARTCHAR 00DF
ENCODING 223
SWIDTH 366 0
DWIDTH 55 0
BBX 39 109 8 -12
BITMAP
0003FC0000
001FFF8000
007FFFE000
01FFFFF800
03FFFFFC00
07FC03FF00
0FF000FF80
1FC0003FC0
3F00000FE0
7E000007E0
FC000003F0
F8000001F0
F8000001F0
F8000001F0
F8000001F0
F8000001F0
F8000001F0
F8000001F0
F8000001F0
F8000001F0
F8000001F0
F8000001F0
F8000001F0
F8000001F0
F8000001F0
F8000001F0
F8000001F0
F8000001F0
F8000001F0
F8000001F0
F8000003F0
F8000007F0
F800000FE0
F800003FC0
F800007F80
F80003FF00
F8007FFE00
F801FFF800
F803FFF000
F807FFC000
F807FE0000
F80FC00000
F80F800000
F80F800000
F80F800000
F80FC00000
F80FE00000
F807FFC000
F807FFF800
F803FFFE00
F801FFFF00
F8007FFFC0
F800007FE0
F800000FF0
F8000007F8
F8000001FC
F8000000FE
F80000007E
F80000003E
F80000003E
F80000003E
F80000003E
F80000003E
F80000003E
F80000003E
F80000003E
F80000003E
F80000003E
F80000003E
F80000003E
F80000003E
F80000003E
F80000003E
F80000003E
F80000003E
F80000003E
F80000003E
F80000003E
F80000003E
F80000003E
F80000003E
F80000003E
F80000003E
F80000003E
F80000003E
F80000003E
F80000003E
F80000003E
F80000003E
F80000003E
F80000003E
F80000003E
F80000003E
F80000003E
F80000003E
F80000003E
F80000003E
000000003E
000000007E
00000000FC
00000001F8
00000007F8
0000000FF0
0000007FE0
000007FF80
000007FF00
000007FC00
000007F000
0000078000
ENDCHAR
STARTCHAR 00E0
ENCODING 224
SWIDTH 346 0
DWIDTH 52 0
BBX 36 90 8 0
BITMAP
007C000000
003E000000
003F000000
001F800000
000FC00000
0007C00000
0003E00000
0001F00000
0000F80000
00007C0000
00003E0000
00003F0000
00001F8000
00000F8000
000007C000
000003E000
0000000000
0000000000
0000000000
0000000000
0000000000
0000000000
0000000000
0003FC0000
001FFF8000
007FFFE000
01FFFFF800
03FFFFFC00
07FE03FE00
0FF000FF00
1FE0003F80
3F80000FC0
7F000007E0
FE000003F0
3C000001F0
00000001F0
00000001F0
00000001F0
00000001F0
00000001F0
00000001F0
00000001F0
00000001F0
00000001F0
00000001F0
00000001F0
00000001F0
00000001F0
00000001F0
0003FC01F0
001FFF81F0
007FFFE1F0
01FFFFF9F0
03FFFFFDF0
07FE07FFF0
0FF000FFF0
1FC0003FF0
3F80001FF0
7F000007F0
FC000003F0
F8000001F0
F8000001F0
F8000001F0
F8000001F0
F8000001F0
F8000001F0
F8000001F0
F8000001F0
F8000001F0
F8000001F0
F8000001F0
F8000001F0
F8000001F0
F8000001F0
F8000001F0
F8000001F0
F8000001F0
F8000001F0
F8000001F0
FC000003F0
7E000007F0
3F80001FF0
3FC0003FF0
1FF000FFF0
07FE07FFF0
03FFFFFDF0
01FFFFF9F0
007FFFE1F0
001FFF81F0
0003FC01F0
ENDCHAR
STARTCHAR 00E1
ENCODING 225
SWIDTH 346 0
DWIDTH 52 0
BBX 36 90 8 0
BITMAP
000003E000
000007E000
00000FC000
00001F8000
00001F0000
00003E0000
00007C0000
0000F80000
0001F00000
0003F00000
0007E00000
000FC00000
000F800000
001F000000
003E000000
007C000000
0000000000
0000000000
0000000000
0000000000
0000000000
0000000000
0000000000
0003FC0000
001FFF8000
007FFFE000
01FFFFF800
03FFFFFC00
07FE03FE00
0FF000FF00
1FE0003F80
3F80000FC0
7F000007E0
FE000003F0
3C000001F0
00000001F0
00000001F0
00000001F0
00000001F0
00000001F0
00000001F0
00000001F0
00000001F0
00000001F0
00000001F0
00000001F0
00000001F0
00000001F0
00000001F0
0003FC01F0
001FFF81F0
007FFFE1F0
01FFFFF9F0
03FFFFFDF0
07FE07FFF0
0FF000FFF0
1FC0003FF0
3F80001FF0
7F000007F0
FC000003F0
F8000001F0
F8000001F0
F8000001F0
F8000001F0
F8000001F0
F8000001F0
F8000001F0
F8000001F0
F8000001F0
F8000001F0
F8000001F0
F8000001F0
F8000001F0
F8000001F0
F8000001F0
F8000001F0
F8000001F0
F8000001F0
F8000001F0
FC000003F0
7E000007F0
3F80001FF0
3FC0003FF0
1FF000FFF0
07FE07FFF0
03FFFFFDF0
01FFFFF9F0
007FFFE1F0
001FFF81F0
0003FC01F0
ENDCHAR
STARTCHAR 00E2
ENCODING 226
SWIDTH 346 0
DWIDTH 52 0
BBX 36 90 8 0
BITMAP
0001F80000
0001FC0000
0003FC0000
0007FE0000
0007FF0000
000FFF0000
001F9F8000
001F0F8000
003F0FC000
007E07E000
007C03E000
00FC03F000
01F801F800
01F000F800
03E0007C00
07E0007C00
0000003E00
0000000000
0000000000
0000000000
0000000000
0000000000
0000000000
0003FC0000
001FFF8000
007FFFE000
01FFFFF800
03FFFFFC00
07FE03FE00
0FF000FF00
1FC0003F80
3F80001FC0
7F000007E0
FE000003F0
3C000001F0
00000001F0
00000001F0
00000001F0
00000001F0
00000001F0
00000001F0
00000001F0
00000001F0
00000001F0
00000001F0
00000001F0
00000001F0
00000001F0
00000001F0
0003FC01F0
001FFF81F0
007FFFE1F0
01FFFFF9F0
03FFFFFDF0
07FE07FFF0
0FF000FFF0
1FC0003FF0
3F80001FF0
7F00000FF0
FE000007F0
FC000003F0
F8000001F0
F8000001F0
F8000001F0
F8000001F0
F8000001F0
F8000001F0
F8000001F0
F8000001F0
F8000001F0
F8000001F0
F8000001F0
F8000001F0
F8000001F0
F8000001F0
F8000001F0
F8000001F0
F8000001F0
FC000001F0
FE000003F0
7F00000FF0
3F80001FF0
3FC0003FF0
1FF000FFF0
07FE07FFF0
03FFFFFDF0
01FFFFF9F0
007FFFE1F0
001FFF81F0
0003FC01F0
ENDCHAR
STARTCHAR 00E3
ENCODING 227
SWIDTH 346 0
DWIDTH 52 0
BBX 36 85 8 0
BITMAP
007E000000
01FFC00300
07FFF00F80
1FFFFE3FE0
7FFFFFFFE0
3FC3FFFF80
1F007FFE00
0C001FF800
000003E000
0000000000
0000000000
0000000000
0000000000
0000000000
0000000000
0000000000
0000000000
0000000000
0003FC0000
001FFF8000
007FFFE000
01FFFFF800
03FFFFFC00
07FE03FE00
0FF000FF00
1FE0003F80
3F80000FC0
7F000007E0
FE000003F0
3C000001F0
00000001F0
00000001F0
00000001F0
00000001F0
00000001F0
00000001F0
00000001F0
00000001F0
00000001F0
00000001F0
00000001F0
00000001F0
00000001F0
00000001F0
0003FC01F0
001FFF81F0
007FFFE1F0
01FFFFF9F0
03FFFFFDF0
07FE07FFF0
0FF000FFF0
1FC0003FF0
3F80001FF0
7F000007F0
FC000003F0
F8000001F0
F8000001F0
F8000001F0
F8000001F0
F8000001F0
F8000001F0
F8000001F0
F8000001F0
F8000001F0
F8000001F0
F8000001F0
F8000001F0
F8000001F0
F8000001F0
F8000001F0
F8000001F0
F8000001F0
F8000001F0
F8000001F0
FC000003F0
7E000007F0
3F80001FF0
3FC0003FF0
1FF000FFF0
07FE07FFF0
03FFFFFDF0
01FFFFF9F0
007FFFE1F0
001FFF81F0
0003FC01F0
ENDCHAR
STARTCHAR 00E4
ENCODING 228
SWIDTH 346 0
DWIDTH 52 0
BBX 36 85 8 0
BITMAP
00F801F000
00F801F000
00F801F000
00F801F000
00F801F000
00F801F000
00F801F000
00F801F000
00F801F000
00F801F000
0000000000
0000000000
0000000000
0000000000
0000000000
0000000000
0000000000
0000000000
0003FC0000
001FFF8000
007FFFE000
01FFFFF800
03FFFFFC00
07FE03FE00
0FF000FF00
1FE0003F80
3F80000FC0
7F000007E0
FE000003F0
3C000001F0
00000001F0
00000001F0
00000001F0
00000001F0
00000001F0
00000001F0
00000001F0
00000001F0
00000001F0
00000001F0
00000001F0
00000001F0
00000001F0
00000001F0
0003FC01F0
001FFF81F0
007FFFE1F0
01FFFFF9F0
03FFFFFDF0
07FE07FFF0
0FF000FFF0
1FC0003FF0
3F80001FF0
7F000007F0
FC000003F0
F8000001F0
F8000001F0
F8000001F0
F8000001F0
F8000001F0
F8000001F0
F8000001F0
F8000001F0
F8000001F0
F8000001F0
F8000001F0
F8000001F0
F8000001F0
F8000001F0
F8000001F0
F8000001F0
F8000001F0
F8000001F0
F8000001F0
FC000003F0
7E000007F0
3F80001FF0
3FC0003FF0
1FF000FFF0
07FE07FFF0
03FFFFFDF0
01FFFFF9F0
007FFFE1F0
001FFF81F0
0003FC01F0
ENDCHAR
STARTCHAR 00E5
ENCODING 229
SWIDTH 346 0
DWIDTH 52 0
BBX 35 89 8 0
BITMAP
0003F80000
000FFF0000
003FFF8000
007E07C000
00F803F000
01F001F800
03E000FC00
07C0007C00
07C0007C00
07C0007C00
07C0007C00
07E000FC00
03F001FC00
01FC07F000
00FF0FE000
003FFFC000
001FFF0000
0007F80000
0000000000
0000000000
0000000000
0000000000
0003FC0000
001FFF8000
007FFFC000
01FFFFF000
03FFFFF800
07FC07FC00
0FF000FF00
1FC0007F00
3F80001F80
7F00000FC0
FE000007E0
3C000003E0
00000003E0
00000003E0
00000003E0
00000003E0
00000003E0
00000003E0
00000003E0
00000003E0
00000003E0
00000003E0
00000003E0
00000003E0
00000003E0
00000003E0
0003FC03E0
001FFF83E0
007FFFE3E0
01FFFFF3E0
03FFFFFBE0
0FFE0FFFE0
1FF001FFE0
3FC0007FE0
3F80001FE0
7E00000FE0
FC000007E0
F8000003E0
F8000003E0
F8000003E0
F8000003E0
F8000003E0
F8000003E0
F8000003E0
F8000003E0
F8000003E0
F8000003E0
F8000003E0
F8000003E0
F8000003E0
F8000003E0
F8000003E0
F8000003E0
F8000003E0
F8000003E0
F8000003E0
FC000007E0
7E00000FE0
7F80001FE0
3FC0007FE0
1FF001FFE0
0FFC07FFE0
03FFFFFBE0
01FFFFF3E0
007FFFE3E0
003FFF83E0
0007FC03E0
ENDCHAR
STARTCHAR 00E6
ENCODING 230
SWIDTH 553 0
DWIDTH 83 0
BBX 67 67 8 0
BITMAP
0003FC000007F80000
001FFF80003FFF0000
007FFFE000FFFFC000
01FFFFF001FFFFF000
03FFFFFC07FFFFF800
07FE03FE0FFC07FC00
0FF000FF1FE001FE00
1FE0003FBF80007F00
3F80000FFF00001F80
7F000007FC00000FC0
FE000003F8000007E0
1C000001F0000003E0
00000001F0000003E0
00000001F0000003E0
00000001F0000003E0
00000001F0000003E0
00000001F0000003E0
00000001F0000003E0
00000001F0000003E0
00000001F0000003E0
00000001F0000003E0
00000001F0000003E0
00000001F0000003E0
00000001F0000003E0
00000001F0000003E0
00000001F0000003E0
0003FC01F0000003E0
001FFF81F0000003E0
007FFFE1F0000003E0
01FFFFF9F0000003E0
03FFFFFDF8000007E0
0FFE03FFFC00000FE0
1FF000FFFF00001FC0
3FC0003FFF80007F80
7F80000FFFE001FF00
7E000007FFF807FE00
FC000003F7FFFFFC00
F8000001F3FFFFF000
F8000001F0FFFFC000
F8000001F03FFF0000
F8000001F007F80000
F8000001F000000000
F8000001F000000000
F8000001F000000000
F8000001F000000000
F8000001F000000000
F8000001F000000000
F8000001F000000000
F8000001F000000000
F8000001F000000000
F8000001F000000000
F8000001F000000000
F8000001F000000000
F8000001F000000000
F8000001F000000000
F8000001F000000200
FC000003F8000007E0
7E000007FC00000FC0
3F00000FFE00003FC0
1FC0003FBF80007F80
0FF000FF1FE001FF00
07FC03FE0FF807FE00
03FFFFFC07FFFFF800
01FFFFF803FFFFF000
007FFFE000FFFFC000
001FFF80003FFF0000
0003FC000007F80000
ENDCHAR
STARTCHAR 00E7
ENCODING 231
SWIDTH 346 0
DWIDTH 52 0
BBX 36 94 8 -27
BITMAP
0003FC0000
001FFF8000
007FFFE000
01FFFFF800
03FFFFFC00
07FC07FE00
0FF000FF00
1FC0003F80
3F80001FC0
7E00000FE0
FC000007F0
F8000003C0
F800000000
F800000000
F800000000
F800000000
F800000000
F800000000
F800000000
F800000000
F800000000
F800000000
F800000000
F800000000
F800000000
F800000000
F800000000
F800000000
F800000000
F800000000
F800000000
F800000000
F800000000
F800000000
F800000000
F800000000
F800000000
F800000000
F800000000
F800000000
F800000000
F800000000
F800000000
F800000000
F800000000
F800000000
F800000000
F800000000
F800000000
F800000000
F800000000
F800000000
F800000000
F800000000
F800000000
F800000300
FC000003F0
7E00000FE0
3F80001FC0
3FC0003F80
1FF000FF00
07FC03FE00
03FFFFFC00
01FFFFF800
007FFFE000
001FFF8000
0007FC0000
0007C00000
0007F00000
0007FC0000
0007FF0000
0007FF8000
00007FC000
00001FF000
000007F800
000001FC00
000000FC00
0000007E00
0000003E00
0000003E00
0000003E00
0000003E00
0000003E00
0000007E00
000000FE00
000001FC00
000007F800
00001FF000
00007FE000
0007FF8000
0007FF0000
0007FC0000
0007F00000
0007800000
ENDCHAR
STARTCHAR 00E8
ENCODING 232
SWIDTH 346 0
DWIDTH 52 0
BBX 36 90 8 0
BITMAP
007C000000
003E000000
003F000000
001F800000
000FC00000
0007C00000
0003E00000
0001F00000
0000F80000
00007C0000
00003E0000
00003F0000
00001F8000
00000F8000
000007C000
000003E000
0000000000
0000000000
0000000000
0000000000
0000000000
0000000000
0000000000
0003FC0000
001FFF8000
007FFFE000
01FFFFF800
03FFFFFC00
07FE03FE00
0FF000FF00
1FC0003F80
3F80001FC0
7E000007E0
FC000003F0
F8000001F0
F8000001F0
F8000001F0
F8000001F0
F8000001F0
F8000001F0
F8000001F0
F8000001F0
F8000001F0
F8000001F0
F8000001F0
F8000001F0
F8000001F0
F8000001F0
F8000001F0
F8000001F0
F8000001F0
F8000001F0
F8000001F0
FC000003F0
FE000007F0
FF00000FE0
FFC0001FC0
FFE0007F80
FFFC01FF00
FBFFFFFE00
F9FFFFF800
F87FFFF000
F81FFFC000
F803FC0000
F800000000
F800000000
F800000000
F800000000
F800000000
F800000000
F800000000
F800000000
F800000000
F800000000
F800000000
F800000000
F800000000
F800000000
F800000300
FC000003F0
7E00000FF0
7F80001FE0
3FC0003FC0
1FF000FF80
07FC03FF00
03FFFFFC00
01FFFFF800
007FFFE000
001FFF8000
0003FC0000
ENDCHAR
STARTCHAR 00E9
ENCODING 233
SWIDTH 346 0
DWIDTH 52 0
BBX 36 90 8 0
BITMAP
000003E000
000007E000
00000FC000
00001F8000
00001F0000
00003E0000
00007C0000
0000F80000
0001F00000
0003F00000
0007E00000
000FC00000
000F800000
001F000000
003E000000
007C000000
0000000000
0000000000
0000000000
0000000000
0000000000
0000000000
0000000000
0003FC0000
001FFF8000
007FFFE000
01FFFFF800
03FFFFFC00
07FE03FE00
0FF000FF00
1FC0003F80
3F80001FC0
7E000007E0
FC000003F0
F8000001F0
F8000001F0
F8000001F0
F8000001F0
F8000001F0
F8000001F0
F8000001F0
F8000001F0
F8000001F0
F8000001F0
F8000001F0
F8000001F0
F8000001F0
F8000001F0
F8000001F0
F8000001F0
F8000001F0
F8000001F0
F8000001F0
FC000003F0
FE000007F0
FF00000FE0
FFC0001FC0
FFE0007F80
FFFC01FF00
FBFFFFFE00
F9FFFFF800
F87FFFF000
F81FFFC000
F803FC0000
F800000000
F800000000
F800000000
F800000000
F800000000
F800000000
F800000000
F800000000
F800000000
F800000000
F800000000
F800000000
F800000000
F800000000
F800000300
FC000003F0
7E00000FF0
7F80001FE0
3FC0003FC0
1FF000FF80
07FC03FF00
03FFFFFC00
01FFFFF800
007FFFE000
001FFF8000
0003FC0000
ENDCHAR
STARTCHAR 00EA
ENCODING 234
SWIDTH 346 0
DWIDTH 52 0
BBX 36 90 8 0
BITMAP
0001F80000
0001FC0000
0003FC0000
0007FE0000
0007FF0000
000FFF0000
001F9F8000
001F0F8000
003F0FC000
007E07E000
007C03E000
00FC03F000
01F801F800
01F000F800
03E0007C00
07E0007C00
0000003E00
0000000000
0000000000
0000000000
0000000000
0000000000
0000000000
0003FC0000
001FFF8000
007FFFE000
01FFFFF800
03FFFFFC00
07FE03FE00
0FF000FF00
1FC0003F80
3F80001FC0
7F00000FE0
FE000003F0
FC000003F0
F8000001F0
F8000001F0
F8000001F0
F8000001F0
F8000001F0
F8000001F0
F8000001F0
F8000001F0
F8000001F0
F8000001F0
F8000001F0
F8000001F0
F8000001F0
F8000001F0
F8000001F0
F8000001F0
F8000001F0
F8000001F0
FC000003F0
FE000007F0
FF00000FE0
FFC0003FC0
FFE0007F80
FFFC01FF00
FBFFFFFE00
F9FFFFF800
F87FFFF000
F81FFFC000
F803FC0000
F800000000
F800000000
F800000000
F800000000
F800000000
F800000000
F800000000
F800000000
F800000000
F800000000
F800000000
F800000000
F800000000
F800000000
FC00000100
FE000003F0
7F000007F0
7F80001FE0
3FC0003FC0
1FF000FF80
07FC03FF00
03FFFFFC00
01FFFFF800
007FFFE000
001FFF8000
0003FC0000
ENDCHAR
STARTCHAR 00EB
ENCODING 235
SWIDTH 346 0
DWIDTH 52 0
BBX 36 85 8 0
BITMAP
00F801F000
00F801F000
00F801F000
00F801F000
00F801F000
00F801F000
00F801F000
00F801F000
00F801F000
00F801F000
0000000000
0000000000
0000000000
0000000000
0000000000
0000000000
0000000000
0000000000
0003FC0000
001FFF8000
007FFFE000
01FFFFF800
03FFFFFC00
07FE03FE00
0FF000FF00
1FC0003F80
3F80001FC0
7E000007E0
FC000003F0
F8000001F0
F8000001F0
F8000001F0
F8000001F0
F8000001F0
F8000001F0
F8000001F0
F8000001F0
F8000001F0
F8000001F0
F8000001F0
F8000001F0
F8000001F0
F8000001F0
F8000001F0
F8000001F0
F8000001F0
F8000001F0
F8000001F0
FC000003F0
FE000007F0
FF00000FE0
FFC0001FC0
FFE0007F80
FFFC01FF00
FBFFFFFE00
F9FFFFF800
F87FFFF000
F81FFFC000
F803FC0000
F800000000
F800000000
F800000000
F800000000
F800000000
F800000000
F800000000
F800000000
F800000000
F800000000
F800000000
F800000000
F800000000
F800000000
F800000300
FC000003F0
7E00000FF0
7F80001FE0
3FC0003FC0
1FF000FF80
07FC03FF00
03FFFFFC00
01FFFFF800
007FFFE000
001FFF8000
0003FC0000
ENDCHAR
STARTCHAR 00EC
ENCODING 236
SWIDTH 233 0
DWIDTH 35 0
BBX 19 90 8 0
BITMAP
FC0000
7E0000
3F0000
1F0000
0F8000
07C000
03E000
01F000
01F800
00FC00
007E00
003E00
001F00
000F80
0007C0
0003E0
000000
000000
000000
000000
000000
000000
000000
01F000
01F000
01F000
01F000
01F000
01F000
01F000
01F000
01F000
01F000
01F000
01F000
01F000
01F000
01F000
01F000
01F000
01F000
01F000
01F000
01F000
01F000
01F000
01F000
01F000
01F000
01F000
01F000
01F000
01F000
01F000
01F000
01F000
01F000
01F000
01F000
01F000
01F000
01F000
01F000
01F000
01F000
01F000
01F000
01F000
01F000
01F000
01F000
01F000
01F000
01F000
01F000
01F000
01F000
01F000
01F000
01F000
01F000
01F000
01F000
01F000
01F000
01F000
01F000
01F000
01F000
01F000
ENDCHAR
STARTCHAR 00ED
ENCODING 237
SWIDTH 233 0
DWIDTH 35 0
BBX 18 90 9 0
BITMAP
0007C0
000F80
001F80
003F00
007E00
00FC00
00F800
01F000
03E000
07C000
0F8000
1F8000
3F0000
7E0000
FC0000
F80000
000000
000000
000000
000000
000000
000000
000000
03E000
03E000
03E000
03E000
03E000
03E000
03E000
03E000
03E000
03E000
03E000
03E000
03E000
03E000
03E000
03E000
03E000
03E000
03E000
03E000
03E000
03E000
03E000
03E000
03E000
03E000
03E000
03E000
03E000
03E000
03E000
03E000
03E000
03E000
03E000
03E000
03E000
03E000
03E000
03E000
03E000
03E000
03E000
03E000
03E000
03E000
03E000
03E000
03E000
03E000
03E000
03E000
03E000
03E000
03E000
03E000
03E000
03E000
03E000
03E000
03E000
03E000
03E000
03E000
03E000
03E000
03E000
ENDCHAR
STARTCHAR 00EE
ENCODING 238
SWIDTH 280 0
DWIDTH 42 0
BBX 26 90 8 0
BITMAP
003E0000
007F0000
007F8000
00FF8000
01FFC000
01FFE000
03F3E000
07E3F000
07E1F800
0FC0F800
0F80FC00
1F007E00
3F003E00
3E001F00
7C001F00
FC000F80
000007C0
00000000
00000000
00000000
00000000
00000000
00000000
003E0000
003E0000
003E0000
003E0000
003E0000
003E0000
003E0000
003E0000
003E0000
003E0000
003E0000
003E0000
003E0000
003E0000
003E0000
003E0000
003E0000
003E0000
003E0000
003E0000
003E0000
003E0000
003E0000
003E0000
003E0000
003E0000
003E0000
003E0000
003E0000
003E0000
003E0000
003E0000
003E0000
003E0000
003E0000
003E0000
003E0000
003E0000
003E0000
003E0000
003E0000
003E0000
003E0000
003E0000
003E0000
003E0000
003E0000
003E0000
003E0000
003E0000
003E0000
003E0000
003E0000
003E0000
003E0000
003E0000
003E0000
003E0000
003E0000
003E0000
003E0000
003E0000
003E0000
003E0000
003E0000
003E0000
003E0000
ENDCHAR
STARTCHAR 00EF
ENCODING 239
SWIDTH 240 0
DWIDTH 36 0
BBX 21 85 8 0
BITMAP
F800F8
F800F8
F800F8
F800F8
F800F8
F800F8
F800F8
F800F8
F800F8
F800F8
000000
000000
000000
000000
000000
000000
000000
000000
00F800
00F800
00F800
00F800
00F800
00F800
00F800
00F800
00F800
00F800
00F800
00F800
00F800
00F800
00F800
00F800
00F800
00F800
00F800
00F800
00F800
00F800
00F800
00F800
00F800
00F800
00F800
00F800
00F800
00F800
00F800
00F800
00F800
00F800
00F800
00F800
00F800
00F800
00F800
00F800
00F800
00F800
00F800
00F800
00F800
00F800
00F800
00F800
00F800
00F800
00F800
00F800
00F800
00F800
00F800
00F800
00F800
00F800
00F800
00F800
00F800
00F800
00F800
00F800
00F800
00F800
00F800
ENDCHAR
STARTCHAR 00F0
ENCODING 240
SWIDTH 380 0
DWIDTH 57 0
BBX 41 97 8 0
BITMAP
00003C000000
00003F800000
00003FE00000
00003FF80000
00003FFC0000
000003FE0080
000000FF8380
0000003FCF80
0000000FFF80
00000007FF80
00000003FF80
0000000FFE00
0000003FF800
000000FFF000
000003FFF000
00000FFFF000
00003FF9F000
0000FFE1F000
0003FF81F000
000FFE01F000
003FF801F000
003FE001F000
003F8001F000
003E0001F000
00380001F000
00200001F000
00000001F000
00000001F000
00000001F000
00000001F000
0003FC01F000
001FFF81F000
007FFFE1F000
01FFFFF9F000
03FFFFFDF000
07FFFFFFF000
0FF801FFF000
1FE0007FF000
3F80001FF000
7F00000FF000
FE000007F000
FC000003F000
F8000001F000
F8000001F000
F8000001F000
F8000001F000
F8000001F000
F8000001F000
F8000001F000
F8000001F000
F8000001F000
F8000001F000
F8000001F000
F8000001F000
F8000001F000
F8000001F000
F8000001F000
F8000001F000
F8000001F000
F8000001F000
F8000001F000
F8000001F000
F8000001F000
F8000001F000
F8000001F000
F8000001F000
F8000001F000
F8000001F000
F8000001F000
F8000001F000
F8000001F000
F8000001F000
F8000001F000
F8000001F000
F8000001F000
F8000001F000
F8000001F000
F8000001F000
F8000001F000
F8000001F000
F8000001F000
F8000001F000
F8000001F000
F8000001F000
F8000001F000
F8000001F000
FC000003F000
7E000007E000
7F80000FC000
3FC0003F8000
1FF000FF0000
0FFC03FE0000
03FFFFFC0000
01FFFFF80000
007FFFE00000
001FFF800000
0003FC000000
ENDCHAR
STARTCHAR 00F1
ENCODING 241
SWIDTH 346 0
DWIDTH 52 0
BBX 36 85 8 0
BITMAP
007E000000
01FFC00300
07FFF00F80
1FFFFE3FE0
7FFFFFFFE0
3FC3FFFF80
1F007FFE00
0C001FF800
000003E000
0000000000
0000000000
0000000000
0000000000
0000000000
0000000000
0000000000
0000000000
0000000000
F803FC0000
F81FFF8000
F87FFFE000
F8FFFFF800
FBFFFFFC00
FFFE03FE00
FFF000FF00
FFC0003F80
FF80000FC0
FE000007E0
FC000003F0
F8000001F0
F8000001F0
F8000001F0
F8000001F0
F8000001F0
F8000001F0
F8000001F0
F8000001F0
F8000001F0
F8000001F0
F8000001F0
F8000001F0
F8000001F0
F8000001F0
F8000001F0
F8000001F0
F8000001F0
F8000001F0
F8000001F0
F8000001F0
F8000001F0
F8000001F0
F8000001F0
F8000001F0
F8000001F0
F8000001F0
F8000001F0
F8000001F0
F8000001F0
F8000001F0
F8000001F0
F8000001F0
F8000001F0
F8000001F0
F8000001F0
F8000001F0
F8000001F0
F8000001F0
F8000001F0
F8000001F0
F8000001F0
F8000001F0
F8000001F0
F8000001F0
F8000001F0
F8000001F0
F8000001F0
F8000001F0
F8000001F0
F8000001F0
F8000001F0
F8000001F0
F8000001F0
F8000001F0
F8000001F0
F8000001F0
ENDCHAR
STARTCHAR 00F2
ENCODING 242
SWIDTH 346 0
DWIDTH 52 0
BBX 36 90 8 0
BITMAP
007C000000
003E000000
003F000000
001F800000
000FC00000
0007C00000
0003E00000
0001F00000
0000F80000
00007C0000
00003E0000
00003F0000
00001F8000
00000F8000
000007C000
000003E000
0000000000
0000000000
0000000000
0000000000
0000000000
0000000000
0000000000
0003FC0000
001FFF8000
007FFFE000
01FFFFF800
03FFFFFC00
07FE03FE00
0FF000FF00
1FC0003F80
3F80001FC0
7E000007E0
FC000003F0
F8000001F0
F8000001F0
F8000001F0
F8000001F0
F8000001F0
F8000001F0
F8000001F0
F8000001F0
F8000001F0
F8000001F0
F8000001F0
F8000001F0
F8000001F0
F8000001F0
F8000001F0
F8000001F0
F8000001F0
F8000001F0
F8000001F0
F8000001F0
F8000001F0
F8000001F0
F8000001F0
F8000001F0
F8000001F0
F8000001F0
F8000001F0
F8000001F0
F8000001F0
F8000001F0
F8000001F0
F8000001F0
F8000001F0
F8000001F0
F8000001F0
F8000001F0
F8000001F0
F8000001F0
F8000001F0
F8000001F0
F8000001F0
F8000001F0
F8000001F0
F8000001F0
F8000001F0
FC000003F0
7E000007F0
7F80000FE0
3FC0003FC0
1FF000FF80
07FC03FF00
03FFFFFC00
01FFFFF800
007FFFE000
001FFF8000
0003FC0000
ENDCHAR
STARTCHAR 00F3
ENCODING 243
SWIDTH 346 0
DWIDTH 52 0
BBX 36 90 8 0
BITMAP
000003E000
000007E000
00000FC000
00001F8000
00001F0000
00003E0000
00007C0000
0000F80000
0001F00000
0003F00000
0007E00000
000FC00000
000F800000
001F000000
003E000000
007C000000
0000000000
0000000000
0000000000
0000000000
0000000000
0000000000
0000000000
0003FC0000
001FFF8000
007FFFE000
01FFFFF800
03FFFFFC00
07FE03FE00
0FF000FF00
1FC0003F80
3F80001FC0
7E000007E0
FC000003F0
F8000001F0
F8000001F0
F8000001F0
F8000001F0
F8000001F0
F8000001F0
F8000001F0
F8000001F0
F8000001F0
F8000001F0
F8000001F0
F8000001F0
F8000001F0
F8000001F0
F8000001F0
F8000001F0
F8000001F0
F8000001F0
F8000001F0
F8000001F0
F8000001F0
F8000001F0
F8000001F0
F8000001F0
F8000001F0
F8000001F0
F8000001F0
F8000001F0
F8000001F0
F8000001F0
F8000001F0
F8000001F0
F8000001F0
F8000001F0
F8000001F0
F8000001F0
F8000001F0
F8000001F0
F8000001F0
F8000001F0
F8000001F0
F8000001F0
F8000001F0
F8000001F0
F8000001F0
FC000003F0
7E000007F0
7F80000FE0
3FC0003FC0
1FF000FF80
07FC03FF00
03FFFFFC00
01FFFFF800
007FFFE000
001FFF8000
0003FC0000
ENDCHAR
STARTCHAR 00F4
ENCODING 244
SWIDTH 346 0
DWIDTH 52 0
BBX 36 90 8 0
BITMAP
0001F80000
0001FC0000
0003FC0000
0007FE0000
0007FF0000
000FFF0000
001F9F8000
001F0F8000
003F0FC000
007E07E000
007C03E000
00FC03F000
01F801F800
01F000F800
03E0007C00
07E0007C00
0000003E00
0000000000
0000000000
0000000000
0000000000
0000000000
0000000000
0003FC0000
001FFF8000
007FFFE000
01FFFFF800
03FFFFFC00
07FE03FE00
0FF000FF00
1FC0003F80
3F80001FC0
7F000007E0
FE000003F0
FC000001F0
F8000001F0
F8000001F0
F8000001F0
F8000001F0
F8000001F0
F8000001F0
F8000001F0
F8000001F0
F8000001F0
F8000001F0
F8000001F0
F8000001F0
F8000001F0
F8000001F0
F8000001F0
F8000001F0
F8000001F0
F8000001F0
F8000001F0
F8000001F0
F8000001F0
F8000001F0
F8000001F0
F8000001F0
F8000001F0
F8000001F0
F8000001F0
F8000001F0
F8000001F0
F8000001F0
F8000001F0
F8000001F0
F8000001F0
F8000001F0
F8000001F0
F8000001F0
F8000001F0
F8000001F0
F8000001F0
F8000001F0
F8000001F0
F8000001F0
F8000001F0
FC000001F0
FE000003F0
7F000007F0
7F80001FE0
3FC0003FC0
1FF000FF80
07FC03FF00
03FFFFFC00
01FFFFF800
007FFFE000
001FFF8000
0003FC0000
ENDCHAR
STARTCHAR 00F5
ENCODING 245
SWIDTH 346 0
DWIDTH 52 0
BBX 36 85 8 0
BITMAP
007E000000
01FFC00300
07FFF00F80
1FFFFE3FE0
7FFFFFFFE0
3FC3FFFF80
1F007FFE00
0C001FF800
000003E000
0000000000
0000000000
0000000000
0000000000
0000000000
0000000000
0000000000
0000000000
0000000000
0003FC0000
001FFF8000
007FFFE000
01FFFFF800
03FFFFFC00
07FE03FE00
0FF000FF00
1FC0003F80
3F80001FC0
7E000007E0
FC000003F0
F8000001F0
F8000001F0
F8000001F0
F8000001F0
F8000001F0
F8000001F0
F8000001F0
F8000001F0
F8000001F0
F8000001F0
F8000001F0
F8000001F0
F8000001F0
F8000001F0
F8000001F0
F8000001F0
F8000001F0
F8000001F0
F8000001F0
F8000001F0
F8000001F0
F8000001F0
F8000001F0
F8000001F0
F8000001F0
F8000001F0
F8000001F0
F8000001F0
F8000001F0
F8000001F0
F8000001F0
F8000001F0
F8000001F0
F8000001F0
F8000001F0
F8000001F0
F8000001F0
F8000001F0
F8000001F0
F8000001F0
F8000001F0
F8000001F0
F8000001F0
F8000001F0
F8000001F0
FC000003F0
7E000007F0
7F80000FE0
3FC0003FC0
1FF000FF80
07FC03FF00
03FFFFFC00
01FFFFF800
007FFFE000
001FFF8000
0003FC0000
ENDCHAR
STARTCHAR 00F6
ENCODING 246
SWIDTH 346 0
DWIDTH 52 0
BBX 36 85 8 0
BITMAP
00F801F000
00F801F000
00F801F000
00F801F000
00F801F000
00F801F000
00F801F000
00F801F000
00F801F000
00F801F000
0000000000
0000000000
0000000000
0000000000
0000000000
0000000000
0000000000
0000000000
0003FC0000
001FFF8000
007FFFE000
01FFFFF800
03FFFFFC00
07FE03FE00
0FF000FF00
1FC0003F80
3F80001FC0
7E000007E0
FC000003F0
F8000001F0
F8000001F0
F8000001F0
F8000001F0
F8000001F0
F8000001F0
F8000001F0
F8000001F0
F8000001F0
F8000001F0
F8000001F0
F8000001F0
F8000001F0
F8000001F0
F8000001F0
F8000001F0
F8000001F0
F8000001F0
F8000001F0
F8000001F0
F8000001F0
F8000001F0
F8000001F0
F8000001F0
F8000001F0
F8000001F0
F8000001F0
F8000001F0
F8000001F0
F8000001F0
F8000001F0
F8000001F0
F8000001F0
F8000001F0
F8000001F0
F8000001F0
F8000001F0
F8000001F0
F8000001F0
F8000001F0
F8000001F0
F8000001F0
F8000001F0
F8000001F0
F8000001F0
FC000003F0
7E000007F0
7F80000FE0
3FC0003FC0
1FF000FF80
07FC03FF00
03FFFFFC00
01FFFFF800
007FFFE000
001FFF8000
0003FC0000
ENDCHAR
STARTCHAR 00F7
ENCODING 247
SWIDTH 413 0
DWIDTH 62 0
BBX 47 44 8 21
BITMAP
000007C00000
000007C00000
000007C00000
000007C00000
000007C00000
000007C00000
000007C00000
000007C00000
000007C00000
000007C00000
000000000000
000000000000
000000000000
000000000000
000000000000
000000000000
000000000000
000000000000
000000000000
FFFFFFFFFFFE
FFFFFFFFFFFE
FFFFFFFFFFFE
FFFFFFFFFFFE
FFFFFFFFFFFE
000000000000
000000000000
000000000000
000000000000
000000000000
000000000000
000000000000
000000000000
000000000000
000000000000
000007C00000
000007C00000
000007C00000
000007C00000
000007C00000
000007C00000
000007C00000
000007C00000
000007C00000
000007C00000
ENDCHAR
STARTCHAR 00F8
ENCODING 248
SWIDTH 346 0
DWIDTH 52 0
BBX 36 78 8 -6
BITMAP
0000000F80
0000000F80
0000001F80
0000001F00
0000001F00
0003FC3F00
001FFF3E00
007FFFFE00
01FFFFFE00
03FFFFFC00
07FC07FE00
0FF001FF00
1FC000FF80
3F8000FFC0
7E0000FFE0
FC0001FFF0
F80001F3F0
F80001F1F0
F80003F1F0
F80003E1F0
F80003E1F0
F80007E1F0
F80007C1F0
F80007C1F0
F8000FC1F0
F8000F81F0
F8000F81F0
F8000F81F0
F8001F01F0
F8001F01F0
F8001F01F0
F8003E01F0
F8003E01F0
F8003E01F0
F8007C01F0
F8007C01F0
F8007C01F0
F800F801F0
F800F801F0
F800F801F0
F801F001F0
F801F001F0
F801F001F0
F803E001F0
F803E001F0
F803E001F0
F803C001F0
F807C001F0
F807C001F0
F8078001F0
F80F8001F0
F80F8001F0
F80F0001F0
F81F0001F0
F81F0001F0
F81E0001F0
F83E0001F0
F83E0001F0
F83C0001F0
F87C0001F0
F87C0001F0
FE780003F0
7F780007F0
3FF8000FE0
1FF0003FC0
0FF000FF80
07FE03FF00
03FFFFFC00
03FFFFF800
07FFFFE000
07DFFF8000
07C3FC0000
07C0000000
0F80000000
0F80000000
0F80000000
1F80000000
1F00000000
ENDCHAR
STARTCHAR 00F9
ENCODING 249
SWIDTH 346 0
DWIDTH 52 0
BBX 36 90 8 0
BITMAP
007C000000
003E000000
003F000000
001F800000
000FC00000
0007C00000
0003E00000
0001F00000
0000F80000
00007C0000
00003E0000
00003F0000
00001F8000
00000F8000
000007C000
000003E000
0000000000
0000000000
0000000000
0000000000
0000000000
0000000000
0000000000
F8000001F0
F8000001F0
F8000001F0
F8000001F0
F8000001F0
F8000001F0
F8000001F0
F8000001F0
F8000001F0
F8000001F0
F8000001F0
F8000001F0
F8000001F0
F8000001F0
F8000001F0
F8000001F0
F8000001F0
F8000001F0
F8000001F0
F8000001F0
F8000001F0
F8000001F0
F8000001F0
F8000001F0
F8000001F0
F8000001F0
F8000001F0
F8000001F0
F8000001F0
F8000001F0
F8000001F0
F8000001F0
F8000001F0
F8000001F0
F8000001F0
F8000001F0
F8000001F0
F8000001F0
F8000001F0
F8000001F0
F8000001F0
F8000001F0
F8000001F0
F8000001F0
F8000001F0
F8000001F0
F8000001F0
F8000001F0
F8000001F0
F8000001F0
F8000001F0
F8000001F0
F8000001F0
F8000001F0
F8000001F0
F8000001F0
FC000003F0
7F000007F0
3F80001FF0
1FC0003FF0
0FF000FFF0
07FF0FFFF0
03FFFFFDF0
01FFFFF9F0
007FFFE1F0
001FFF81F0
0003FC01F0
ENDCHAR
STARTCHAR 00FA
ENCODING 250
SWIDTH 346 0
DWIDTH 52 0
BBX 36 90 8 0
BITMAP
000003E000
000007E000
00000FC000
00001F8000
00001F0000
00003E0000
00007C0000
0000F80000
0001F00000
0003F00000
0007E00000
000FC00000
000F800000
001F000000
003E000000
007C000000
0000000000
0000000000
0000000000
0000000000
0000000000
0000000000
0000000000
F8000001F0
F8000001F0
F8000001F0
F8000001F0
F8000001F0
F8000001F0
F8000001F0
F8000001F0
F8000001F0
F8000001F0
F8000001F0
F8000001F0
F8000001F0
F8000001F0
F8000001F0
F8000001F0
F8000001F0
F8000001F0
F8000001F0
F8000001F0
F8000001F0
F8000001F0
F8000001F0
F8000001F0
F8000001F0
F8000001F0
F8000001F0
F8000001F0
F8000001F0
F8000001F0
F8000001F0
F8000001F0
F8000001F0
F8000001F0
F8000001F0
F8000001F0
F8000001F0
F8000001F0
F8000001F0
F8000001F0
F8000001F0
F8000001F0
F8000001F0
F8000001F0
F8000001F0
F8000001F0
F8000001F0
F8000001F0
F8000001F0
F8000001F0
F8000001F0
F8000001F0
F8000001F0
F8000001F0
F8000001F0
F8000001F0
FC000003F0
7F000007F0
3F80001FF0
1FC0003FF0
0FF000FFF0
07FF0FFFF0
03FFFFFDF0
01FFFFF9F0
007FFFE1F0
001FFF81F0
0003FC01F0
ENDCHAR
STARTCHAR 00FB
ENCODING 251
SWIDTH 346 0
DWIDTH 52 0
BBX 36 90 8 0
BITMAP
0001F80000
0001FC0000
0003FC0000
0007FE0000
0007FF0000
000FFF0000
001F9F8000
001F0F8000
003F0FC000
007E07E000
007C03E000
00FC03F000
01F801F800
01F000F800
03E0007C00
07E0007C00
0000003E00
0000000000
0000000000
0000000000
0000000000
0000000000
0000000000
F8000001F0
F8000001F0
F8000001F0
F8000001F0
F8000001F0
F8000001F0
F8000001F0
F8000001F0
F8000001F0
F8000001F0
F8000001F0
F8000001F0
F8000001F0
F8000001F0
F8000001F0
F8000001F0
F8000001F0
F8000001F0
F8000001F0
F8000001F0
F8000001F0
F8000001F0
F8000001F0
F8000001F0
F8000001F0
F8000001F0
F8000001F0
F8000001F0
F8000001F0
F8000001F0
F8000001F0
F8000001F0
F8000001F0
F8000001F0
F8000001F0
F8000001F0
F8000001F0
F8000001F0
F8000001F0
F8000001F0
F8000001F0
F8000001F0
F8000001F0
F8000001F0
F8000001F0
F8000001F0
F8000001F0
F8000001F0
F8000001F0
F8000001F0
F8000001F0
F8000001F0
F8000001F0
F8000001F0
F8000001F0
FC000003F0
FE000003F0
7F00000FF0
3F80001FF0
1FC0003FF0
0FF000FFF0
07FF0FFFF0
03FFFFFDF0
01FFFFF9F0
007FFFE1F0
001FFF81F0
0003FC01F0
ENDCHAR
STARTCHAR 00FC
ENCODING 252
SWIDTH 346 0
DWIDTH 52 0
BBX 36 85 8 0
BITMAP
00F801F000
00F801F000
00F801F000
00F801F000
00F801F000
00F801F000
00F801F000
00F801F000
00F801F000
00F801F000
0000000000
0000000000
0000000000
0000000000
0000000000
0000000000
0000000000
0000000000
F8000001F0
F8000001F0
F8000001F0
F8000001F0
F8000001F0
F8000001F0
F8000001F0
F8000001F0
F8000001F0
F8000001F0
F8000001F0
F8000001F0
F8000001F0
F8000001F0
F8000001F0
F8000001F0
F8000001F0
F8000001F0
F8000001F0
F8000001F0
F8000001F0
F8000001F0
F8000001F0
F8000001F0
F8000001F0
F8000001F0
F8000001F0
F8000001F0
F8000001F0
F8000001F0
F8000001F0
F8000001F0
F8000001F0
F8000001F0
F8000001F0
F8000001F0
F8000001F0
F8000001F0
F8000001F0
F8000001F0
F8000001F0
F8000001F0
F8000001F0
F8000001F0
F8000001F0
F8000001F0
F8000001F0
F8000001F0
F8000001F0
F8000001F0
F8000001F0
F8000001F0
F8000001F0
F8000001F0
F8000001F0
F8000001F0
FC000003F0
7F000007F0
3F80001FF0
1FC0003FF0
0FF000FFF0
07FF0FFFF0
03FFFFFDF0
01FFFFF9F0
007FFFE1F0
001FFF81F0
0003FC01F0
ENDCHAR
STARTCHAR 00FD
ENCODING 253
SWIDTH 346 0
DWIDTH 52 0
BBX 36 121 8 -31
BITMAP
000003E000
000007E000
00000FC000
00001F8000
00001F0000
00003E0000
00007C0000
0000F80000
0001F00000
0003F00000
0007E00000
000FC00000
000F800000
001F000000
003E000000
007C000000
0000000000
0000000000
0000000000
0000000000
0000000000
0000000000
0000000000
F8000001F0
F8000001F0
F8000001F0
F8000001F0
F8000001F0
F8000001F0
F8000001F0
F8000001F0
F8000001F0
F8000001F0
F8000001F0
F8000001F0
F8000001F0
F8000001F0
F8000001F0
F8000001F0
F8000001F0
F8000001F0
F8000001F0
F8000001F0
F8000001F0
F8000001F0
F8000001F0
F8000001F0
F8000001F0
F8000001F0
F8000001F0
F8000001F0
F8000001F0
F8000001F0
F8000001F0
F8000001F0
F8000001F0
F8000001F0
F8000001F0
F8000001F0
F8000001F0
F8000001F0
F8000001F0
F8000001F0
F8000001F0
F8000001F0
F8000001F0
F8000001F0
F8000001F0
F8000001F0
F8000001F0
F8000001F0
F8000001F0
F8000001F0
F8000001F0
F8000001F0
F8000001F0
F8000001F0
F8000001F0
F8000001F0
FC000003F0
7F000007F0
3F80001FF0
1FC0003FF0
0FF000FFF0
07FF0FFFF0
03FFFFFDF0
01FFFFF9F0
007FFFE1F0
001FFF81F0
0003FC01F0
00000001F0
00000001F0
00000001F0
00000001F0
00000001F0
00000001F0
00000001F0
00000001F0
00000001F0
00000001F0
00000001F0
00000001F0
00000001F0
00000001F0
00000001F0
00000001F0
00000001F0
00000001F0
00000001F0
00000001F0
00000003F0
00000007E0
0000000FC0
0000003F80
000000FF00
000003FE00
00003FFC00
00003FF800
00003FE000
00003F8000
00003C0000
ENDCHAR
STARTCHAR 00FE
ENCODING 254
SWIDTH 346 0
DWIDTH 52 0
BBX 36 128 8 -31
BITMAP
F800000000
F800000000
F800000000
F800000000
F800000000
F800000000
F800000000
F800000000
F800000000
F800000000
F800000000
F800000000
F800000000
F800000000
F800000000
F800000000
F800000000
F800000000
F800000000
F800000000
F800000000
F800000000
F800000000
F800000000
F800000000
F800000000
F800000000
F800000000
F800000000
F800000000
F803FC0000
F81FFF8000
F87FFFE000
F9FFFFF800
FBFFFFFC00
FFFFFFFE00
FFF801FF00
FFE0007F80
FF80001FC0
FF00000FE0
FE000007F0
FC000003F0
F8000001F0
F8000001F0
F8000001F0
F8000001F0
F8000001F0
F8000001F0
F8000001F0
F8000001F0
F8000001F0
F8000001F0
F8000001F0
F8000001F0
F8000001F0
F8000001F0
F8000001F0
F8000001F0
F8000001F0
F8000001F0
F8000001F0
F8000001F0
F8000001F0
F8000001F0
F8000001F0
F8000001F0
F8000001F0
F8000001F0
F8000001F0
F8000001F0
F8000001F0
F8000001F0
F8000001F0
F8000001F0
F8000001F0
F8000001F0
F8000001F0
F8000001F0
F8000001F0
F8000001F0
F8000001F0
F8000001F0
F8000001F0
F8000001F0
F8000001F0
FC000001F0
FE000003F0
FF000007E0
FF80001FE0
FFC0003FC0
FFF000FF80
FFFF0FFF00
FBFFFFFC00
F9FFFFF800
F87FFFE000
F81FFF8000
F803FC0000
F800000000
F800000000
F800000000
F800000000
F800000000
F800000000
F800000000
F800000000
F800000000
F800000000
F800000000
F800000000
F800000000
F800000000
F800000000
F800000000
F800000000
F800000000
F800000000
F800000000
F800000000
F800000000
F800000000
F800000000
F800000000
F800000000
F800000000
F800000000
F800000000
F800000000
F800000000
ENDCHAR
STARTCHAR 00FF
ENCODING 255
SWIDTH 346 0
DWIDTH 52 0
BBX 36 116 8 -31
BITMAP
00F801F000
00F801F000
00F801F000
00F801F000
00F801F000
00F801F000
00F801F000
00F801F000
00F801F000
00F801F000
0000000000
0000000000
0000000000
0000000000
0000000000
0000000000
0000000000
0000000000
F8000001F0
F8000001F0
F8000001F0
F8000001F0
F8000001F0
F8000001F0
F8000001F0
F8000001F0
F8000001F0
F8000001F0
F8000001F0
F8000001F0
F8000001F0
F8000001F0
F8000001F0
F8000001F0
F8000001F0
F8000001F0
F8000001F0
F8000001F0
F8000001F0
F8000001F0
F8000001F0
F8000001F0
F8000001F0
F8000001F0
F8000001F0
F8000001F0
F8000001F0
F8000001F0
F8000001F0
F8000001F0
F8000001F0
F8000001F0
F8000001F0
F8000001F0
F8000001F0
F8000001F0
F8000001F0
F8000001F0
F8000001F0
F8000001F0
F8000001F0
F8000001F0
F8000001F0
F8000001F0
F8000001F0
F8000001F0
F8000001F0
F8000001F0
F8000001F0
F8000001F0
F8000001F0
F8000001F0
F8000001F0
F8000001F0
FC000003F0
7F000007F0
3F80001FF0
1FC0003FF0
0FF000FFF0
07FF0FFFF0
03FFFFFDF0
01FFFFF9F0
007FFFE1F0
001FFF81F0
0003FC01F0
00000001F0
00000001F0
00000001F0
00000001F0
00000001F0
00000001F0
00000001F0
00000001F0
00000001F0
00000001F0
00000001F0
00000001F0
00000001F0
00000001F0
00000001F0
00000001F0
00000001F0
00000001F0
00000001F0
00000001F0
00000003F0
00000007E0
0000000FC0
0000003F80
000000FF00
000003FE00
00003FFC00
00003FF800
00003FE000
00003F8000
00003C0000
ENDCHAR
STARTCHAR 0101
ENCODING 257
SWIDTH 346 0
DWIDTH 52 0
BBX 0 0 0 0
BITMAP
ENDCHAR
STARTCHAR 0152
ENCODING 338
SWIDTH 553 0
DWIDTH 83 0
BBX 67 97 8 0
BITMAP
0003FC00000FF80000
001FFF80007FFF0000
007FFFE001FFFFC000
01FFFFF803FFFFF000
03FFFFFC0FFFFFF800
0FFC03FF1FF80FFC00
1FF000FFBFE001FE00
3FC0003FFF80007F00
7F80000FFF00003F80
FE000007FC00000FC0
FC000003F800000780
F8000001F000000000
F8000001F000000000
F8000001F000000000
F8000001F000000000
F8000001F000000000
F8000001F000000000
F8000001F000000000
F8000001F000000000
F8000001F000000000
F8000001F000000000
F8000001F000000000
F8000001F000000000
F8000001F000000000
F8000001F000000000
F8000001F000000000
F8000001F000000000
F8000001F000000000
F8000001F000000000
F8000001F000000000
F8000001F000000000
F8000001F000000000
F8000001F000000000
F8000001F000000000
F8000001F000000000
F8000001F000000000
F8000001F000000000
F8000001F000000000
F8000001F000000000
F8000001F000000000
F8000001F000000000
F8000001FFFFFF8000
F8000001FFFFFF8000
F8000001FFFFFF8000
F8000001FFFFFF8000
F8000001FFFFFF8000
F8000001F000000000
F8000001F000000000
F8000001F000000000
F8000001F000000000
F8000001F000000000
F8000001F000000000
F8000001F000000000
F8000001F000000000
F8000001F000000000
F8000001F000000000
F8000001F000000000
F8000001F000000000
F8000001F000000000
F8000001F000000000
F8000001F000000000
F8000001F000000000
F8000001F000000000
F8000001F000000000
F8000001F000000000
F8000001F000000000
F8000001F000000000
F8000001F000000000
F8000001F000000000
F8000001F000000000
F8000001F000000000
F8000001F000000000
F8000001F000000000
F8000001F000000000
F8000001F000000000
F8000001F000000000
F8000001F000000000
F8000001F000000000
F8000001F000000000
F8000001F000000000
F8000001F000000000
F8000001F000000000
F8000001F000000000
F8000001F000000000
F8000001F000000000
F8000001F000000600
FC000003F800000FE0
7E000007FC00001FC0
3F00000FFE00003F80
1FC0003FFF80007F00
1FF000FFBFE001FE00
07FC03FF1FF80FFC00
03FFFFFC0FFFFFF800
01FFFFF803FFFFE000
007FFFE001FFFFC000
001FFF80007FFF0000
0003FC00000FF80000
ENDCHAR
STARTCHAR 0153
ENCODING 339
SWIDTH 553 0
DWIDTH 83 0
BBX 67 67 8 0
BITMAP
0003FC000007F80000
001FFF80003FFF0000
007FFFE000FFFFC000
01FFFFF801FFFFF000
03FFFFFC07FFFFF800
07FE03FE0FFC07FC00
0FF000FF1FE001FE00
1FC0003FBF80007F00
3F80001FFF00003F80
7E000007FC00000FC0
FC000003F8000007E0
F8000001F0000003E0
F8000001F0000003E0
F8000001F0000003E0
F8000001F0000003E0
F8000001F0000003E0
F8000001F0000003E0
F8000001F0000003E0
F8000001F0000003E0
F8000001F0000003E0
F8000001F0000003E0
F8000001F0000003E0
F8000001F0000003E0
F8000001F0000003E0
F8000001F0000003E0
F8000001F0000003E0
F8000001F0000003E0
F8000001F0000003E0
F8000001F0000003E0
F8000001F0000003E0
F8000001F8000007E0
F8000001FC00000FE0
F8000001FE00001FC0
F8000001FF80003F80
F8000001FFC000FF00
F8000001FFF803FE00
F8000001F7FFFFFC00
F8000001F3FFFFF000
F8000001F0FFFFE000
F8000001F03FFF8000
F8000001F007F80000
F8000001F000000000
F8000001F000000000
F8000001F000000000
F8000001F000000000
F8000001F000000000
F8000001F000000000
F8000001F000000000
F8000001F000000000
F8000001F000000000
F8000001F000000000
F8000001F000000000
F8000001F000000000
F8000001F000000000
F8000001F000000000
F8000001F000000200
FC000003F8000007E0
7E000007FC00000FE0
3F80000FFF00003FC0
1FC0003FFF80007F80
0FF000FF9FE001FF00
07FC03FE0FF807FE00
03FFFFFC07FFFFF800
01FFFFF803FFFFF000
007FFFE000FFFFC000
001FFF80003FFF0000
0003FC000007F80000
ENDCHAR
STARTCHAR 0160
ENCODING 352
SWIDTH 346 0
DWIDTH 52 0
BBX 36 120 8 0
BITMAP
07E0003E00
03E0007C00
01F000FC00
01F801F800
00F801F000
007C03F000
007E07E000
003E07C000
003F0FC000
001F9F8000
000FDF0000
000FFF0000
0007FE0000
0003FE0000
0003FC0000
0001F80000
0001F80000
0000000000
0000000000
0000000000
0000000000
0000000000
0000000000
0003FC0000
001FFF8000
007FFFF000
01FFFFF800
03FFFFFE00
0FFE03FF00
1FF000FF80
3FC0003FC0
7F80000FE0
FF000007F0
FE000003C0
FC00000000
F800000000
F800000000
F800000000
F800000000
F800000000
F800000000
F800000000
F800000000
F800000000
F800000000
F800000000
F800000000
F800000000
F800000000
F800000000
F800000000
F800000000
F800000000
F800000000
F800000000
F800000000
F800000000
FC00000000
FE00000000
7F00000000
3F80000000
1FC0000000
0FF0000000
07FC000000
03FFFC0000
01FFFF8000
007FFFF000
001FFFF800
0003FFFE00
000003FF00
000000FF80
0000003FC0
0000001FE0
00000007F0
00000003F0
00000001F0
00000001F0
00000001F0
00000001F0
00000001F0
00000001F0
00000001F0
00000001F0
00000001F0
00000001F0
00000001F0
00000001F0
00000001F0
00000001F0
00000001F0
00000001F0
00000001F0
00000001F0
00000001F0
00000001F0
00000001F0
00000001F0
00000001F0
00000001F0
00000001F0
00000001F0
00000001F0
00000001F0
00000001F0
00000001F0
00000001F0
00000001F0
00000001F0
1C000001F0
FE000003F0
7F000007E0
3F80001FE0
1FC0003FC0
0FF000FF80
07FE03FF00
03FFFFFC00
01FFFFF800
007FFFE000
001FFF8000
0003FC0000
ENDCHAR
ENDFONT
